font.ufo
<glyph name="exclam" format="1">
  <advance width="266"/>
  <unicode hex="0021"/>
  <outline>
    <contour>
      <point x="197" y="229" type="line"/>
      <point x="206" y="722" type="line"/>
      <point x="61" y="722" type="line"/>
      <point x="70" y="229" type="line"/>
    </contour>
    <contour>
      <point x="200" y="55" type="curve"/>
      <point x="200" y="99"/>
      <point x="171" y="120"/>
      <point x="132" y="120" type="curve"/>
      <point x="93" y="120"/>
      <point x="67" y="97"/>
      <point x="67" y="55" type="curve"/>
      <point x="200" y="55"/>
      <point x="67" y="55"/>
      <point x="200" y="55" type="curve"/>
      <point x="200" y="11"/>
      <point x="172" y="-8"/>
      <point x="132" y="-8" type="curve"/>
      <point x="92" y="-8"/>
      <point x="67" y="13"/>
      <point x="67" y="55" type="curve"/>
      <point x="200" y="55"/>
      <point x="67" y="55"/>
    </contour>
  </outline>
</glyph>
<glyph name="quotedbl" format="1">
  <advance width="417"/>
  <unicode hex="0022"/>
  <outline>
    <contour>
      <point x="174" y="616" type="line"/>
      <point x="183" y="830" type="line"/>
      <point x="55" y="830" type="line"/>
      <point x="64" y="616" type="line"/>
    </contour>
    <contour>
      <point x="353" y="616" type="line"/>
      <point x="362" y="830" type="line"/>
      <point x="234" y="830" type="line"/>
      <point x="243" y="616" type="line"/>
    </contour>
  </outline>
</glyph>
<glyph name="numbersign" format="1">
  <advance width="572"/>
  <unicode hex="0023"/>
  <outline>
    <contour>
      <point x="42" y="221" type="line"/>
      <point x="456" y="221" type="line"/>
      <point x="481" y="320" type="line"/>
      <point x="67" y="320" type="line"/>
    </contour>
    <contour>
      <point x="90" y="437" type="line"/>
      <point x="506" y="437" type="line"/>
      <point x="531" y="536" type="line"/>
      <point x="114" y="536" type="line"/>
    </contour>
    <contour>
      <point x="372" y="39" type="line"/>
      <point x="533" y="722" type="line"/>
      <point x="405" y="722" type="line"/>
      <point x="245" y="39" type="line"/>
    </contour>
    <contour>
      <point x="164" y="46" type="line"/>
      <point x="324" y="722" type="line"/>
      <point x="197" y="722" type="line"/>
      <point x="42" y="46" type="line"/>
    </contour>
  </outline>
</glyph>
<glyph name="dollar" format="1">
  <advance width="499"/>
  <unicode hex="0024"/>
  <outline>
    <contour>
      <point x="162" y="92" type="curve"/>
      <point x="162" y="212"/>
      <point x="162" y="92"/>
      <point x="162" y="212" type="curve"/>
      <point x="62" y="212"/>
      <point x="162" y="212"/>
      <point x="62" y="212" type="curve"/>
      <point x="62" y="92"/>
      <point x="62" y="212"/>
      <point x="62" y="92" type="curve"/>
      <point x="162" y="92"/>
      <point x="62" y="92"/>
    </contour>
    <contour>
      <point x="321" y="635" type="curve"/>
      <point x="321" y="515"/>
      <point x="321" y="635"/>
      <point x="321" y="515" type="curve"/>
      <point x="421" y="515"/>
      <point x="321" y="515"/>
      <point x="421" y="515" type="curve"/>
      <point x="421" y="635"/>
      <point x="421" y="515"/>
      <point x="421" y="635" type="curve"/>
      <point x="321" y="635"/>
      <point x="421" y="635"/>
    </contour>
    <contour>
      <point x="301" y="-42" type="curve"/>
      <point x="301" y="-12"/>
      <point x="301" y="61"/>
      <point x="301" y="92" type="curve"/>
      <point x="174" y="92"/>
      <point x="301" y="92"/>
      <point x="174" y="92" type="curve"/>
      <point x="174" y="61"/>
      <point x="174" y="-12"/>
      <point x="174" y="-42" type="curve"/>
      <point x="301" y="-42"/>
      <point x="174" y="-42"/>
    </contour>
    <contour>
      <point x="310" y="637" type="curve"/>
      <point x="310" y="668"/>
      <point x="310" y="742"/>
      <point x="310" y="773" type="curve"/>
      <point x="183" y="773"/>
      <point x="310" y="773"/>
      <point x="183" y="773" type="curve"/>
      <point x="183" y="742"/>
      <point x="183" y="668"/>
      <point x="183" y="637" type="curve"/>
      <point x="310" y="637"/>
      <point x="183" y="637"/>
    </contour>
    <contour>
      <point x="62" y="92" type="curve"/>
      <point x="108" y="64"/>
      <point x="165" y="43"/>
      <point x="232" y="43" type="curve"/>
      <point x="363" y="43"/>
      <point x="461" y="109"/>
      <point x="461" y="218" type="curve"/>
      <point x="461" y="312"/>
      <point x="381" y="369"/>
      <point x="285" y="418" type="curve"/>
      <point x="229" y="447"/>
      <point x="182" y="469"/>
      <point x="182" y="523" type="curve"/>
      <point x="182" y="560"/>
      <point x="207" y="589"/>
      <point x="247" y="589" type="curve"/>
      <point x="292" y="589"/>
      <point x="321" y="574"/>
      <point x="358" y="551" type="curve"/>
      <point x="421" y="635"/>
      <point x="358" y="551"/>
      <point x="421" y="635" type="curve"/>
      <point x="367" y="669"/>
      <point x="320" y="687"/>
      <point x="253" y="687" type="curve"/>
      <point x="136" y="687"/>
      <point x="55" y="623"/>
      <point x="55" y="523" type="curve"/>
      <point x="55" y="430"/>
      <point x="118" y="376"/>
      <point x="211" y="329" type="curve"/>
      <point x="272" y="299"/>
      <point x="334" y="273"/>
      <point x="334" y="213" type="curve"/>
      <point x="334" y="169"/>
      <point x="295" y="141"/>
      <point x="243" y="141" type="curve"/>
      <point x="198" y="141"/>
      <point x="162" y="163"/>
      <point x="131" y="180" type="curve"/>
      <point x="62" y="92"/>
      <point x="131" y="180"/>
    </contour>
  </outline>
</glyph>
<glyph name="percent" format="1">
  <advance width="981"/>
  <unicode hex="0025"/>
  <outline>
    <contour>
      <point x="394" y="-43" type="line"/>
      <point x="711" y="714" type="line"/>
      <point x="595" y="714" type="line"/>
      <point x="278" y="-43" type="line"/>
    </contour>
    <contour>
      <point x="141" y="501" type="curve"/>
      <point x="141" y="570"/>
      <point x="155" y="628"/>
      <point x="215" y="628" type="curve"/>
      <point x="276" y="629"/>
      <point x="291" y="570"/>
      <point x="291" y="500" type="curve"/>
      <point x="291" y="430"/>
      <point x="282" y="370"/>
      <point x="222" y="370" type="curve"/>
      <point x="158" y="370"/>
      <point x="141" y="429"/>
      <point x="141" y="501" type="curve"/>
      <point x="102" y="501"/>
      <point x="74" y="501"/>
      <point x="35" y="501" type="curve"/>
      <point x="35" y="373"/>
      <point x="96" y="281"/>
      <point x="216" y="281" type="curve"/>
      <point x="340" y="281"/>
      <point x="403" y="374"/>
      <point x="403" y="504" type="curve"/>
      <point x="403" y="630"/>
      <point x="341" y="717"/>
      <point x="221" y="716" type="curve"/>
      <point x="99" y="716"/>
      <point x="35" y="628"/>
      <point x="35" y="501" type="curve"/>
      <point x="74" y="501"/>
      <point x="102" y="501"/>
    </contour>
    <contour>
      <point x="685" y="177" type="curve"/>
      <point x="685" y="246"/>
      <point x="699" y="303"/>
      <point x="759" y="303" type="curve"/>
      <point x="820" y="304"/>
      <point x="835" y="246"/>
      <point x="835" y="175" type="curve"/>
      <point x="835" y="105"/>
      <point x="825" y="45"/>
      <point x="765" y="45" type="curve"/>
      <point x="701" y="45"/>
      <point x="685" y="104"/>
      <point x="685" y="177" type="curve"/>
      <point x="645" y="177"/>
      <point x="618" y="177"/>
      <point x="578" y="177" type="curve"/>
      <point x="578" y="48"/>
      <point x="639" y="-43"/>
      <point x="760" y="-43" type="curve"/>
      <point x="883" y="-43"/>
      <point x="946" y="49"/>
      <point x="946" y="180" type="curve"/>
      <point x="946" y="306"/>
      <point x="884" y="393"/>
      <point x="764" y="392" type="curve"/>
      <point x="642" y="392"/>
      <point x="578" y="304"/>
      <point x="578" y="177" type="curve"/>
      <point x="618" y="177"/>
      <point x="645" y="177"/>
    </contour>
  </outline>
</glyph>
<glyph name="quotesingle" format="1">
  <advance width="237"/>
  <unicode hex="0027"/>
  <outline>
    <contour>
      <point x="174" y="616" type="line"/>
      <point x="183" y="830" type="line"/>
      <point x="55" y="830" type="line"/>
      <point x="64" y="616" type="line"/>
    </contour>
  </outline>
</glyph>
<glyph name="parenleft" format="1">
  <advance width="326"/>
  <unicode hex="0028"/>
  <outline>
    <contour>
      <point x="323" y="-208" type="curve"/>
      <point x="195" y="-39"/>
      <point x="164" y="114"/>
      <point x="164" y="326" type="curve"/>
      <point x="164" y="538"/>
      <point x="196" y="692"/>
      <point x="322" y="864" type="curve"/>
      <point x="246" y="927"/>
      <point x="322" y="864"/>
      <point x="246" y="927" type="curve"/>
      <point x="100" y="734"/>
      <point x="40" y="569"/>
      <point x="40" y="326" type="curve"/>
      <point x="40" y="82"/>
      <point x="101" y="-83"/>
      <point x="247" y="-278" type="curve"/>
      <point x="323" y="-208"/>
      <point x="247" y="-278"/>
    </contour>
  </outline>
</glyph>
<glyph name="parenright" format="1">
  <advance width="329"/>
  <unicode hex="0029"/>
  <outline>
    <contour>
      <point x="73" y="-291" type="curve"/>
      <point x="221" y="-89"/>
      <point x="291" y="78"/>
      <point x="291" y="329" type="curve"/>
      <point x="291" y="573"/>
      <point x="228" y="738"/>
      <point x="76" y="930" type="curve"/>
      <point x="1" y="860"/>
      <point x="76" y="930"/>
      <point x="1" y="860" type="curve"/>
      <point x="130" y="690"/>
      <point x="166" y="538"/>
      <point x="166" y="324" type="curve"/>
      <point x="166" y="107"/>
      <point x="122" y="-48"/>
      <point x="-3" y="-228" type="curve"/>
      <point x="73" y="-291"/>
      <point x="-3" y="-228"/>
    </contour>
  </outline>
</glyph>
<glyph name="hyphen" format="1">
  <advance width="347"/>
  <unicode hex="002D"/>
  <outline>
    <contour>
      <point x="65" y="228" type="curve"/>
      <point x="138" y="228"/>
      <point x="210" y="228"/>
      <point x="282" y="228" type="curve"/>
      <point x="282" y="336"/>
      <point x="282" y="228"/>
      <point x="282" y="336" type="curve"/>
      <point x="210" y="336"/>
      <point x="138" y="336"/>
      <point x="65" y="336" type="curve"/>
      <point x="65" y="228"/>
      <point x="65" y="336"/>
    </contour>
  </outline>
</glyph>
<glyph name="slash" format="1">
  <advance width="494"/>
  <unicode hex="002F"/>
  <outline>
    <contour>
      <point x="152" y="-20" type="curve"/>
      <point x="257" y="250"/>
      <point x="363" y="520"/>
      <point x="469" y="790" type="curve"/>
      <point x="341" y="790"/>
      <point x="469" y="790"/>
      <point x="341" y="790" type="curve"/>
      <point x="236" y="520"/>
      <point x="130" y="250"/>
      <point x="25" y="-20" type="curve"/>
      <point x="152" y="-20"/>
      <point x="25" y="-20"/>
    </contour>
  </outline>
</glyph>
<glyph name="zero" format="1">
  <advance width="625"/>
  <unicode hex="0030"/>
  <outline>
    <contour>
      <point x="175" y="360" type="curve"/>
      <point x="175" y="503"/>
      <point x="186" y="624"/>
      <point x="309" y="624" type="curve"/>
      <point x="432" y="624"/>
      <point x="452" y="506"/>
      <point x="452" y="363" type="curve"/>
      <point x="452" y="220"/>
      <point x="440" y="99"/>
      <point x="319" y="99" type="curve"/>
      <point x="196" y="99"/>
      <point x="175" y="217"/>
      <point x="175" y="360" type="curve"/>
      <point x="53" y="360"/>
      <point x="174" y="360"/>
      <point x="52" y="360" type="curve"/>
      <point x="52" y="151"/>
      <point x="124" y="-5"/>
      <point x="312" y="-5" type="curve"/>
      <point x="503" y="-5"/>
      <point x="573" y="152"/>
      <point x="573" y="363" type="curve"/>
      <point x="573" y="571"/>
      <point x="506" y="727"/>
      <point x="320" y="727" type="curve"/>
      <point x="128" y="727"/>
      <point x="52" y="571"/>
      <point x="52" y="360" type="curve"/>
      <point x="174" y="360"/>
      <point x="53" y="360"/>
    </contour>
  </outline>
</glyph>
<glyph name="four" format="1">
  <advance width="507"/>
  <unicode hex="0034"/>
  <outline>
    <contour>
      <point x="325" y="98" type="line"/>
      <point x="201" y="98" type="line"/>
      <point x="201" y="0" type="line"/>
      <point x="325" y="0" type="line"/>
    </contour>
    <contour>
      <point x="325" y="0" type="line"/>
      <point x="450" y="0" type="line"/>
      <point x="450" y="98" type="line"/>
      <point x="325" y="98" type="line"/>
    </contour>
    <contour>
      <point x="82" y="252" type="line"/>
      <point x="368" y="697" type="line"/>
      <point x="262" y="699" type="line"/>
      <point x="30" y="340" type="line"/>
    </contour>
    <contour>
      <point x="472" y="340" type="line"/>
      <point x="30" y="340" type="line"/>
      <point x="31" y="231" type="line"/>
      <point x="472" y="231" type="line"/>
    </contour>
    <contour>
      <point x="390" y="41" type="line"/>
      <point x="390" y="699" type="line"/>
      <point x="265" y="699" type="line"/>
      <point x="265" y="41" type="line"/>
    </contour>
  </outline>
</glyph>
<glyph name="five" format="1">
  <advance width="468"/>
  <unicode hex="0035"/>
  <outline>
    <contour>
      <point x="58" y="722" type="curve"/>
      <point x="58" y="624"/>
      <point x="58" y="517"/>
      <point x="58" y="382" type="curve"/>
      <point x="179" y="343"/>
      <point x="58" y="382"/>
      <point x="179" y="343" type="curve"/>
      <point x="179" y="434"/>
      <point x="179" y="533"/>
      <point x="179" y="624" type="curve"/>
      <point x="58" y="722"/>
      <point x="179" y="624"/>
    </contour>
    <contour>
      <point x="179" y="343" type="curve"/>
      <point x="189" y="359"/>
      <point x="203" y="373"/>
      <point x="225" y="373" type="curve"/>
      <point x="281" y="373"/>
      <point x="294" y="313"/>
      <point x="294" y="241" type="curve"/>
      <point x="294" y="167"/>
      <point x="266" y="98"/>
      <point x="201" y="98" type="curve"/>
      <point x="163" y="98"/>
      <point x="139" y="110"/>
      <point x="107" y="131" type="curve"/>
      <point x="44" y="43"/>
      <point x="107" y="131"/>
      <point x="44" y="43" type="curve"/>
      <point x="92" y="10"/>
      <point x="136" y="-5"/>
      <point x="195" y="-5" type="curve"/>
      <point x="330" y="-5"/>
      <point x="422" y="100"/>
      <point x="422" y="240" type="curve"/>
      <point x="422" y="374"/>
      <point x="361" y="478"/>
      <point x="244" y="478" type="curve"/>
      <point x="180" y="478"/>
      <point x="121" y="460"/>
      <point x="58" y="382" type="curve"/>
      <point x="179" y="343"/>
      <point x="58" y="382"/>
    </contour>
    <contour>
      <point x="396" y="722" type="curve"/>
      <point x="294" y="722"/>
      <point x="160" y="722"/>
      <point x="58" y="722" type="curve"/>
      <point x="179" y="624"/>
      <point x="58" y="722"/>
      <point x="179" y="624" type="curve"/>
      <point x="241" y="624"/>
      <point x="334" y="624"/>
      <point x="396" y="624" type="curve"/>
      <point x="396" y="722"/>
      <point x="396" y="624"/>
    </contour>
  </outline>
</glyph>
<glyph name="six" format="1">
  <advance width="524"/>
  <unicode hex="0036"/>
  <outline>
    <contour>
      <point x="152" y="212" type="curve"/>
      <point x="169" y="283"/>
      <point x="203" y="342"/>
      <point x="268" y="342" type="curve"/>
      <point x="331" y="342"/>
      <point x="350" y="291"/>
      <point x="350" y="223" type="curve"/>
      <point x="350" y="160"/>
      <point x="329" y="107"/>
      <point x="272" y="107" type="curve"/>
      <point x="197" y="107"/>
      <point x="170" y="172"/>
      <point x="170" y="258" type="curve"/>
      <point x="170" y="448"/>
      <point x="263" y="570"/>
      <point x="450" y="637" type="curve"/>
      <point x="415" y="729"/>
      <point x="450" y="637"/>
      <point x="415" y="729" type="curve"/>
      <point x="182" y="649"/>
      <point x="48" y="499"/>
      <point x="48" y="252" type="curve"/>
      <point x="48" y="97"/>
      <point x="123" y="-11"/>
      <point x="270" y="-11" type="curve"/>
      <point x="404" y="-11"/>
      <point x="477" y="83"/>
      <point x="477" y="223" type="curve"/>
      <point x="477" y="357"/>
      <point x="411" y="445"/>
      <point x="291" y="445" type="curve"/>
      <point x="166" y="445"/>
      <point x="98" y="324"/>
      <point x="92" y="238" type="curve"/>
      <point x="152" y="212"/>
      <point x="92" y="238"/>
    </contour>
  </outline>
</glyph>
<glyph name="eight" format="1">
  <advance width="521"/>
  <unicode hex="0038"/>
  <outline>
    <contour>
      <point x="68" y="540" type="curve"/>
      <point x="68" y="437"/>
      <point x="133" y="394"/>
      <point x="223" y="342" type="curve"/>
      <point x="291" y="301"/>
      <point x="339" y="264"/>
      <point x="339" y="191" type="curve"/>
      <point x="339" y="136"/>
      <point x="314" y="99"/>
      <point x="261" y="99" type="curve"/>
      <point x="207" y="99"/>
      <point x="181" y="135"/>
      <point x="181" y="191" type="curve"/>
      <point x="181" y="266"/>
      <point x="231" y="299"/>
      <point x="299" y="341" type="curve"/>
      <point x="386" y="394"/>
      <point x="453" y="437"/>
      <point x="453" y="538" type="curve"/>
      <point x="453" y="659"/>
      <point x="384" y="727"/>
      <point x="261" y="727" type="curve"/>
      <point x="141" y="727"/>
      <point x="68" y="658"/>
      <point x="68" y="540" type="curve"/>
      <point x="195" y="540"/>
      <point x="68" y="540"/>
      <point x="195" y="540" type="curve"/>
      <point x="195" y="588"/>
      <point x="212" y="624"/>
      <point x="258" y="624" type="curve"/>
      <point x="305" y="624"/>
      <point x="325" y="590"/>
      <point x="325" y="538" type="curve"/>
      <point x="325" y="475"/>
      <point x="280" y="446"/>
      <point x="222" y="412" type="curve"/>
      <point x="124" y="353"/>
      <point x="54" y="304"/>
      <point x="54" y="191" type="curve"/>
      <point x="54" y="66"/>
      <point x="128" y="-5"/>
      <point x="255" y="-5" type="curve"/>
      <point x="386" y="-5"/>
      <point x="467" y="64"/>
      <point x="467" y="191" type="curve"/>
      <point x="467" y="303"/>
      <point x="397" y="355"/>
      <point x="300" y="413" type="curve"/>
      <point x="241" y="449"/>
      <point x="195" y="475"/>
      <point x="195" y="540" type="curve"/>
      <point x="68" y="540"/>
      <point x="195" y="540"/>
    </contour>
  </outline>
</glyph>
<glyph name="colon" format="1">
  <advance width="265"/>
  <unicode hex="003A"/>
  <outline>
    <contour>
      <point x="198" y="367" type="curve"/>
      <point x="198" y="410"/>
      <point x="171" y="432"/>
      <point x="131" y="432" type="curve"/>
      <point x="91" y="432"/>
      <point x="65" y="409"/>
      <point x="65" y="367" type="curve"/>
      <point x="198" y="367"/>
      <point x="65" y="367"/>
      <point x="198" y="367" type="curve"/>
      <point x="198" y="323"/>
      <point x="171" y="303"/>
      <point x="131" y="303" type="curve"/>
      <point x="91" y="303"/>
      <point x="65" y="325"/>
      <point x="65" y="367" type="curve"/>
      <point x="198" y="367"/>
      <point x="65" y="367"/>
    </contour>
    <contour>
      <point x="198" y="59" type="curve"/>
      <point x="198" y="102"/>
      <point x="171" y="124"/>
      <point x="131" y="124" type="curve"/>
      <point x="91" y="124"/>
      <point x="65" y="100"/>
      <point x="65" y="59" type="curve"/>
      <point x="198" y="59"/>
      <point x="65" y="59"/>
      <point x="198" y="59" type="curve"/>
      <point x="198" y="15"/>
      <point x="171" y="-5"/>
      <point x="131" y="-5" type="curve"/>
      <point x="91" y="-5"/>
      <point x="65" y="17"/>
      <point x="65" y="59" type="curve"/>
      <point x="198" y="59"/>
      <point x="65" y="59"/>
    </contour>
  </outline>
</glyph>
<glyph name="equal" format="1">
  <advance width="606"/>
  <unicode hex="003D"/>
  <outline>
    <contour>
      <point x="70" y="165" type="curve"/>
      <point x="225" y="165"/>
      <point x="381" y="165"/>
      <point x="537" y="165" type="curve"/>
      <point x="537" y="270"/>
      <point x="537" y="165"/>
      <point x="537" y="270" type="curve"/>
      <point x="381" y="270"/>
      <point x="225" y="270"/>
      <point x="70" y="270" type="curve"/>
      <point x="70" y="165"/>
      <point x="70" y="270"/>
    </contour>
    <contour>
      <point x="70" y="387" type="curve"/>
      <point x="225" y="387"/>
      <point x="381" y="387"/>
      <point x="537" y="387" type="curve"/>
      <point x="537" y="492"/>
      <point x="537" y="387"/>
      <point x="537" y="492" type="curve"/>
      <point x="381" y="492"/>
      <point x="225" y="492"/>
      <point x="70" y="492" type="curve"/>
      <point x="70" y="387"/>
      <point x="70" y="492"/>
    </contour>
  </outline>
</glyph>
<glyph name="greater" format="1">
  <advance width="554"/>
  <unicode hex="003E"/>
  <outline>
    <contour>
      <point x="66" y="-19" type="curve"/>
      <point x="216" y="71"/>
      <point x="368" y="161"/>
      <point x="519" y="251" type="curve"/>
      <point x="519" y="361"/>
      <point x="519" y="251"/>
      <point x="519" y="361" type="curve"/>
      <point x="368" y="271"/>
      <point x="216" y="181"/>
      <point x="66" y="91" type="curve"/>
      <point x="66" y="-19"/>
      <point x="66" y="91"/>
    </contour>
    <contour>
      <point x="59" y="515" type="curve"/>
      <point x="211" y="427"/>
      <point x="365" y="339"/>
      <point x="519" y="251" type="curve"/>
      <point x="519" y="361"/>
      <point x="519" y="251"/>
      <point x="519" y="361" type="curve"/>
      <point x="365" y="449"/>
      <point x="211" y="537"/>
      <point x="59" y="625" type="curve"/>
      <point x="59" y="515"/>
      <point x="59" y="625"/>
    </contour>
  </outline>
</glyph>
<glyph name="question" format="1">
  <advance width="473"/>
  <unicode hex="003F"/>
  <outline>
    <contour>
      <point x="166" y="374" type="curve"/>
      <point x="166" y="337"/>
      <point x="166" y="258"/>
      <point x="166" y="221" type="curve"/>
      <point x="282" y="221"/>
      <point x="166" y="221"/>
      <point x="282" y="221" type="curve"/>
      <point x="282" y="258"/>
      <point x="282" y="337"/>
      <point x="282" y="374" type="curve"/>
      <point x="166" y="374"/>
      <point x="282" y="374"/>
    </contour>
    <contour>
      <point x="102" y="586" type="line"/>
      <point x="132" y="621"/>
      <point x="161" y="641"/>
      <point x="206" y="641" type="curve"/>
      <point x="273" y="641"/>
      <point x="306" y="589"/>
      <point x="306" y="518" type="curve"/>
      <point x="306" y="434"/>
      <point x="260" y="374"/>
      <point x="179" y="374" type="curve"/>
      <point x="179" y="337"/>
      <point x="178" y="316"/>
      <point x="178" y="279" type="curve"/>
      <point x="331" y="279"/>
      <point x="427" y="372"/>
      <point x="427" y="518" type="curve"/>
      <point x="427" y="659"/>
      <point x="342" y="746"/>
      <point x="211" y="746" type="curve"/>
      <point x="134" y="746"/>
      <point x="77" y="720"/>
      <point x="34" y="667" type="curve"/>
    </contour>
    <contour>
      <point x="291" y="55" type="curve"/>
      <point x="291" y="99"/>
      <point x="263" y="120"/>
      <point x="224" y="120" type="curve"/>
      <point x="184" y="120"/>
      <point x="158" y="97"/>
      <point x="158" y="55" type="curve"/>
      <point x="291" y="55"/>
      <point x="158" y="55"/>
      <point x="291" y="55" type="curve"/>
      <point x="291" y="11"/>
      <point x="264" y="-8"/>
      <point x="224" y="-8" type="curve"/>
      <point x="184" y="-8"/>
      <point x="158" y="13"/>
      <point x="158" y="55" type="curve"/>
      <point x="291" y="55"/>
      <point x="158" y="55"/>
    </contour>
  </outline>
</glyph>
<glyph name="at" format="1">
  <advance width="716"/>
  <unicode hex="0040"/>
  <outline>
    <contour>
      <point x="464" y="-17" type="curve"/>
      <point x="434" y="-37"/>
      <point x="410" y="-46"/>
      <point x="373" y="-46" type="curve"/>
      <point x="236" y="-46"/>
      <point x="159" y="62"/>
      <point x="159" y="211" type="curve"/>
      <point x="159" y="353"/>
      <point x="231" y="456"/>
      <point x="362" y="456" type="curve"/>
      <point x="488" y="456"/>
      <point x="558" y="352"/>
      <point x="558" y="212" type="curve"/>
      <point x="558" y="161"/>
      <point x="559" y="116"/>
      <point x="537" y="116" type="curve"/>
      <point x="517" y="116"/>
      <point x="518" y="160"/>
      <point x="518" y="215" type="curve"/>
      <point x="518" y="326"/>
      <point x="464" y="406"/>
      <point x="359" y="406" type="curve"/>
      <point x="244" y="406"/>
      <point x="198" y="329"/>
      <point x="198" y="211" type="curve"/>
      <point x="198" y="92"/>
      <point x="239" y="10"/>
      <point x="349" y="10" type="curve"/>
      <point x="449" y="10"/>
      <point x="488" y="88"/>
      <point x="500" y="196" type="curve"/>
      <point x="419" y="216"/>
      <point x="500" y="196"/>
      <point x="419" y="216" type="curve"/>
      <point x="409" y="162"/>
      <point x="413" y="109"/>
      <point x="363" y="109" type="curve"/>
      <point x="321" y="109"/>
      <point x="311" y="157"/>
      <point x="311" y="217" type="curve"/>
      <point x="311" y="265"/>
      <point x="315" y="307"/>
      <point x="354" y="307" type="curve"/>
      <point x="401" y="307"/>
      <point x="402" y="263"/>
      <point x="402" y="209" type="curve"/>
      <point x="402" y="104"/>
      <point x="432" y="22"/>
      <point x="527" y="22" type="curve"/>
      <point x="629" y="22"/>
      <point x="665" y="105"/>
      <point x="665" y="218" type="curve"/>
      <point x="665" y="421"/>
      <point x="559" y="559"/>
      <point x="365" y="559" type="curve"/>
      <point x="159" y="559"/>
      <point x="47" y="419"/>
      <point x="47" y="205" type="curve"/>
      <point x="47" y="-6"/>
      <point x="164" y="-145"/>
      <point x="367" y="-145" type="curve"/>
      <point x="429" y="-145"/>
      <point x="462" y="-135"/>
      <point x="514" y="-101" type="curve"/>
      <point x="464" y="-17"/>
      <point x="514" y="-101"/>
    </contour>
  </outline>
</glyph>
<glyph name="B" format="1">
  <advance width="597"/>
  <unicode hex="0042"/>
  <outline>
    <contour>
      <point x="190" y="722" type="curve"/>
      <point x="146" y="722"/>
      <point x="104" y="722"/>
      <point x="60" y="722" type="curve"/>
      <point x="60" y="624"/>
      <point x="60" y="722"/>
      <point x="60" y="624" type="curve"/>
      <point x="193" y="624"/>
      <point x="57" y="624"/>
      <point x="190" y="624" type="curve"/>
      <point x="190" y="722"/>
      <point x="190" y="624"/>
    </contour>
    <contour>
      <point x="189" y="98" type="curve"/>
      <point x="56" y="98"/>
      <point x="192" y="98"/>
      <point x="59" y="98" type="curve"/>
      <point x="59" y="0"/>
      <point x="59" y="98"/>
      <point x="59" y="0" type="curve"/>
      <point x="104" y="0"/>
      <point x="146" y="0"/>
      <point x="189" y="0" type="curve"/>
      <point x="189" y="98"/>
      <point x="189" y="0"/>
    </contour>
    <contour>
      <point x="182" y="624" type="curve"/>
      <point x="232" y="624"/>
      <point x="264" y="624"/>
      <point x="313" y="624" type="curve"/>
      <point x="367" y="624"/>
      <point x="389" y="588"/>
      <point x="389" y="539" type="curve"/>
      <point x="389" y="490"/>
      <point x="367" y="454"/>
      <point x="317" y="454" type="curve"/>
      <point x="267" y="454"/>
      <point x="234" y="454"/>
      <point x="182" y="454" type="curve"/>
      <point x="182" y="416"/>
      <point x="182" y="392"/>
      <point x="182" y="355" type="curve"/>
      <point x="217" y="355"/>
      <point x="240" y="355"/>
      <point x="275" y="355" type="curve"/>
      <point x="391" y="355"/>
      <point x="514" y="406"/>
      <point x="514" y="533" type="curve"/>
      <point x="514" y="653"/>
      <point x="442" y="722"/>
      <point x="322" y="722" type="curve"/>
      <point x="269" y="722"/>
      <point x="235" y="722"/>
      <point x="182" y="722" type="curve"/>
      <point x="182" y="684"/>
      <point x="182" y="661"/>
    </contour>
    <contour>
      <point x="257" y="0" type="curve"/>
      <point x="257" y="241"/>
      <point x="257" y="481"/>
      <point x="257" y="722" type="curve"/>
      <point x="124" y="722"/>
      <point x="257" y="722"/>
      <point x="124" y="722" type="curve"/>
      <point x="124" y="481"/>
      <point x="124" y="241"/>
      <point x="124" y="0" type="curve"/>
      <point x="257" y="0"/>
      <point x="124" y="0"/>
    </contour>
    <contour>
      <point x="182" y="355" type="curve"/>
      <point x="234" y="355"/>
      <point x="267" y="355"/>
      <point x="317" y="355" type="curve"/>
      <point x="394" y="355"/>
      <point x="423" y="300"/>
      <point x="423" y="225" type="curve"/>
      <point x="423" y="151"/>
      <point x="390" y="98"/>
      <point x="318" y="98" type="curve"/>
      <point x="266" y="98"/>
      <point x="234" y="98"/>
      <point x="182" y="98" type="curve"/>
      <point x="182" y="61"/>
      <point x="182" y="38"/>
      <point x="182" y="0" type="curve"/>
      <point x="237" y="0"/>
      <point x="272" y="0"/>
      <point x="326" y="0" type="curve"/>
      <point x="466" y="0"/>
      <point x="551" y="82"/>
      <point x="551" y="221" type="curve"/>
      <point x="551" y="377"/>
      <point x="427" y="454"/>
      <point x="276" y="454" type="curve"/>
      <point x="241" y="454"/>
      <point x="217" y="454"/>
      <point x="182" y="454" type="curve"/>
      <point x="182" y="416"/>
      <point x="182" y="392"/>
    </contour>
  </outline>
</glyph>
<glyph name="D" format="1">
  <advance width="682"/>
  <unicode hex="0044"/>
  <outline>
    <contour>
      <point x="308" y="786" type="move" name="top"/>
    </contour>
    <contour>
      <point x="194" y="98" type="curve"/>
      <point x="57" y="98"/>
      <point x="196" y="98"/>
      <point x="60" y="98" type="curve"/>
      <point x="60" y="0"/>
      <point x="60" y="98"/>
      <point x="60" y="0" type="curve"/>
      <point x="106" y="0"/>
      <point x="149" y="0"/>
      <point x="194" y="0" type="curve"/>
      <point x="194" y="98"/>
      <point x="194" y="0"/>
    </contour>
    <contour>
      <point x="194" y="722" type="curve"/>
      <point x="149" y="722"/>
      <point x="106" y="722"/>
      <point x="60" y="722" type="curve"/>
      <point x="60" y="624"/>
      <point x="60" y="722"/>
      <point x="60" y="624" type="curve"/>
      <point x="196" y="624"/>
      <point x="57" y="624"/>
      <point x="194" y="624" type="curve"/>
      <point x="194" y="722"/>
      <point x="194" y="624"/>
    </contour>
    <contour>
      <point x="129" y="722" type="curve"/>
      <point x="129" y="481"/>
      <point x="129" y="241"/>
      <point x="129" y="0" type="curve"/>
      <point x="256" y="0"/>
      <point x="129" y="0"/>
      <point x="256" y="0" type="curve"/>
      <point x="256" y="241"/>
      <point x="256" y="481"/>
      <point x="256" y="722" type="curve"/>
      <point x="129" y="722"/>
      <point x="256" y="722"/>
    </contour>
    <contour>
      <point x="194" y="0" type="curve"/>
      <point x="241" y="0"/>
      <point x="287" y="0"/>
      <point x="335" y="0" type="curve"/>
      <point x="541" y="0"/>
      <point x="632" y="137"/>
      <point x="632" y="354" type="curve"/>
      <point x="632" y="579"/>
      <point x="543" y="722"/>
      <point x="332" y="722" type="curve"/>
      <point x="286" y="722"/>
      <point x="241" y="722"/>
      <point x="194" y="722" type="curve"/>
      <point x="194" y="625"/>
      <point x="194" y="720"/>
      <point x="194" y="624" type="curve"/>
      <point x="239" y="624"/>
      <point x="282" y="624"/>
      <point x="327" y="624" type="curve"/>
      <point x="468" y="624"/>
      <point x="504" y="510"/>
      <point x="504" y="352" type="curve"/>
      <point x="504" y="206"/>
      <point x="474" y="98"/>
      <point x="347" y="98" type="curve"/>
      <point x="295" y="98"/>
      <point x="246" y="98"/>
      <point x="194" y="98" type="curve"/>
      <point x="194" y="2"/>
      <point x="194" y="97"/>
    </contour>
  </outline>
</glyph>
<glyph name="F" format="1">
  <advance width="517"/>
  <unicode hex="0046"/>
  <outline>
    <contour>
      <point x="193" y="0" type="curve"/>
      <point x="239" y="0"/>
      <point x="193" y="0"/>
      <point x="330" y="0" type="curve"/>
      <point x="330" y="98"/>
      <point x="330" y="0"/>
      <point x="330" y="98" type="curve"/>
      <point x="193" y="98"/>
      <point x="330" y="98"/>
      <point x="193" y="98" type="curve"/>
      <point x="193" y="0"/>
      <point x="193" y="98"/>
    </contour>
    <contour>
      <point x="193" y="722" type="curve"/>
      <point x="148" y="722"/>
      <point x="105" y="722"/>
      <point x="59" y="722" type="curve"/>
      <point x="59" y="624"/>
      <point x="59" y="722"/>
      <point x="59" y="624" type="curve"/>
      <point x="195" y="624"/>
      <point x="56" y="624"/>
      <point x="193" y="624" type="curve"/>
      <point x="193" y="722"/>
      <point x="193" y="624"/>
    </contour>
    <contour>
      <point x="193" y="98" type="curve"/>
      <point x="56" y="98"/>
      <point x="195" y="98"/>
      <point x="59" y="98" type="curve"/>
      <point x="59" y="0"/>
      <point x="59" y="98"/>
      <point x="59" y="0" type="curve"/>
      <point x="105" y="0"/>
      <point x="148" y="0"/>
      <point x="193" y="0" type="curve"/>
      <point x="193" y="98"/>
      <point x="193" y="0"/>
    </contour>
    <contour>
      <point x="390" y="673" type="curve"/>
      <point x="390" y="553"/>
      <point x="390" y="674"/>
      <point x="390" y="554" type="curve"/>
      <point x="490" y="554"/>
      <point x="390" y="554"/>
      <point x="490" y="554" type="curve"/>
      <point x="490" y="674"/>
      <point x="490" y="553"/>
      <point x="490" y="673" type="curve"/>
      <point x="390" y="673"/>
      <point x="490" y="673"/>
    </contour>
    <contour>
      <point x="196" y="323" type="curve"/>
      <point x="276" y="323"/>
      <point x="355" y="323"/>
      <point x="436" y="323" type="curve"/>
      <point x="436" y="422"/>
      <point x="436" y="323"/>
      <point x="436" y="422" type="curve"/>
      <point x="355" y="422"/>
      <point x="276" y="422"/>
      <point x="196" y="422" type="curve"/>
      <point x="196" y="323"/>
      <point x="196" y="422"/>
    </contour>
    <contour>
      <point x="257" y="0" type="curve"/>
      <point x="257" y="722" type="line"/>
      <point x="130" y="722"/>
      <point x="257" y="722"/>
      <point x="130" y="722" type="curve"/>
      <point x="130" y="481"/>
      <point x="130" y="241"/>
      <point x="130" y="0" type="curve"/>
      <point x="257" y="0"/>
      <point x="130" y="0"/>
    </contour>
    <contour>
      <point x="185" y="624" type="curve"/>
      <point x="286" y="624"/>
      <point x="388" y="624"/>
      <point x="490" y="624" type="curve"/>
      <point x="490" y="722"/>
      <point x="490" y="624"/>
      <point x="490" y="722" type="curve"/>
      <point x="388" y="722"/>
      <point x="286" y="722"/>
      <point x="185" y="722" type="curve"/>
      <point x="185" y="624"/>
      <point x="185" y="722"/>
    </contour>
  </outline>
</glyph>
<glyph name="J" format="1">
  <advance width="395"/>
  <unicode hex="004A"/>
  <outline>
    <contour>
      <point x="242" y="722" type="curve"/>
      <point x="198" y="722"/>
      <point x="157" y="722"/>
      <point x="112" y="722" type="curve"/>
      <point x="112" y="624"/>
      <point x="112" y="722"/>
      <point x="112" y="624" type="curve"/>
      <point x="245" y="624"/>
      <point x="110" y="624"/>
      <point x="242" y="624" type="curve"/>
      <point x="242" y="722"/>
      <point x="242" y="624"/>
    </contour>
    <contour>
      <point x="242" y="624" type="curve"/>
      <point x="375" y="624"/>
      <point x="240" y="624"/>
      <point x="373" y="624" type="curve"/>
      <point x="373" y="722"/>
      <point x="373" y="624"/>
      <point x="373" y="722" type="curve"/>
      <point x="329" y="722"/>
      <point x="286" y="722"/>
      <point x="242" y="722" type="curve"/>
      <point x="242" y="624"/>
      <point x="242" y="722"/>
    </contour>
    <contour>
      <point x="1" y="44" type="curve"/>
      <point x="26" y="22"/>
      <point x="65" y="-4"/>
      <point x="114" y="-4" type="curve"/>
      <point x="248" y="-4"/>
      <point x="306" y="85"/>
      <point x="306" y="242" type="curve"/>
      <point x="306" y="403"/>
      <point x="306" y="560"/>
      <point x="306" y="722" type="curve"/>
      <point x="180" y="722"/>
      <point x="304" y="722"/>
      <point x="178" y="722" type="curve"/>
      <point x="178" y="560"/>
      <point x="178" y="403"/>
      <point x="178" y="242" type="curve"/>
      <point x="178" y="163"/>
      <point x="178" y="97"/>
      <point x="114" y="97" type="curve"/>
      <point x="90" y="97"/>
      <point x="76" y="110"/>
      <point x="59" y="123" type="curve"/>
      <point x="2" y="46"/>
      <point x="58" y="121"/>
    </contour>
  </outline>
</glyph>
<glyph name="P" format="1">
  <advance width="560"/>
  <unicode hex="0050"/>
  <outline>
    <contour>
      <point x="193" y="722" type="curve"/>
      <point x="148" y="722"/>
      <point x="105" y="722"/>
      <point x="59" y="722" type="curve"/>
      <point x="59" y="624"/>
      <point x="59" y="722"/>
      <point x="59" y="624" type="curve"/>
      <point x="196" y="624"/>
      <point x="57" y="624"/>
      <point x="193" y="624" type="curve"/>
      <point x="193" y="722"/>
      <point x="193" y="624"/>
    </contour>
    <contour>
      <point x="193" y="98" type="curve"/>
      <point x="57" y="98"/>
      <point x="196" y="98"/>
      <point x="59" y="98" type="curve"/>
      <point x="59" y="0"/>
      <point x="59" y="98"/>
      <point x="59" y="0" type="curve"/>
      <point x="105" y="0"/>
      <point x="148" y="0"/>
      <point x="193" y="0" type="curve"/>
      <point x="193" y="98"/>
      <point x="193" y="0"/>
    </contour>
    <contour>
      <point x="193" y="0" type="curve"/>
      <point x="239" y="0"/>
      <point x="190" y="0"/>
      <point x="327" y="0" type="curve"/>
      <point x="327" y="98"/>
      <point x="327" y="0"/>
      <point x="327" y="98" type="curve"/>
      <point x="190" y="98"/>
      <point x="330" y="98"/>
      <point x="193" y="98" type="curve"/>
      <point x="193" y="0"/>
      <point x="193" y="98"/>
    </contour>
    <contour>
      <point x="174" y="302" type="curve"/>
      <point x="222" y="272"/>
      <point x="273" y="256"/>
      <point x="332" y="256" type="curve"/>
      <point x="451" y="258"/>
      <point x="526" y="341"/>
      <point x="526" y="478" type="curve"/>
      <point x="526" y="622"/>
      <point x="438" y="722"/>
      <point x="298" y="722" type="curve"/>
      <point x="264" y="722"/>
      <point x="229" y="722"/>
      <point x="196" y="722" type="curve"/>
      <point x="196" y="624"/>
      <point x="196" y="722"/>
      <point x="196" y="624" type="curve"/>
      <point x="224" y="624"/>
      <point x="252" y="624"/>
      <point x="281" y="624" type="curve"/>
      <point x="358" y="624"/>
      <point x="398" y="562"/>
      <point x="398" y="482" type="curve"/>
      <point x="398" y="409"/>
      <point x="376" y="350"/>
      <point x="315" y="350" type="curve"/>
      <point x="275" y="350"/>
      <point x="248" y="363"/>
      <point x="214" y="383" type="curve"/>
      <point x="175" y="304"/>
      <point x="214" y="383"/>
    </contour>
    <contour>
      <point x="256" y="0" type="curve"/>
      <point x="256" y="241"/>
      <point x="256" y="481"/>
      <point x="256" y="722" type="curve"/>
      <point x="129" y="722"/>
      <point x="256" y="722"/>
      <point x="129" y="722" type="curve"/>
      <point x="129" y="481"/>
      <point x="129" y="241"/>
      <point x="129" y="0" type="curve"/>
      <point x="256" y="0"/>
      <point x="129" y="0"/>
    </contour>
  </outline>
</glyph>
<glyph name="W" format="1">
  <advance width="796"/>
  <unicode hex="0057"/>
  <outline>
    <contour>
      <point x="134" y="624" type="curve"/>
      <point x="242" y="624"/>
      <point x="132" y="624"/>
      <point x="241" y="624" type="curve"/>
      <point x="241" y="722"/>
      <point x="241" y="624"/>
      <point x="241" y="722" type="curve"/>
      <point x="206" y="722"/>
      <point x="170" y="722"/>
      <point x="134" y="722" type="curve"/>
      <point x="134" y="624"/>
      <point x="134" y="722"/>
    </contour>
    <contour>
      <point x="125" y="722" type="curve"/>
      <point x="86" y="722"/>
      <point x="48" y="722"/>
      <point x="8" y="722" type="curve"/>
      <point x="8" y="624"/>
      <point x="8" y="722"/>
      <point x="8" y="624" type="curve"/>
      <point x="126" y="624"/>
      <point x="7" y="624"/>
      <point x="125" y="624" type="curve"/>
      <point x="125" y="722"/>
      <point x="125" y="624"/>
    </contour>
    <contour>
      <point x="668" y="722" type="curve"/>
      <point x="631" y="722"/>
      <point x="596" y="722"/>
      <point x="560" y="722" type="curve"/>
      <point x="560" y="624"/>
      <point x="560" y="722"/>
      <point x="560" y="624" type="curve"/>
      <point x="669" y="624"/>
      <point x="559" y="624"/>
      <point x="668" y="624" type="curve"/>
      <point x="668" y="722"/>
      <point x="668" y="624"/>
    </contour>
    <contour>
      <point x="672" y="624" type="curve"/>
      <point x="790" y="624"/>
      <point x="671" y="624"/>
      <point x="788" y="624" type="curve"/>
      <point x="788" y="722"/>
      <point x="788" y="624"/>
      <point x="788" y="722" type="curve"/>
      <point x="750" y="722"/>
      <point x="711" y="722"/>
      <point x="672" y="722" type="curve"/>
      <point x="672" y="624"/>
      <point x="672" y="722"/>
    </contour>
    <contour>
      <point x="304" y="0" type="curve"/>
      <point x="355" y="241"/>
      <point x="404" y="481"/>
      <point x="454" y="722" type="curve"/>
      <point x="347" y="722"/>
      <point x="454" y="722"/>
      <point x="347" y="722" type="curve"/>
      <point x="301" y="482"/>
      <point x="257" y="243"/>
      <point x="210" y="0" type="curve"/>
      <point x="313" y="0"/>
      <point x="201" y="0"/>
    </contour>
    <contour>
      <point x="352" y="722" type="curve"/>
      <point x="397" y="481"/>
      <point x="441" y="241"/>
      <point x="487" y="0" type="curve"/>
      <point x="590" y="0"/>
      <point x="475" y="0"/>
      <point x="578" y="0" type="curve"/>
      <point x="537" y="244"/>
      <point x="499" y="481"/>
      <point x="459" y="722" type="curve"/>
      <point x="352" y="722"/>
      <point x="459" y="722"/>
    </contour>
    <contour>
      <point x="60" y="722" type="curve"/>
      <point x="106" y="481"/>
      <point x="152" y="241"/>
      <point x="196" y="0" type="curve"/>
      <point x="300" y="0"/>
      <point x="197" y="0"/>
      <point x="300" y="0" type="curve"/>
      <point x="257" y="241"/>
      <point x="213" y="481"/>
      <point x="170" y="722" type="curve"/>
      <point x="60" y="722"/>
      <point x="170" y="722"/>
    </contour>
    <contour>
      <point x="626" y="722" type="curve"/>
      <point x="582" y="481"/>
      <point x="536" y="241"/>
      <point x="491" y="0" type="curve"/>
      <point x="595" y="0"/>
      <point x="491" y="0"/>
      <point x="595" y="0" type="curve"/>
      <point x="641" y="241"/>
      <point x="689" y="481"/>
      <point x="736" y="722" type="curve"/>
      <point x="626" y="722"/>
      <point x="736" y="722"/>
    </contour>
  </outline>
</glyph>
<glyph name="Y" format="1">
  <advance width="569"/>
  <unicode hex="0059"/>
  <outline>
    <contour>
      <point x="284" y="786" type="move" name="top"/>
    </contour>
    <contour>
      <point x="279" y="98" type="curve"/>
      <point x="144" y="98"/>
      <point x="280" y="98"/>
      <point x="145" y="98" type="curve"/>
      <point x="145" y="0"/>
      <point x="145" y="98"/>
      <point x="145" y="0" type="curve"/>
      <point x="190" y="0"/>
      <point x="234" y="0"/>
      <point x="279" y="0" type="curve"/>
      <point x="279" y="98"/>
      <point x="279" y="0"/>
    </contour>
    <contour>
      <point x="279" y="0" type="curve"/>
      <point x="324" y="0"/>
      <point x="368" y="0"/>
      <point x="413" y="0" type="curve"/>
      <point x="413" y="98"/>
      <point x="413" y="0"/>
      <point x="413" y="98" type="curve"/>
      <point x="278" y="98"/>
      <point x="414" y="98"/>
      <point x="279" y="98" type="curve"/>
      <point x="279" y="0"/>
      <point x="279" y="98"/>
    </contour>
    <contour>
      <point x="437" y="722" type="curve"/>
      <point x="395" y="722"/>
      <point x="354" y="722"/>
      <point x="312" y="722" type="curve"/>
      <point x="312" y="624"/>
      <point x="312" y="722"/>
      <point x="312" y="624" type="curve"/>
      <point x="438" y="624"/>
      <point x="311" y="624"/>
      <point x="437" y="624" type="curve"/>
      <point x="437" y="722"/>
      <point x="437" y="624"/>
    </contour>
    <contour>
      <point x="113" y="722" type="curve"/>
      <point x="79" y="722"/>
      <point x="46" y="722"/>
      <point x="12" y="722" type="curve"/>
      <point x="11" y="624"/>
      <point x="12" y="722"/>
      <point x="11" y="624" type="curve"/>
      <point x="115" y="624"/>
      <point x="10" y="624"/>
      <point x="113" y="624" type="curve"/>
      <point x="113" y="722"/>
      <point x="113" y="624"/>
    </contour>
    <contour>
      <point x="131" y="624" type="curve"/>
      <point x="257" y="624"/>
      <point x="130" y="624"/>
      <point x="256" y="624" type="curve"/>
      <point x="256" y="722"/>
      <point x="256" y="624"/>
      <point x="256" y="722" type="curve"/>
      <point x="214" y="722"/>
      <point x="173" y="722"/>
      <point x="131" y="722" type="curve"/>
      <point x="131" y="624"/>
      <point x="131" y="722"/>
    </contour>
    <contour>
      <point x="454" y="624" type="curve"/>
      <point x="563" y="624"/>
      <point x="453" y="624"/>
      <point x="562" y="624" type="curve"/>
      <point x="562" y="722"/>
      <point x="562" y="624"/>
      <point x="562" y="722" type="curve"/>
      <point x="526" y="722"/>
      <point x="491" y="722"/>
      <point x="454" y="722" type="curve"/>
      <point x="454" y="624"/>
      <point x="454" y="722"/>
    </contour>
    <contour>
      <point x="39" y="722" type="curve"/>
      <point x="98" y="594"/>
      <point x="153" y="468"/>
      <point x="210" y="337" type="curve"/>
      <point x="339" y="337"/>
      <point x="190" y="337"/>
      <point x="320" y="337" type="curve"/>
      <point x="270" y="469"/>
      <point x="222" y="591"/>
      <point x="169" y="722" type="curve"/>
      <point x="39" y="722"/>
      <point x="169" y="722"/>
    </contour>
    <contour>
      <point x="399" y="722" type="curve"/>
      <point x="340" y="590"/>
      <point x="289" y="468"/>
      <point x="230" y="337" type="curve"/>
      <point x="359" y="337"/>
      <point x="219" y="337"/>
      <point x="348" y="337" type="curve"/>
      <point x="409" y="468"/>
      <point x="467" y="594"/>
      <point x="528" y="722" type="curve"/>
      <point x="399" y="722"/>
      <point x="528" y="722"/>
    </contour>
    <contour>
      <point x="348" y="0" type="curve"/>
      <point x="348" y="115"/>
      <point x="348" y="223"/>
      <point x="348" y="338" type="curve"/>
      <point x="210" y="338"/>
      <point x="348" y="338"/>
      <point x="210" y="338" type="curve"/>
      <point x="210" y="223"/>
      <point x="210" y="115"/>
      <point x="210" y="0" type="curve"/>
      <point x="348" y="0"/>
      <point x="210" y="0"/>
    </contour>
  </outline>
</glyph>
<glyph name="backslash" format="1">
  <advance width="477"/>
  <unicode hex="005C"/>
  <outline>
    <contour>
      <point x="450" y="-68" type="curve"/>
      <point x="353" y="236"/>
      <point x="256" y="540"/>
      <point x="159" y="844" type="curve"/>
      <point x="26" y="844"/>
      <point x="159" y="844"/>
      <point x="26" y="844" type="curve"/>
      <point x="123" y="540"/>
      <point x="221" y="236"/>
      <point x="318" y="-68" type="curve"/>
      <point x="450" y="-68"/>
      <point x="318" y="-68"/>
    </contour>
  </outline>
</glyph>
<glyph name="bracketright" format="1">
  <advance width="285"/>
  <unicode hex="005D"/>
  <outline>
    <contour>
      <point x="44" y="661" type="curve"/>
      <point x="82" y="661"/>
      <point x="120" y="661"/>
      <point x="157" y="661" type="curve"/>
      <point x="147" y="672"/>
      <point x="129" y="673"/>
      <point x="118" y="684" type="curve"/>
      <point x="108" y="696"/>
      <point x="99" y="709"/>
      <point x="89" y="721" type="curve"/>
      <point x="89" y="458"/>
      <point x="88" y="196"/>
      <point x="89" y="-67" type="curve"/>
      <point x="99" y="-54"/>
      <point x="111" y="-44"/>
      <point x="122" y="-32" type="curve"/>
      <point x="131" y="-20"/>
      <point x="148" y="-17"/>
      <point x="158" y="-5" type="curve"/>
      <point x="121" y="-5"/>
      <point x="82" y="-5"/>
      <point x="44" y="-5" type="curve"/>
      <point x="43" y="-114"/>
      <point x="44" y="-5"/>
      <point x="43" y="-114" type="curve"/>
      <point x="82" y="-114"/>
      <point x="121" y="-114"/>
      <point x="158" y="-114" type="curve"/>
      <point x="216" y="-114"/>
      <point x="158" y="-114"/>
      <point x="216" y="-114" type="curve"/>
      <point x="216" y="-67"/>
      <point x="216" y="-114"/>
      <point x="216" y="-67" type="curve"/>
      <point x="216" y="196"/>
      <point x="216" y="458"/>
      <point x="216" y="721" type="curve"/>
      <point x="216" y="769"/>
      <point x="216" y="721"/>
      <point x="216" y="769" type="curve"/>
      <point x="157" y="769"/>
      <point x="216" y="769"/>
      <point x="157" y="769" type="curve"/>
      <point x="120" y="769"/>
      <point x="82" y="769"/>
      <point x="44" y="769" type="curve"/>
      <point x="44" y="661"/>
      <point x="44" y="769"/>
    </contour>
  </outline>
</glyph>
<glyph name="asciicircum" format="1">
  <advance width="478"/>
  <unicode hex="005E"/>
  <outline>
    <contour>
      <point x="173" y="455" type="curve"/>
      <point x="215" y="558"/>
      <point x="259" y="659"/>
      <point x="302" y="761" type="curve"/>
      <point x="175" y="761"/>
      <point x="302" y="761"/>
      <point x="175" y="761" type="curve"/>
      <point x="132" y="659"/>
      <point x="88" y="558"/>
      <point x="45" y="455" type="curve"/>
      <point x="173" y="455"/>
      <point x="45" y="455"/>
    </contour>
    <contour>
      <point x="433" y="455" type="curve"/>
      <point x="390" y="555"/>
      <point x="345" y="660"/>
      <point x="302" y="761" type="curve"/>
      <point x="175" y="761"/>
      <point x="302" y="761"/>
      <point x="175" y="761" type="curve"/>
      <point x="218" y="660"/>
      <point x="263" y="555"/>
      <point x="305" y="455" type="curve"/>
      <point x="433" y="455"/>
      <point x="305" y="455"/>
    </contour>
  </outline>
</glyph>
<glyph name="grave" format="1">
  <advance width="331"/>
  <unicode hex="0060"/>
  <outline>
    <contour>
      <point x="229" y="590" type="move" name="_top"/>
    </contour>
    <contour>
      <point x="290" y="591" type="line"/>
      <point x="209" y="757" type="line"/>
      <point x="53" y="757" type="line"/>
      <point x="170" y="591" type="line"/>
    </contour>
  </outline>
</glyph>
<glyph name="c" format="1">
  <advance width="474"/>
  <unicode hex="0063"/>
  <outline>
    <contour>
      <point x="260" y="618" type="move" name="top"/>
    </contour>
    <contour>
      <point x="298" y="5" type="move" name="bottom"/>
    </contour>
    <contour>
      <point x="323" y="470" type="curve"/>
      <point x="323" y="350"/>
      <point x="323" y="471"/>
      <point x="323" y="351" type="curve"/>
      <point x="424" y="351"/>
      <point x="323" y="351"/>
      <point x="424" y="351" type="curve"/>
      <point x="424" y="471"/>
      <point x="424" y="350"/>
      <point x="424" y="470" type="curve"/>
      <point x="323" y="470"/>
      <point x="424" y="470"/>
    </contour>
    <contour>
      <point x="424" y="470" type="curve"/>
      <point x="382" y="508"/>
      <point x="328" y="538"/>
      <point x="269" y="538" type="curve"/>
      <point x="116" y="538"/>
      <point x="41" y="433"/>
      <point x="41" y="267" type="curve"/>
      <point x="41" y="102"/>
      <point x="113" y="-5"/>
      <point x="267" y="-5" type="curve"/>
      <point x="334" y="-5"/>
      <point x="398" y="25"/>
      <point x="434" y="94" type="curve"/>
      <point x="349" y="154"/>
      <point x="434" y="94"/>
      <point x="349" y="154" type="curve"/>
      <point x="330" y="127"/>
      <point x="306" y="98"/>
      <point x="273" y="98" type="curve"/>
      <point x="190" y="98"/>
      <point x="168" y="171"/>
      <point x="168" y="267" type="curve"/>
      <point x="168" y="363"/>
      <point x="187" y="435"/>
      <point x="268" y="435" type="curve"/>
      <point x="298" y="435"/>
      <point x="326" y="420"/>
      <point x="348" y="401" type="curve"/>
      <point x="424" y="470"/>
      <point x="348" y="401"/>
    </contour>
  </outline>
</glyph>
<glyph name="h" format="1">
  <advance width="555"/>
  <unicode hex="0068"/>
  <outline>
    <contour>
      <point x="417" y="-1" type="curve"/>
      <point x="462" y="-1"/>
      <point x="506" y="0"/>
      <point x="551" y="0" type="curve"/>
      <point x="551" y="98"/>
      <point x="551" y="0"/>
      <point x="551" y="98" type="curve"/>
      <point x="416" y="98"/>
      <point x="552" y="98"/>
      <point x="417" y="98" type="curve"/>
      <point x="417" y="-1"/>
      <point x="417" y="98"/>
    </contour>
    <contour>
      <point x="142" y="-1" type="curve"/>
      <point x="180" y="-1"/>
      <point x="141" y="-1"/>
      <point x="256" y="0" type="curve"/>
      <point x="256" y="98"/>
      <point x="256" y="0"/>
      <point x="256" y="98" type="curve"/>
      <point x="141" y="98"/>
      <point x="257" y="98"/>
      <point x="142" y="98" type="curve"/>
      <point x="142" y="-1"/>
      <point x="142" y="98"/>
    </contour>
    <contour>
      <point x="142" y="799" type="curve"/>
      <point x="96" y="799"/>
      <point x="52" y="800"/>
      <point x="8" y="800" type="curve"/>
      <point x="7" y="702"/>
      <point x="8" y="800"/>
      <point x="7" y="702" type="curve"/>
      <point x="143" y="701"/>
      <point x="6" y="702"/>
      <point x="142" y="701" type="curve"/>
      <point x="142" y="799"/>
      <point x="142" y="701"/>
    </contour>
    <contour>
      <point x="142" y="98" type="curve"/>
      <point x="7" y="98"/>
      <point x="143" y="98"/>
      <point x="8" y="98" type="curve"/>
      <point x="7" y="0"/>
      <point x="8" y="98"/>
      <point x="7" y="0" type="curve"/>
      <point x="52" y="0"/>
      <point x="96" y="-1"/>
      <point x="142" y="-1" type="curve"/>
      <point x="142" y="98"/>
      <point x="142" y="-1"/>
    </contour>
    <contour>
      <point x="176" y="308" type="curve"/>
      <point x="194" y="370"/>
      <point x="229" y="435"/>
      <point x="289" y="435" type="curve"/>
      <point x="351" y="435"/>
      <point x="354" y="380"/>
      <point x="354" y="312" type="curve"/>
      <point x="354" y="208"/>
      <point x="354" y="104"/>
      <point x="354" y="0" type="curve"/>
      <point x="481" y="0"/>
      <point x="354" y="0"/>
      <point x="481" y="0" type="curve"/>
      <point x="481" y="107"/>
      <point x="481" y="215"/>
      <point x="481" y="322" type="curve"/>
      <point x="481" y="445"/>
      <point x="447" y="534"/>
      <point x="325" y="534" type="curve"/>
      <point x="235" y="534"/>
      <point x="165" y="455"/>
      <point x="143" y="358" type="curve"/>
      <point x="177" y="308"/>
      <point x="143" y="357"/>
    </contour>
    <contour>
      <point x="205" y="0" type="curve"/>
      <point x="205" y="267"/>
      <point x="205" y="533"/>
      <point x="205" y="800" type="curve"/>
      <point x="77" y="800"/>
      <point x="205" y="800"/>
      <point x="77" y="800" type="curve"/>
      <point x="77" y="533"/>
      <point x="77" y="267"/>
      <point x="77" y="0" type="curve"/>
      <point x="205" y="0"/>
      <point x="77" y="0"/>
    </contour>
  </outline>
</glyph>
<glyph name="k" format="1">
  <advance width="523"/>
  <unicode hex="006B"/>
  <outline>
    <contour>
      <point x="341" y="-11" type="move" name="bottom"/>
    </contour>
    <contour>
      <point x="140" y="98" type="curve"/>
      <point x="5" y="98"/>
      <point x="141" y="98"/>
      <point x="6" y="98" type="curve"/>
      <point x="6" y="0"/>
      <point x="6" y="98"/>
      <point x="6" y="0" type="curve"/>
      <point x="51" y="0"/>
      <point x="95" y="-1"/>
      <point x="140" y="-1" type="curve"/>
      <point x="140" y="98"/>
      <point x="140" y="-1"/>
    </contour>
    <contour>
      <point x="380" y="0" type="curve"/>
      <point x="422" y="0"/>
      <point x="464" y="0"/>
      <point x="507" y="0" type="curve"/>
      <point x="507" y="98"/>
      <point x="507" y="0"/>
      <point x="507" y="98" type="curve"/>
      <point x="382" y="98"/>
      <point x="508" y="98"/>
      <point x="383" y="98" type="curve"/>
      <point x="383" y="0"/>
      <point x="380" y="98"/>
    </contour>
    <contour>
      <point x="390" y="435" type="curve"/>
      <point x="488" y="435"/>
      <point x="389" y="435"/>
      <point x="487" y="435" type="curve"/>
      <point x="487" y="533"/>
      <point x="487" y="435"/>
      <point x="487" y="533" type="curve"/>
      <point x="454" y="533"/>
      <point x="422" y="533"/>
      <point x="390" y="533" type="curve"/>
      <point x="390" y="435"/>
      <point x="390" y="533"/>
    </contour>
    <contour>
      <point x="140" y="-1" type="curve"/>
      <point x="179" y="-1"/>
      <point x="139" y="-1"/>
      <point x="255" y="0" type="curve"/>
      <point x="255" y="98"/>
      <point x="255" y="0"/>
      <point x="255" y="98" type="curve"/>
      <point x="139" y="98"/>
      <point x="256" y="98"/>
      <point x="140" y="98" type="curve"/>
      <point x="140" y="-1"/>
      <point x="140" y="98"/>
    </contour>
    <contour>
      <point x="416" y="533" type="curve"/>
      <point x="359" y="533"/>
      <point x="302" y="533"/>
      <point x="244" y="533" type="curve"/>
      <point x="244" y="435"/>
      <point x="244" y="533"/>
      <point x="244" y="435" type="curve"/>
      <point x="417" y="435"/>
      <point x="243" y="435"/>
      <point x="416" y="435" type="curve"/>
      <point x="416" y="533"/>
      <point x="416" y="435"/>
    </contour>
    <contour>
      <point x="142" y="799" type="curve"/>
      <point x="96" y="799"/>
      <point x="52" y="800"/>
      <point x="7" y="800" type="curve"/>
      <point x="7" y="702"/>
      <point x="7" y="800"/>
      <point x="7" y="702" type="curve"/>
      <point x="143" y="701"/>
      <point x="6" y="702"/>
      <point x="142" y="701" type="curve"/>
      <point x="142" y="799"/>
      <point x="142" y="701"/>
    </contour>
    <contour>
      <point x="204" y="0" type="curve"/>
      <point x="204" y="800" type="line"/>
      <point x="77" y="800"/>
      <point x="204" y="800"/>
      <point x="77" y="800" type="curve"/>
      <point x="77" y="533"/>
      <point x="77" y="267"/>
      <point x="77" y="0" type="curve"/>
      <point x="204" y="0"/>
      <point x="77" y="0"/>
    </contour>
    <contour>
      <point x="359" y="533" type="curve"/>
      <point x="183" y="275" type="line"/>
      <point x="305" y="275"/>
      <point x="182" y="275"/>
      <point x="304" y="275" type="curve"/>
      <point x="462" y="487" type="line"/>
      <point x="358" y="487"/>
      <point x="463" y="533"/>
    </contour>
    <contour>
      <point x="472" y="61" type="curve"/>
      <point x="304" y="275" type="line"/>
      <point x="182" y="275"/>
      <point x="305" y="275"/>
      <point x="183" y="275" type="curve"/>
      <point x="379" y="0" type="line"/>
      <point x="473" y="0"/>
      <point x="378" y="61"/>
    </contour>
  </outline>
</glyph>
<glyph name="l" format="1">
  <advance width="305"/>
  <unicode hex="006C"/>
  <outline>
    <contour>
      <point x="155" y="883" type="move" name="top"/>
    </contour>
    <contour>
      <point x="205" y="-9" type="move" name="bottom"/>
    </contour>
    <contour>
      <point x="153" y="98" type="curve"/>
      <point x="18" y="98"/>
      <point x="153" y="98"/>
      <point x="18" y="98" type="curve"/>
      <point x="18" y="0"/>
      <point x="18" y="98"/>
      <point x="18" y="0" type="curve"/>
      <point x="63" y="0"/>
      <point x="107" y="0"/>
      <point x="153" y="0" type="curve"/>
      <point x="153" y="99"/>
      <point x="153" y="-1"/>
    </contour>
    <contour>
      <point x="154" y="800" type="curve"/>
      <point x="109" y="800"/>
      <point x="64" y="800"/>
      <point x="19" y="800" type="curve"/>
      <point x="19" y="702"/>
      <point x="19" y="800"/>
      <point x="19" y="702" type="curve"/>
      <point x="154" y="701"/>
      <point x="19" y="702"/>
      <point x="154" y="701" type="curve"/>
      <point x="154" y="799"/>
      <point x="154" y="702"/>
    </contour>
    <contour>
      <point x="153" y="0" type="curve"/>
      <point x="198" y="0"/>
      <point x="243" y="0"/>
      <point x="288" y="0" type="curve"/>
      <point x="288" y="98"/>
      <point x="288" y="0"/>
      <point x="288" y="98" type="curve"/>
      <point x="153" y="98"/>
      <point x="288" y="98"/>
      <point x="153" y="98" type="curve"/>
      <point x="153" y="-1"/>
      <point x="153" y="99"/>
    </contour>
    <contour>
      <point x="216" y="0" type="curve"/>
      <point x="216" y="267"/>
      <point x="216" y="533"/>
      <point x="216" y="800" type="curve"/>
      <point x="88" y="800"/>
      <point x="216" y="800"/>
      <point x="88" y="800" type="curve"/>
      <point x="88" y="533"/>
      <point x="88" y="267"/>
      <point x="88" y="0" type="curve"/>
      <point x="216" y="0"/>
      <point x="88" y="0"/>
    </contour>
  </outline>
</glyph>
<glyph name="m" format="1">
  <advance width="843"/>
  <unicode hex="006D"/>
  <outline>
    <contour>
      <point x="428" y="0" type="curve"/>
      <point x="547" y="0"/>
      <point x="429" y="0"/>
      <point x="547" y="0" type="curve"/>
      <point x="547" y="98"/>
      <point x="547" y="0"/>
      <point x="547" y="98" type="curve"/>
      <point x="429" y="98"/>
      <point x="547" y="98"/>
      <point x="428" y="98" type="curve"/>
      <point x="428" y="0"/>
      <point x="428" y="98"/>
    </contour>
    <contour>
      <point x="676" y="0" type="curve"/>
      <point x="721" y="0"/>
      <point x="765" y="0"/>
      <point x="810" y="0" type="curve"/>
      <point x="810" y="98"/>
      <point x="810" y="0"/>
      <point x="810" y="98" type="curve"/>
      <point x="675" y="98"/>
      <point x="811" y="98"/>
      <point x="676" y="98" type="curve"/>
      <point x="676" y="0"/>
      <point x="676" y="98"/>
    </contour>
    <contour>
      <point x="182" y="98" type="curve"/>
      <point x="47" y="98"/>
      <point x="183" y="98"/>
      <point x="48" y="98" type="curve"/>
      <point x="47" y="0"/>
      <point x="48" y="98"/>
      <point x="47" y="0" type="curve"/>
      <point x="92" y="0"/>
      <point x="136" y="0"/>
      <point x="182" y="0" type="curve"/>
      <point x="182" y="98"/>
      <point x="182" y="0"/>
    </contour>
    <contour>
      <point x="182" y="0" type="curve"/>
      <point x="221" y="0"/>
      <point x="179" y="0"/>
      <point x="299" y="0" type="curve"/>
      <point x="299" y="98"/>
      <point x="299" y="0"/>
      <point x="299" y="98" type="curve"/>
      <point x="179" y="98"/>
      <point x="302" y="98"/>
      <point x="182" y="98" type="curve"/>
      <point x="182" y="0"/>
      <point x="182" y="98"/>
    </contour>
    <contour>
      <point x="182" y="533" type="curve"/>
      <point x="136" y="533"/>
      <point x="92" y="533"/>
      <point x="48" y="533" type="curve"/>
      <point x="47" y="435"/>
      <point x="48" y="533"/>
      <point x="47" y="435" type="curve"/>
      <point x="183" y="435"/>
      <point x="46" y="435"/>
      <point x="182" y="435" type="curve"/>
      <point x="182" y="533"/>
      <point x="182" y="435"/>
    </contour>
    <contour>
      <point x="463" y="282" type="curve"/>
      <point x="482" y="355"/>
      <point x="498" y="435"/>
      <point x="558" y="435" type="curve"/>
      <point x="620" y="435"/>
      <point x="611" y="383"/>
      <point x="611" y="312" type="curve"/>
      <point x="611" y="208"/>
      <point x="611" y="104"/>
      <point x="611" y="0" type="curve"/>
      <point x="738" y="0"/>
      <point x="611" y="0"/>
      <point x="738" y="0" type="curve"/>
      <point x="738" y="107"/>
      <point x="738" y="215"/>
      <point x="738" y="322" type="curve"/>
      <point x="738" y="452"/>
      <point x="728" y="538"/>
      <point x="604" y="538" type="curve"/>
      <point x="510" y="538"/>
      <point x="455" y="453"/>
      <point x="430" y="340" type="curve"/>
      <point x="467" y="285"/>
      <point x="426" y="337"/>
    </contour>
    <contour>
      <point x="216" y="282" type="curve"/>
      <point x="233" y="355"/>
      <point x="250" y="436"/>
      <point x="311" y="436" type="curve"/>
      <point x="372" y="436"/>
      <point x="364" y="383"/>
      <point x="364" y="312" type="curve"/>
      <point x="364" y="208"/>
      <point x="364" y="104"/>
      <point x="364" y="0" type="curve"/>
      <point x="492" y="0"/>
      <point x="364" y="0"/>
      <point x="492" y="0" type="curve"/>
      <point x="492" y="107"/>
      <point x="492" y="215"/>
      <point x="492" y="322" type="curve"/>
      <point x="492" y="452"/>
      <point x="481" y="538"/>
      <point x="357" y="538" type="curve"/>
      <point x="262" y="538"/>
      <point x="210" y="454"/>
      <point x="184" y="340" type="curve"/>
      <point x="220" y="285"/>
      <point x="179" y="337"/>
    </contour>
    <contour>
      <point x="245" y="0" type="curve"/>
      <point x="245" y="178"/>
      <point x="245" y="355"/>
      <point x="245" y="533" type="curve"/>
      <point x="118" y="533"/>
      <point x="245" y="533"/>
      <point x="118" y="533" type="curve"/>
      <point x="118" y="355"/>
      <point x="118" y="178"/>
      <point x="118" y="0" type="curve"/>
      <point x="245" y="0"/>
      <point x="118" y="0"/>
    </contour>
  </outline>
</glyph>
<glyph name="n" format="1">
  <advance width="575"/>
  <unicode hex="006E"/>
  <outline>
    <contour>
      <point x="297" y="618" type="move" name="top"/>
    </contour>
    <contour>
      <point x="349" y="-7" type="move" name="bottom"/>
    </contour>
    <contour>
      <point x="199" y="273" type="curve"/>
      <point x="212" y="355"/>
      <point x="247" y="435"/>
      <point x="305" y="435" type="curve"/>
      <point x="364" y="435"/>
      <point x="373" y="381"/>
      <point x="373" y="312" type="curve"/>
      <point x="373" y="208"/>
      <point x="373" y="104"/>
      <point x="373" y="0" type="curve"/>
      <point x="500" y="0"/>
      <point x="373" y="0"/>
      <point x="500" y="0" type="curve"/>
      <point x="500" y="107"/>
      <point x="500" y="215"/>
      <point x="500" y="322" type="curve"/>
      <point x="500" y="447"/>
      <point x="470" y="538"/>
      <point x="352" y="538" type="curve"/>
      <point x="258" y="538"/>
      <point x="186" y="460"/>
      <point x="163" y="330" type="curve"/>
      <point x="200" y="275"/>
      <point x="161" y="329"/>
    </contour>
    <contour>
      <point x="436" y="0" type="curve"/>
      <point x="481" y="0"/>
      <point x="525" y="0"/>
      <point x="570" y="0" type="curve"/>
      <point x="570" y="98"/>
      <point x="570" y="0"/>
      <point x="570" y="98" type="curve"/>
      <point x="435" y="98"/>
      <point x="571" y="98"/>
      <point x="436" y="98" type="curve"/>
      <point x="436" y="0"/>
      <point x="436" y="98"/>
    </contour>
    <contour>
      <point x="161" y="98" type="curve"/>
      <point x="25" y="98"/>
      <point x="162" y="98"/>
      <point x="26" y="98" type="curve"/>
      <point x="26" y="0"/>
      <point x="26" y="98"/>
      <point x="26" y="0" type="curve"/>
      <point x="71" y="0"/>
      <point x="116" y="0"/>
      <point x="161" y="0" type="curve"/>
      <point x="161" y="98"/>
      <point x="161" y="0"/>
    </contour>
    <contour>
      <point x="161" y="0" type="curve"/>
      <point x="203" y="0"/>
      <point x="159" y="0"/>
      <point x="284" y="0" type="curve"/>
      <point x="284" y="98"/>
      <point x="284" y="0"/>
      <point x="284" y="98" type="curve"/>
      <point x="159" y="98"/>
      <point x="286" y="98"/>
      <point x="161" y="98" type="curve"/>
      <point x="161" y="0"/>
      <point x="161" y="98"/>
    </contour>
    <contour>
      <point x="224" y="0" type="curve"/>
      <point x="224" y="178"/>
      <point x="224" y="355"/>
      <point x="224" y="533" type="curve"/>
      <point x="97" y="533"/>
      <point x="224" y="533"/>
      <point x="97" y="533" type="curve"/>
      <point x="97" y="355"/>
      <point x="97" y="178"/>
      <point x="97" y="0" type="curve"/>
      <point x="224" y="0"/>
      <point x="97" y="0"/>
    </contour>
    <contour>
      <point x="161" y="533" type="curve"/>
      <point x="116" y="533"/>
      <point x="71" y="533"/>
      <point x="26" y="533" type="curve"/>
      <point x="26" y="435"/>
      <point x="26" y="533"/>
      <point x="26" y="435" type="curve"/>
      <point x="162" y="435"/>
      <point x="25" y="435"/>
      <point x="161" y="435" type="curve"/>
      <point x="161" y="533"/>
      <point x="161" y="435"/>
    </contour>
  </outline>
</glyph>
<glyph name="q" format="1">
  <advance width="583"/>
  <unicode hex="0071"/>
  <outline>
    <contour>
      <point x="423" y="435" type="curve"/>
      <point x="548" y="435"/>
      <point x="422" y="435"/>
      <point x="549" y="435" type="curve"/>
      <point x="549" y="533"/>
      <point x="549" y="435"/>
      <point x="549" y="533" type="curve"/>
      <point x="506" y="533"/>
      <point x="465" y="533"/>
      <point x="423" y="533" type="curve"/>
      <point x="423" y="435"/>
      <point x="423" y="533"/>
    </contour>
    <contour>
      <point x="421" y="-201" type="curve"/>
      <point x="286" y="-201"/>
      <point x="422" y="-201"/>
      <point x="287" y="-201" type="curve"/>
      <point x="287" y="-300"/>
      <point x="287" y="-201"/>
      <point x="287" y="-300" type="curve"/>
      <point x="333" y="-300"/>
      <point x="376" y="-300"/>
      <point x="421" y="-300" type="curve"/>
      <point x="421" y="-201"/>
      <point x="421" y="-300"/>
    </contour>
    <contour>
      <point x="421" y="-300" type="curve"/>
      <point x="464" y="-300"/>
      <point x="505" y="-300"/>
      <point x="548" y="-300" type="curve"/>
      <point x="548" y="-201"/>
      <point x="548" y="-300"/>
      <point x="548" y="-201" type="curve"/>
      <point x="420" y="-201"/>
      <point x="549" y="-201"/>
      <point x="421" y="-201" type="curve"/>
      <point x="421" y="-300"/>
      <point x="421" y="-201"/>
    </contour>
    <contour>
      <point x="424" y="400" type="curve"/>
      <point x="387" y="483"/>
      <point x="321" y="538"/>
      <point x="242" y="538" type="curve"/>
      <point x="92" y="538"/>
      <point x="40" y="413"/>
      <point x="41" y="265" type="curve"/>
      <point x="41" y="116"/>
      <point x="98" y="-5"/>
      <point x="247" y="-5" type="curve"/>
      <point x="323" y="-5"/>
      <point x="383" y="54"/>
      <point x="422" y="124" type="curve"/>
      <point x="383" y="178"/>
      <point x="422" y="124"/>
      <point x="384" y="179" type="curve"/>
      <point x="358" y="131"/>
      <point x="318" y="93"/>
      <point x="267" y="93" type="curve"/>
      <point x="185" y="93"/>
      <point x="169" y="177"/>
      <point x="169" y="270" type="curve"/>
      <point x="169" y="357"/>
      <point x="187" y="436"/>
      <point x="265" y="436" type="curve"/>
      <point x="312" y="436"/>
      <point x="348" y="413"/>
      <point x="388" y="345" type="curve"/>
      <point x="414" y="404"/>
      <point x="397" y="342"/>
    </contour>
    <contour>
      <point x="488" y="-300" type="curve"/>
      <point x="488" y="-22"/>
      <point x="488" y="255"/>
      <point x="488" y="533" type="curve"/>
      <point x="355" y="533"/>
      <point x="488" y="533"/>
      <point x="355" y="533" type="curve"/>
      <point x="355" y="255"/>
      <point x="355" y="-22"/>
      <point x="355" y="-300" type="curve"/>
      <point x="488" y="-300"/>
      <point x="355" y="-300"/>
    </contour>
  </outline>
</glyph>
<glyph name="bar" format="1">
  <advance width="267"/>
  <unicode hex="007C"/>
  <outline>
    <contour>
      <point x="197" y="-300" type="curve"/>
      <point x="197" y="67"/>
      <point x="197" y="433"/>
      <point x="197" y="800" type="curve"/>
      <point x="70" y="800"/>
      <point x="197" y="800"/>
      <point x="70" y="800" type="curve"/>
      <point x="70" y="433"/>
      <point x="70" y="67"/>
      <point x="70" y="-300" type="curve"/>
      <point x="197" y="-300"/>
      <point x="70" y="-300"/>
    </contour>
  </outline>
</glyph>
<glyph name="sterling" format="1">
  <advance width="418"/>
  <unicode hex="00A3"/>
  <outline>
    <contour>
      <point x="352" y="99" type="curve"/>
      <point x="253" y="99"/>
      <point x="145" y="99"/>
      <point x="46" y="99" type="curve"/>
      <point x="46" y="0"/>
      <point x="46" y="99"/>
      <point x="46" y="0" type="curve"/>
      <point x="145" y="0"/>
      <point x="252" y="0"/>
      <point x="352" y="0" type="curve"/>
      <point x="352" y="99"/>
      <point x="352" y="0"/>
    </contour>
    <contour>
      <point x="311" y="424" type="curve"/>
      <point x="230" y="424"/>
      <point x="142" y="424"/>
      <point x="62" y="424" type="curve"/>
      <point x="62" y="326"/>
      <point x="62" y="424"/>
      <point x="62" y="326" type="curve"/>
      <point x="142" y="326"/>
      <point x="230" y="326"/>
      <point x="311" y="326" type="curve"/>
      <point x="311" y="424"/>
      <point x="311" y="326"/>
    </contour>
    <contour>
      <point x="381" y="662" type="curve"/>
      <point x="342" y="707"/>
      <point x="306" y="721"/>
      <point x="256" y="721" type="curve"/>
      <point x="99" y="721"/>
      <point x="69" y="558"/>
      <point x="102" y="364" type="curve"/>
      <point x="124" y="229"/>
      <point x="126" y="99"/>
      <point x="46" y="99" type="curve"/>
      <point x="46" y="0"/>
      <point x="46" y="99"/>
      <point x="46" y="0" type="curve"/>
      <point x="219" y="0"/>
      <point x="248" y="178"/>
      <point x="214" y="385" type="curve"/>
      <point x="194" y="508"/>
      <point x="185" y="627"/>
      <point x="250" y="627" type="curve"/>
      <point x="279" y="627"/>
      <point x="295" y="610"/>
      <point x="316" y="590" type="curve"/>
      <point x="381" y="662"/>
      <point x="316" y="590"/>
    </contour>
  </outline>
</glyph>
<glyph name="currency" format="1">
  <advance width="599"/>
  <unicode hex="00A4"/>
  <outline>
    <contour>
      <point x="247" y="316" type="curve"/>
      <point x="247" y="363"/>
      <point x="255" y="408"/>
      <point x="296" y="408" type="curve"/>
      <point x="341" y="408"/>
      <point x="349" y="368"/>
      <point x="349" y="317" type="curve"/>
      <point x="349" y="268"/>
      <point x="342" y="218"/>
      <point x="299" y="218" type="curve"/>
      <point x="254" y="218"/>
      <point x="247" y="264"/>
      <point x="247" y="316" type="curve"/>
      <point x="120" y="316"/>
      <point x="254" y="316"/>
      <point x="127" y="316" type="curve"/>
      <point x="127" y="200"/>
      <point x="189" y="120"/>
      <point x="300" y="120" type="curve"/>
      <point x="411" y="120"/>
      <point x="472" y="203"/>
      <point x="472" y="319" type="curve"/>
      <point x="472" y="429"/>
      <point x="413" y="506"/>
      <point x="307" y="506" type="curve"/>
      <point x="194" y="506"/>
      <point x="127" y="430"/>
      <point x="127" y="316" type="curve"/>
      <point x="254" y="316"/>
      <point x="120" y="316"/>
    </contour>
    <contour>
      <point x="386" y="349" type="line"/>
      <point x="544" y="494" type="line"/>
      <point x="453" y="585" type="line"/>
      <point x="308" y="427" type="line"/>
    </contour>
    <contour>
      <point x="314" y="208" type="line"/>
      <point x="459" y="50" type="line"/>
      <point x="549" y="140" type="line"/>
      <point x="392" y="285" type="line"/>
    </contour>
    <contour>
      <point x="208" y="285" type="line"/>
      <point x="50" y="140" type="line"/>
      <point x="141" y="49" type="line"/>
      <point x="286" y="207" type="line"/>
    </contour>
    <contour>
      <point x="293" y="428" type="line"/>
      <point x="148" y="586" type="line"/>
      <point x="58" y="495" type="line"/>
      <point x="215" y="350" type="line"/>
    </contour>
  </outline>
</glyph>
<glyph name="brokenbar" format="1">
  <advance width="286"/>
  <unicode hex="00A6"/>
  <outline>
    <contour>
      <point x="207" y="-300" type="curve"/>
      <point x="207" y="-176"/>
      <point x="207" y="-52"/>
      <point x="207" y="72" type="curve"/>
      <point x="80" y="72"/>
      <point x="207" y="72"/>
      <point x="80" y="72" type="curve"/>
      <point x="80" y="-52"/>
      <point x="80" y="-176"/>
      <point x="80" y="-300" type="curve"/>
      <point x="207" y="-300"/>
      <point x="80" y="-300"/>
    </contour>
    <contour>
      <point x="207" y="428" type="curve"/>
      <point x="207" y="552"/>
      <point x="207" y="676"/>
      <point x="207" y="800" type="curve"/>
      <point x="80" y="800"/>
      <point x="207" y="800"/>
      <point x="80" y="800" type="curve"/>
      <point x="80" y="676"/>
      <point x="80" y="552"/>
      <point x="80" y="428" type="curve"/>
      <point x="207" y="428"/>
      <point x="80" y="428"/>
    </contour>
  </outline>
</glyph>
<glyph name="dieresis" format="1">
  <advance width="372"/>
  <unicode hex="00A8"/>
  <outline>
    <contour>
      <point x="184" y="612" type="move" name="_top"/>
    </contour>
    <contour>
      <point x="159" y="670" type="curve"/>
      <point x="159" y="713"/>
      <point x="131" y="735"/>
      <point x="92" y="735" type="curve"/>
      <point x="52" y="735"/>
      <point x="26" y="711"/>
      <point x="26" y="670" type="curve"/>
      <point x="159" y="670"/>
      <point x="26" y="670"/>
      <point x="159" y="670" type="curve"/>
      <point x="159" y="626"/>
      <point x="132" y="606"/>
      <point x="92" y="606" type="curve"/>
      <point x="52" y="606"/>
      <point x="26" y="628"/>
      <point x="26" y="670" type="curve"/>
      <point x="159" y="670"/>
      <point x="26" y="670"/>
    </contour>
    <contour>
      <point x="344" y="670" type="curve"/>
      <point x="344" y="713"/>
      <point x="316" y="735"/>
      <point x="276" y="735" type="curve"/>
      <point x="237" y="735"/>
      <point x="211" y="711"/>
      <point x="211" y="670" type="curve"/>
      <point x="344" y="670"/>
      <point x="211" y="670"/>
      <point x="344" y="670" type="curve"/>
      <point x="344" y="626"/>
      <point x="317" y="606"/>
      <point x="276" y="606" type="curve"/>
      <point x="237" y="606"/>
      <point x="211" y="628"/>
      <point x="211" y="670" type="curve"/>
      <point x="344" y="670"/>
      <point x="211" y="670"/>
    </contour>
  </outline>
</glyph>
<glyph name="copyright" format="1">
  <advance width="655"/>
  <unicode hex="00A9"/>
  <outline>
    <contour>
      <point x="152" y="323" type="curve"/>
      <point x="152" y="456"/>
      <point x="211" y="565"/>
      <point x="331" y="565" type="curve"/>
      <point x="449" y="565"/>
      <point x="505" y="454"/>
      <point x="505" y="321" type="curve"/>
      <point x="505" y="194"/>
      <point x="452" y="84"/>
      <point x="338" y="84" type="curve"/>
      <point x="218" y="84"/>
      <point x="152" y="191"/>
      <point x="152" y="323" type="curve"/>
      <point x="49" y="323"/>
      <point x="155" y="323"/>
      <point x="52" y="323" type="curve"/>
      <point x="52" y="142"/>
      <point x="159" y="5"/>
      <point x="333" y="5" type="curve"/>
      <point x="504" y="5"/>
      <point x="604" y="144"/>
      <point x="604" y="325" type="curve"/>
      <point x="604" y="506"/>
      <point x="502" y="645"/>
      <point x="331" y="645" type="curve"/>
      <point x="157" y="645"/>
      <point x="52" y="506"/>
      <point x="52" y="323" type="curve"/>
      <point x="155" y="323"/>
      <point x="49" y="323"/>
    </contour>
    <contour>
      <point x="365" y="422" type="curve"/>
      <point x="365" y="410"/>
      <point x="365" y="386"/>
      <point x="365" y="370" type="curve"/>
      <point x="458" y="370"/>
      <point x="365" y="370"/>
      <point x="458" y="370" type="curve"/>
      <point x="458" y="400"/>
      <point x="458" y="439"/>
      <point x="458" y="462" type="curve"/>
      <point x="365" y="422"/>
      <point x="458" y="462"/>
    </contour>
    <contour>
      <point x="458" y="462" type="curve"/>
      <point x="425" y="498"/>
      <point x="386" y="511"/>
      <point x="338" y="511" type="curve"/>
      <point x="231" y="511"/>
      <point x="180" y="433"/>
      <point x="180" y="322" type="curve"/>
      <point x="180" y="215"/>
      <point x="224" y="139"/>
      <point x="324" y="139" type="curve"/>
      <point x="378" y="139"/>
      <point x="417" y="150"/>
      <point x="455" y="204" type="curve"/>
      <point x="391" y="250"/>
      <point x="455" y="204"/>
      <point x="391" y="250" type="curve"/>
      <point x="371" y="231"/>
      <point x="356" y="219"/>
      <point x="329" y="219" type="curve"/>
      <point x="280" y="219"/>
      <point x="274" y="269"/>
      <point x="274" y="326" type="curve"/>
      <point x="274" y="383"/>
      <point x="283" y="431"/>
      <point x="333" y="431" type="curve"/>
      <point x="346" y="431"/>
      <point x="356" y="429"/>
      <point x="365" y="422" type="curve"/>
      <point x="458" y="462"/>
      <point x="365" y="422"/>
    </contour>
  </outline>
</glyph>
<glyph name="logicalnot" format="1">
  <advance width="528"/>
  <unicode hex="00AC"/>
  <outline>
    <contour>
      <point x="73" y="261" type="curve"/>
      <point x="460" y="261" type="line"/>
      <point x="460" y="369"/>
      <point x="460" y="261"/>
      <point x="460" y="369" type="curve"/>
      <point x="73" y="369" type="line"/>
      <point x="73" y="261"/>
      <point x="73" y="369"/>
    </contour>
    <contour>
      <point x="460" y="140" type="curve"/>
      <point x="460" y="369" type="line"/>
      <point x="333" y="369"/>
      <point x="461" y="369"/>
      <point x="334" y="369" type="curve"/>
      <point x="334" y="140" type="line"/>
      <point x="461" y="140"/>
      <point x="333" y="140"/>
    </contour>
  </outline>
</glyph>
<glyph name="registered" format="1">
  <advance width="674"/>
  <unicode hex="00AE"/>
  <outline>
    <contour>
      <point x="138" y="322" type="curve"/>
      <point x="138" y="467"/>
      <point x="205" y="572"/>
      <point x="340" y="572" type="curve"/>
      <point x="473" y="572"/>
      <point x="537" y="465"/>
      <point x="537" y="320" type="curve"/>
      <point x="537" y="179"/>
      <point x="476" y="73"/>
      <point x="346" y="73" type="curve"/>
      <point x="210" y="73"/>
      <point x="138" y="177"/>
      <point x="138" y="322" type="curve"/>
      <point x="104" y="322"/>
      <point x="86" y="322"/>
      <point x="52" y="322" type="curve"/>
      <point x="52" y="132"/>
      <point x="158" y="3"/>
      <point x="342" y="3" type="curve"/>
      <point x="523" y="3"/>
      <point x="622" y="135"/>
      <point x="622" y="323" type="curve"/>
      <point x="622" y="512"/>
      <point x="521" y="643"/>
      <point x="340" y="643" type="curve"/>
      <point x="156" y="643"/>
      <point x="52" y="512"/>
      <point x="52" y="322" type="curve"/>
      <point x="86" y="322"/>
      <point x="104" y="322"/>
    </contour>
    <contour>
      <point x="401" y="142" type="curve"/>
      <point x="432" y="142"/>
      <point x="440" y="142"/>
      <point x="471" y="142" type="curve"/>
      <point x="471" y="221"/>
      <point x="471" y="142"/>
      <point x="471" y="221" type="curve"/>
      <point x="464" y="221"/>
      <point x="462" y="221"/>
      <point x="455" y="221" type="curve"/>
      <point x="414" y="241"/>
      <point x="405" y="243"/>
    </contour>
    <contour>
      <point x="333" y="507" type="curve"/>
      <point x="294" y="507"/>
      <point x="255" y="507"/>
      <point x="214" y="507" type="curve"/>
      <point x="214" y="426"/>
      <point x="214" y="507"/>
      <point x="214" y="426" type="curve"/>
      <point x="220" y="426"/>
      <point x="226" y="426"/>
      <point x="231" y="426" type="curve"/>
      <point x="333" y="507"/>
      <point x="231" y="426"/>
    </contour>
    <contour>
      <point x="333" y="221" type="curve"/>
      <point x="294" y="221"/>
      <point x="255" y="221"/>
      <point x="214" y="221" type="curve"/>
      <point x="214" y="142"/>
      <point x="214" y="221"/>
      <point x="214" y="142" type="curve"/>
      <point x="220" y="142"/>
      <point x="226" y="142"/>
      <point x="231" y="142" type="curve"/>
      <point x="333" y="221"/>
      <point x="231" y="142"/>
    </contour>
    <contour>
      <point x="231" y="142" type="curve"/>
      <point x="269" y="142"/>
      <point x="305" y="142"/>
      <point x="343" y="142" type="curve"/>
      <point x="343" y="221"/>
      <point x="343" y="142"/>
      <point x="343" y="221" type="curve"/>
      <point x="340" y="221"/>
      <point x="337" y="221"/>
      <point x="333" y="221" type="curve"/>
      <point x="231" y="142"/>
      <point x="333" y="221"/>
    </contour>
    <contour>
      <point x="313" y="319" type="curve"/>
      <point x="316" y="312"/>
      <point x="398" y="149"/>
      <point x="401" y="142" type="curve"/>
      <point x="461" y="172"/>
      <point x="447" y="169"/>
      <point x="455" y="221" type="curve"/>
      <point x="407" y="313" type="line"/>
      <point x="281" y="312"/>
      <point x="439" y="320"/>
    </contour>
    <contour>
      <point x="323" y="221" type="curve"/>
      <point x="323" y="316"/>
      <point x="323" y="412"/>
      <point x="323" y="507" type="curve"/>
      <point x="221" y="426"/>
      <point x="333" y="507"/>
      <point x="231" y="426" type="curve"/>
      <point x="231" y="332"/>
      <point x="231" y="237"/>
      <point x="231" y="142" type="curve"/>
      <point x="333" y="221"/>
      <point x="221" y="142"/>
    </contour>
    <contour>
      <point x="284" y="272" type="curve"/>
      <point x="297" y="272"/>
      <point x="312" y="272"/>
      <point x="325" y="272" type="curve"/>
      <point x="406" y="272"/>
      <point x="458" y="310"/>
      <point x="458" y="392" type="curve"/>
      <point x="458" y="462"/>
      <point x="414" y="507"/>
      <point x="345" y="507" type="curve"/>
      <point x="341" y="507"/>
      <point x="337" y="507"/>
      <point x="333" y="507" type="curve"/>
      <point x="231" y="426"/>
      <point x="333" y="507"/>
      <point x="231" y="426" type="curve"/>
      <point x="262" y="426"/>
      <point x="295" y="426"/>
      <point x="326" y="426" type="curve"/>
      <point x="351" y="426"/>
      <point x="368" y="413"/>
      <point x="368" y="388" type="curve"/>
      <point x="368" y="367"/>
      <point x="359" y="352"/>
      <point x="339" y="352" type="curve"/>
      <point x="320" y="352"/>
      <point x="302" y="352"/>
      <point x="284" y="352" type="curve"/>
      <point x="284" y="272"/>
      <point x="284" y="352"/>
    </contour>
  </outline>
</glyph>
<glyph name="macron" format="1">
  <advance width="245"/>
  <unicode hex="00AF"/>
  <outline>
    <contour>
      <point x="115" y="586" type="move" name="_top"/>
    </contour>
    <contour>
      <point x="198" y="684" type="curve"/>
      <point x="143" y="684"/>
      <point x="86" y="684"/>
      <point x="31" y="684" type="curve"/>
      <point x="31" y="586"/>
      <point x="31" y="684"/>
      <point x="31" y="586" type="curve"/>
      <point x="86" y="586"/>
      <point x="143" y="586"/>
      <point x="198" y="586" type="curve"/>
      <point x="198" y="684"/>
      <point x="198" y="586"/>
    </contour>
  </outline>
</glyph>
<glyph name="degree" format="1">
  <advance width="424"/>
  <unicode hex="00B0"/>
  <outline>
    <contour>
      <point x="371" y="599" type="curve"/>
      <point x="371" y="704"/>
      <point x="312" y="772"/>
      <point x="210" y="772" type="curve"/>
      <point x="109" y="772"/>
      <point x="53" y="703"/>
      <point x="53" y="600" type="curve"/>
      <point x="93" y="600"/>
      <point x="115" y="600"/>
      <point x="156" y="600" type="curve"/>
      <point x="156" y="645"/>
      <point x="169" y="682"/>
      <point x="210" y="682" type="curve"/>
      <point x="250" y="682"/>
      <point x="264" y="645"/>
      <point x="264" y="599" type="curve"/>
      <point x="264" y="553"/>
      <point x="253" y="516"/>
      <point x="212" y="516" type="curve"/>
      <point x="170" y="516"/>
      <point x="156" y="553"/>
      <point x="156" y="600" type="curve"/>
      <point x="115" y="600"/>
      <point x="93" y="600"/>
      <point x="53" y="600" type="curve"/>
      <point x="53" y="495"/>
      <point x="110" y="425"/>
      <point x="212" y="425" type="curve"/>
      <point x="314" y="425"/>
      <point x="371" y="495"/>
    </contour>
  </outline>
</glyph>
<glyph name="plusminus" format="1">
  <advance width="628"/>
  <unicode hex="00B1"/>
  <outline>
    <contour>
      <point x="57" y="52" type="line"/>
      <point x="572" y="52" type="line"/>
      <point x="572" y="160" type="line"/>
      <point x="57" y="160" type="line"/>
    </contour>
    <contour>
      <point x="57" y="261" type="curve"/>
      <point x="572" y="261" type="line"/>
      <point x="572" y="369"/>
      <point x="572" y="261"/>
      <point x="572" y="369" type="curve"/>
      <point x="57" y="369" type="line"/>
      <point x="57" y="261"/>
      <point x="57" y="369"/>
    </contour>
    <contour>
      <point x="374" y="53" type="curve"/>
      <point x="374" y="579" type="line"/>
      <point x="246" y="579"/>
      <point x="382" y="579"/>
      <point x="255" y="579" type="curve"/>
      <point x="255" y="53" type="line"/>
      <point x="382" y="53"/>
      <point x="246" y="53"/>
    </contour>
  </outline>
</glyph>
<glyph name="twosuperior" format="1">
  <advance width="403"/>
  <unicode hex="00B2"/>
  <outline>
    <contour>
      <point x="214" y="814" type="move" name="_top"/>
    </contour>
    <contour>
      <point x="199" y="384" type="move" name="_bottom"/>
    </contour>
    <contour>
      <point x="353" y="384" type="curve"/>
      <point x="353" y="429"/>
      <point x="353" y="470"/>
      <point x="353" y="516" type="curve"/>
      <point x="260" y="516"/>
      <point x="370" y="516"/>
      <point x="277" y="516" type="curve"/>
      <point x="277" y="498"/>
      <point x="277" y="482"/>
      <point x="277" y="463" type="curve"/>
      <point x="370" y="384"/>
      <point x="260" y="463"/>
    </contour>
    <contour>
      <point x="60" y="384" type="curve"/>
      <point x="154" y="384"/>
      <point x="270" y="384"/>
      <point x="353" y="384" type="curve"/>
      <point x="260" y="463"/>
      <point x="370" y="384"/>
      <point x="277" y="463" type="curve"/>
      <point x="211" y="463"/>
      <point x="126" y="463"/>
      <point x="60" y="463" type="curve"/>
      <point x="60" y="384"/>
      <point x="60" y="463"/>
    </contour>
    <contour>
      <point x="152" y="679" type="curve"/>
      <point x="160" y="707"/>
      <point x="171" y="734"/>
      <point x="202" y="734" type="curve"/>
      <point x="231" y="734"/>
      <point x="242" y="708"/>
      <point x="242" y="675" type="curve"/>
      <point x="242" y="639"/>
      <point x="222" y="620"/>
      <point x="198" y="594" type="curve"/>
      <point x="152" y="551"/>
      <point x="106" y="507"/>
      <point x="60" y="463" type="curve"/>
      <point x="61" y="384"/>
      <point x="60" y="463"/>
      <point x="61" y="384" type="curve"/>
      <point x="125" y="433"/>
      <point x="211" y="481"/>
      <point x="263" y="531" type="curve"/>
      <point x="307" y="577"/>
      <point x="340" y="614"/>
      <point x="340" y="679" type="curve"/>
      <point x="340" y="761"/>
      <point x="288" y="813"/>
      <point x="206" y="813" type="curve"/>
      <point x="142" y="813"/>
      <point x="97" y="787"/>
      <point x="78" y="706" type="curve"/>
      <point x="152" y="679"/>
      <point x="78" y="706"/>
    </contour>
  </outline>
</glyph>
<glyph name="acute" format="1">
  <advance width="427"/>
  <unicode hex="00B4"/>
  <outline>
    <contour>
      <point x="109" y="592" type="move" name="_top"/>
    </contour>
    <contour>
      <point x="166" y="591" type="line"/>
      <point x="283" y="757" type="line"/>
      <point x="127" y="757" type="line"/>
      <point x="46" y="591" type="line"/>
    </contour>
  </outline>
</glyph>
<glyph name="periodcentered" format="1">
  <advance width="243"/>
  <unicode hex="00B7"/>
  <outline>
    <contour>
      <point x="188" y="440" type="curve"/>
      <point x="188" y="483"/>
      <point x="160" y="505"/>
      <point x="120" y="505" type="curve"/>
      <point x="81" y="505"/>
      <point x="55" y="481"/>
      <point x="55" y="440" type="curve"/>
      <point x="188" y="440"/>
      <point x="55" y="440"/>
      <point x="188" y="440" type="curve"/>
      <point x="188" y="396"/>
      <point x="161" y="376"/>
      <point x="120" y="376" type="curve"/>
      <point x="81" y="376"/>
      <point x="55" y="398"/>
      <point x="55" y="440" type="curve"/>
      <point x="188" y="440"/>
      <point x="55" y="440"/>
    </contour>
  </outline>
</glyph>
<glyph name="guillemotright" format="1">
  <advance width="456"/>
  <unicode hex="00BB"/>
  <outline>
    <contour>
      <point x="248" y="477" type="curve"/>
      <point x="285" y="447"/>
      <point x="372" y="379"/>
      <point x="409" y="349" type="curve"/>
      <point x="409" y="240"/>
      <point x="409" y="331"/>
      <point x="409" y="222" type="curve"/>
      <point x="372" y="253"/>
      <point x="285" y="330"/>
      <point x="248" y="360" type="curve"/>
      <point x="248" y="469"/>
      <point x="248" y="369"/>
    </contour>
    <contour>
      <point x="248" y="213" type="curve"/>
      <point x="284" y="244"/>
      <point x="372" y="318"/>
      <point x="409" y="349" type="curve"/>
      <point x="409" y="240"/>
      <point x="409" y="331"/>
      <point x="409" y="222" type="curve"/>
      <point x="372" y="192"/>
      <point x="284" y="126"/>
      <point x="248" y="97" type="curve"/>
      <point x="248" y="205"/>
      <point x="248" y="105"/>
    </contour>
    <contour>
      <point x="69" y="477" type="curve"/>
      <point x="106" y="447"/>
      <point x="193" y="379"/>
      <point x="230" y="349" type="curve"/>
      <point x="230" y="240"/>
      <point x="230" y="331"/>
      <point x="230" y="222" type="curve"/>
      <point x="193" y="253"/>
      <point x="106" y="330"/>
      <point x="69" y="360" type="curve"/>
      <point x="69" y="469"/>
      <point x="69" y="369"/>
    </contour>
    <contour>
      <point x="69" y="213" type="curve"/>
      <point x="105" y="244"/>
      <point x="193" y="318"/>
      <point x="230" y="349" type="curve"/>
      <point x="230" y="240"/>
      <point x="230" y="331"/>
      <point x="230" y="222" type="curve"/>
      <point x="193" y="192"/>
      <point x="105" y="126"/>
      <point x="69" y="97" type="curve"/>
      <point x="69" y="205"/>
      <point x="69" y="105"/>
    </contour>
  </outline>
</glyph>
<glyph name="onehalf" format="1">
  <advance width="920"/>
  <unicode hex="00BD"/>
  <outline>
    <contour>
      <point x="356" y="-43" type="line"/>
      <point x="674" y="714" type="line"/>
      <point x="557" y="714" type="line"/>
      <point x="240" y="-43" type="line"/>
    </contour>
    <contour>
      <point x="122" y="294" type="curve"/>
      <point x="167" y="294"/>
      <point x="226" y="294"/>
      <point x="271" y="294" type="curve"/>
      <point x="271" y="374"/>
      <point x="271" y="294"/>
      <point x="271" y="374" type="curve"/>
      <point x="260" y="374"/>
      <point x="235" y="374"/>
      <point x="224" y="374" type="curve"/>
      <point x="122" y="294"/>
      <point x="224" y="374"/>
    </contour>
    <contour>
      <point x="224" y="374" type="curve"/>
      <point x="179" y="374"/>
      <point x="120" y="374"/>
      <point x="73" y="374" type="curve"/>
      <point x="73" y="294"/>
      <point x="73" y="374"/>
      <point x="73" y="294" type="curve"/>
      <point x="85" y="294"/>
      <point x="110" y="294"/>
      <point x="122" y="294" type="curve"/>
      <point x="224" y="374"/>
      <point x="122" y="294"/>
    </contour>
    <contour>
      <point x="90" y="565" type="line"/>
      <point x="224" y="711" type="line"/>
      <point x="122" y="713" type="line"/>
      <point x="32" y="624" type="line"/>
    </contour>
    <contour>
      <point x="224" y="374" type="curve"/>
      <point x="224" y="713" type="line"/>
      <point x="122" y="713" type="line"/>
      <point x="122" y="294" type="line"/>
      <point x="224" y="374"/>
      <point x="122" y="294"/>
    </contour>
    <contour>
      <point x="887" y="-38" type="curve"/>
      <point x="887" y="7"/>
      <point x="887" y="48"/>
      <point x="887" y="94" type="curve"/>
      <point x="794" y="94"/>
      <point x="904" y="94"/>
      <point x="811" y="94" type="curve"/>
      <point x="811" y="75"/>
      <point x="811" y="60"/>
      <point x="811" y="41" type="curve"/>
      <point x="904" y="-38"/>
      <point x="794" y="41"/>
    </contour>
    <contour>
      <point x="594" y="-38" type="curve"/>
      <point x="688" y="-38"/>
      <point x="804" y="-38"/>
      <point x="887" y="-38" type="curve"/>
      <point x="794" y="41"/>
      <point x="904" y="-38"/>
      <point x="811" y="41" type="curve"/>
      <point x="745" y="41"/>
      <point x="660" y="41"/>
      <point x="594" y="41" type="curve"/>
      <point x="594" y="-38"/>
      <point x="594" y="41"/>
    </contour>
    <contour>
      <point x="686" y="256" type="curve"/>
      <point x="694" y="285"/>
      <point x="706" y="311"/>
      <point x="736" y="311" type="curve"/>
      <point x="765" y="311"/>
      <point x="776" y="286"/>
      <point x="776" y="252" type="curve"/>
      <point x="776" y="217"/>
      <point x="756" y="198"/>
      <point x="732" y="172" type="curve"/>
      <point x="686" y="128"/>
      <point x="640" y="84"/>
      <point x="594" y="41" type="curve"/>
      <point x="596" y="-38"/>
      <point x="594" y="41"/>
      <point x="596" y="-38" type="curve"/>
      <point x="659" y="10"/>
      <point x="745" y="59"/>
      <point x="797" y="109" type="curve"/>
      <point x="841" y="155"/>
      <point x="874" y="192"/>
      <point x="874" y="257" type="curve"/>
      <point x="874" y="339"/>
      <point x="822" y="391"/>
      <point x="740" y="391" type="curve"/>
      <point x="676" y="391"/>
      <point x="631" y="365"/>
      <point x="612" y="284" type="curve"/>
      <point x="686" y="256"/>
      <point x="612" y="284"/>
    </contour>
  </outline>
</glyph>
<glyph name="Igrave" format="1">
  <advance width="345"/>
  <unicode hex="00CC"/>
  <outline>
    <contour>
      <point x="173" y="722" type="curve"/>
      <point x="127" y="722"/>
      <point x="84" y="722"/>
      <point x="38" y="722" type="curve"/>
      <point x="38" y="624"/>
      <point x="38" y="722"/>
      <point x="38" y="624" type="curve"/>
      <point x="175" y="624"/>
      <point x="36" y="624"/>
      <point x="173" y="624" type="curve"/>
      <point x="173" y="722"/>
      <point x="173" y="624"/>
    </contour>
    <contour>
      <point x="173" y="624" type="curve"/>
      <point x="309" y="624"/>
      <point x="170" y="624"/>
      <point x="307" y="624" type="curve"/>
      <point x="307" y="722"/>
      <point x="307" y="624"/>
      <point x="307" y="722" type="curve"/>
      <point x="261" y="722"/>
      <point x="218" y="722"/>
      <point x="173" y="722" type="curve"/>
      <point x="173" y="624"/>
      <point x="173" y="722"/>
    </contour>
    <contour>
      <point x="173" y="0" type="curve"/>
      <point x="218" y="0"/>
      <point x="261" y="0"/>
      <point x="307" y="0" type="curve"/>
      <point x="307" y="98"/>
      <point x="307" y="0"/>
      <point x="307" y="98" type="curve"/>
      <point x="170" y="98"/>
      <point x="309" y="98"/>
      <point x="173" y="98" type="curve"/>
      <point x="173" y="0"/>
      <point x="173" y="98"/>
    </contour>
    <contour>
      <point x="173" y="98" type="curve"/>
      <point x="36" y="98"/>
      <point x="175" y="98"/>
      <point x="38" y="98" type="curve"/>
      <point x="38" y="0"/>
      <point x="38" y="98"/>
      <point x="38" y="0" type="curve"/>
      <point x="84" y="0"/>
      <point x="127" y="0"/>
      <point x="173" y="0" type="curve"/>
      <point x="173" y="98"/>
      <point x="173" y="0"/>
    </contour>
    <contour>
      <point x="235" y="0" type="curve"/>
      <point x="235" y="241"/>
      <point x="235" y="481"/>
      <point x="235" y="722" type="curve"/>
      <point x="108" y="722"/>
      <point x="235" y="722"/>
      <point x="108" y="722" type="curve"/>
      <point x="108" y="481"/>
      <point x="108" y="241"/>
      <point x="108" y="0" type="curve"/>
      <point x="235" y="0"/>
      <point x="108" y="0"/>
    </contour>
    <contour>
      <point x="235" y="787" type="line"/>
      <point x="153" y="953" type="line"/>
      <point x="-3" y="953" type="line"/>
      <point x="114" y="787" type="line"/>
    </contour>
  </outline>
</glyph>
<glyph name="Iacute" format="1">
  <advance width="347"/>
  <unicode hex="00CD"/>
  <outline>
    <contour>
      <point x="174" y="722" type="curve"/>
      <point x="128" y="722"/>
      <point x="85" y="722"/>
      <point x="39" y="722" type="curve"/>
      <point x="39" y="624"/>
      <point x="39" y="722"/>
      <point x="39" y="624" type="curve"/>
      <point x="176" y="624"/>
      <point x="36" y="624"/>
      <point x="174" y="624" type="curve"/>
      <point x="174" y="722"/>
      <point x="174" y="624"/>
    </contour>
    <contour>
      <point x="174" y="624" type="curve"/>
      <point x="310" y="624"/>
      <point x="171" y="624"/>
      <point x="308" y="624" type="curve"/>
      <point x="308" y="722"/>
      <point x="308" y="624"/>
      <point x="308" y="722" type="curve"/>
      <point x="262" y="722"/>
      <point x="219" y="722"/>
      <point x="174" y="722" type="curve"/>
      <point x="174" y="624"/>
      <point x="174" y="722"/>
    </contour>
    <contour>
      <point x="174" y="0" type="curve"/>
      <point x="219" y="0"/>
      <point x="262" y="0"/>
      <point x="308" y="0" type="curve"/>
      <point x="308" y="98"/>
      <point x="308" y="0"/>
      <point x="308" y="98" type="curve"/>
      <point x="171" y="98"/>
      <point x="310" y="98"/>
      <point x="174" y="98" type="curve"/>
      <point x="174" y="0"/>
      <point x="174" y="98"/>
    </contour>
    <contour>
      <point x="174" y="98" type="curve"/>
      <point x="36" y="98"/>
      <point x="176" y="98"/>
      <point x="39" y="98" type="curve"/>
      <point x="39" y="0"/>
      <point x="39" y="98"/>
      <point x="39" y="0" type="curve"/>
      <point x="85" y="0"/>
      <point x="128" y="0"/>
      <point x="174" y="0" type="curve"/>
      <point x="174" y="98"/>
      <point x="174" y="0"/>
    </contour>
    <contour>
      <point x="236" y="0" type="curve"/>
      <point x="236" y="241"/>
      <point x="236" y="481"/>
      <point x="236" y="722" type="curve"/>
      <point x="109" y="722"/>
      <point x="236" y="722"/>
      <point x="109" y="722" type="curve"/>
      <point x="109" y="481"/>
      <point x="109" y="241"/>
      <point x="109" y="0" type="curve"/>
      <point x="236" y="0"/>
      <point x="109" y="0"/>
    </contour>
    <contour>
      <point x="232" y="785" type="line"/>
      <point x="349" y="951" type="line"/>
      <point x="193" y="951" type="line"/>
      <point x="111" y="785" type="line"/>
    </contour>
  </outline>
</glyph>
<glyph name="Oacute" format="1">
  <advance width="656"/>
  <unicode hex="00D3"/>
  <outline>
    <contour>
      <point x="177" y="360" type="curve"/>
      <point x="177" y="501"/>
      <point x="200" y="624"/>
      <point x="325" y="624" type="curve"/>
      <point x="446" y="624"/>
      <point x="479" y="504"/>
      <point x="479" y="363" type="curve"/>
      <point x="479" y="221"/>
      <point x="454" y="99"/>
      <point x="330" y="99" type="curve"/>
      <point x="207" y="99"/>
      <point x="177" y="218"/>
      <point x="177" y="360" type="curve"/>
      <point x="50" y="360"/>
      <point x="177" y="360"/>
      <point x="50" y="360" type="curve"/>
      <point x="50" y="152"/>
      <point x="136" y="-5"/>
      <point x="325" y="-5" type="curve"/>
      <point x="517" y="-5"/>
      <point x="606" y="154"/>
      <point x="606" y="363" type="curve"/>
      <point x="606" y="569"/>
      <point x="521" y="727"/>
      <point x="331" y="727" type="curve"/>
      <point x="139" y="727"/>
      <point x="50" y="568"/>
      <point x="50" y="360" type="curve"/>
      <point x="177" y="360"/>
      <point x="50" y="360"/>
    </contour>
    <contour>
      <point x="386" y="785" type="line"/>
      <point x="503" y="951" type="line"/>
      <point x="347" y="951" type="line"/>
      <point x="265" y="785" type="line"/>
    </contour>
  </outline>
</glyph>
<glyph name="Odieresis" format="1">
  <advance width="656"/>
  <unicode hex="00D6"/>
  <outline>
    <contour>
      <point x="177" y="360" type="curve"/>
      <point x="177" y="501"/>
      <point x="200" y="624"/>
      <point x="325" y="624" type="curve"/>
      <point x="446" y="624"/>
      <point x="479" y="504"/>
      <point x="479" y="363" type="curve"/>
      <point x="479" y="221"/>
      <point x="454" y="99"/>
      <point x="330" y="99" type="curve"/>
      <point x="207" y="99"/>
      <point x="177" y="218"/>
      <point x="177" y="360" type="curve"/>
      <point x="50" y="360"/>
      <point x="177" y="360"/>
      <point x="50" y="360" type="curve"/>
      <point x="50" y="152"/>
      <point x="136" y="-5"/>
      <point x="325" y="-5" type="curve"/>
      <point x="517" y="-5"/>
      <point x="606" y="154"/>
      <point x="606" y="363" type="curve"/>
      <point x="606" y="569"/>
      <point x="521" y="727"/>
      <point x="331" y="727" type="curve"/>
      <point x="139" y="727"/>
      <point x="50" y="568"/>
      <point x="50" y="360" type="curve"/>
      <point x="177" y="360"/>
      <point x="50" y="360"/>
    </contour>
    <contour>
      <point x="304" y="844" type="curve"/>
      <point x="304" y="887"/>
      <point x="275" y="909"/>
      <point x="236" y="909" type="curve"/>
      <point x="197" y="909"/>
      <point x="171" y="885"/>
      <point x="171" y="844" type="curve"/>
      <point x="304" y="844"/>
      <point x="171" y="844"/>
      <point x="304" y="844" type="curve"/>
      <point x="304" y="800"/>
      <point x="276" y="780"/>
      <point x="236" y="780" type="curve"/>
      <point x="196" y="780"/>
      <point x="171" y="802"/>
      <point x="171" y="844" type="curve"/>
      <point x="304" y="844"/>
      <point x="171" y="844"/>
    </contour>
    <contour>
      <point x="488" y="844" type="curve"/>
      <point x="488" y="887"/>
      <point x="460" y="909"/>
      <point x="421" y="909" type="curve"/>
      <point x="381" y="909"/>
      <point x="355" y="885"/>
      <point x="355" y="844" type="curve"/>
      <point x="488" y="844"/>
      <point x="355" y="844"/>
      <point x="488" y="844" type="curve"/>
      <point x="488" y="800"/>
      <point x="461" y="780"/>
      <point x="421" y="780" type="curve"/>
      <point x="380" y="780"/>
      <point x="355" y="802"/>
      <point x="355" y="844" type="curve"/>
      <point x="488" y="844"/>
      <point x="355" y="844"/>
    </contour>
  </outline>
</glyph>
<glyph name="multiply" format="1">
  <advance width="599"/>
  <unicode hex="00D7"/>
  <outline>
    <contour>
      <point x="124" y="54" type="line"/>
      <point x="548" y="495" type="line"/>
      <point x="476" y="568" type="line"/>
      <point x="51" y="126" type="line"/>
    </contour>
    <contour>
      <point x="548" y="124" type="line"/>
      <point x="124" y="565" type="line"/>
      <point x="51" y="493" type="line"/>
      <point x="476" y="51" type="line"/>
    </contour>
  </outline>
</glyph>
<glyph name="Oslash" format="1">
  <advance width="656"/>
  <unicode hex="00D8"/>
  <outline>
    <contour>
      <point x="202" y="-60" type="line"/>
      <point x="539" y="741" type="line"/>
      <point x="456" y="771" type="line"/>
      <point x="122" y="-21" type="line"/>
    </contour>
    <contour>
      <point x="177" y="360" type="curve"/>
      <point x="177" y="501"/>
      <point x="200" y="624"/>
      <point x="325" y="624" type="curve"/>
      <point x="446" y="624"/>
      <point x="479" y="504"/>
      <point x="479" y="363" type="curve"/>
      <point x="479" y="221"/>
      <point x="454" y="99"/>
      <point x="330" y="99" type="curve"/>
      <point x="207" y="99"/>
      <point x="177" y="218"/>
      <point x="177" y="360" type="curve"/>
      <point x="50" y="360"/>
      <point x="177" y="360"/>
      <point x="50" y="360" type="curve"/>
      <point x="50" y="152"/>
      <point x="136" y="-5"/>
      <point x="325" y="-5" type="curve"/>
      <point x="517" y="-5"/>
      <point x="606" y="154"/>
      <point x="606" y="363" type="curve"/>
      <point x="606" y="569"/>
      <point x="521" y="727"/>
      <point x="331" y="727" type="curve"/>
      <point x="139" y="727"/>
      <point x="50" y="568"/>
      <point x="50" y="360" type="curve"/>
      <point x="177" y="360"/>
      <point x="50" y="360"/>
    </contour>
  </outline>
</glyph>
<glyph name="Thorn" format="1">
  <advance width="552"/>
  <unicode hex="00DE"/>
  <outline>
    <contour>
      <point x="188" y="722" type="curve"/>
      <point x="146" y="722"/>
      <point x="103" y="722"/>
      <point x="59" y="722" type="curve"/>
      <point x="59" y="624"/>
      <point x="59" y="722"/>
      <point x="59" y="624" type="curve"/>
      <point x="188" y="624"/>
      <point x="59" y="624"/>
      <point x="188" y="624" type="curve"/>
      <point x="188" y="722"/>
      <point x="188" y="624"/>
    </contour>
    <contour>
      <point x="188" y="98" type="curve"/>
      <point x="59" y="98"/>
      <point x="188" y="98"/>
      <point x="59" y="98" type="curve"/>
      <point x="59" y="0"/>
      <point x="59" y="98"/>
      <point x="59" y="0" type="curve"/>
      <point x="103" y="0"/>
      <point x="146" y="0"/>
      <point x="188" y="0" type="curve"/>
      <point x="188" y="98"/>
      <point x="188" y="0"/>
    </contour>
    <contour>
      <point x="188" y="0" type="curve"/>
      <point x="230" y="0"/>
      <point x="188" y="0"/>
      <point x="313" y="0" type="curve"/>
      <point x="313" y="98"/>
      <point x="313" y="0"/>
      <point x="313" y="98" type="curve"/>
      <point x="188" y="98"/>
      <point x="313" y="98"/>
      <point x="188" y="98" type="curve"/>
      <point x="188" y="0"/>
      <point x="188" y="98"/>
    </contour>
    <contour>
      <point x="170" y="211" type="curve"/>
      <point x="217" y="183"/>
      <point x="266" y="165"/>
      <point x="326" y="165" type="curve"/>
      <point x="446" y="167"/>
      <point x="521" y="249"/>
      <point x="521" y="382" type="curve"/>
      <point x="521" y="504"/>
      <point x="434" y="588"/>
      <point x="293" y="588" type="curve"/>
      <point x="259" y="588"/>
      <point x="224" y="588"/>
      <point x="191" y="588" type="curve"/>
      <point x="191" y="490"/>
      <point x="191" y="588"/>
      <point x="191" y="490" type="curve"/>
      <point x="219" y="490"/>
      <point x="247" y="490"/>
      <point x="276" y="490" type="curve"/>
      <point x="353" y="490"/>
      <point x="394" y="441"/>
      <point x="394" y="378" type="curve"/>
      <point x="394" y="313"/>
      <point x="371" y="260"/>
      <point x="310" y="260" type="curve"/>
      <point x="270" y="260"/>
      <point x="244" y="272"/>
      <point x="210" y="293" type="curve"/>
      <point x="170" y="214"/>
      <point x="210" y="293"/>
    </contour>
    <contour>
      <point x="251" y="0" type="curve"/>
      <point x="251" y="241"/>
      <point x="251" y="481"/>
      <point x="251" y="722" type="curve"/>
      <point x="124" y="722"/>
      <point x="251" y="722"/>
      <point x="124" y="722" type="curve"/>
      <point x="124" y="481"/>
      <point x="124" y="241"/>
      <point x="124" y="0" type="curve"/>
      <point x="251" y="0"/>
      <point x="124" y="0"/>
    </contour>
    <contour>
      <point x="188" y="624" type="curve"/>
      <point x="230" y="624"/>
      <point x="188" y="624"/>
      <point x="313" y="624" type="curve"/>
      <point x="313" y="722"/>
      <point x="313" y="624"/>
      <point x="313" y="722" type="curve"/>
      <point x="188" y="722"/>
      <point x="313" y="722"/>
      <point x="188" y="722" type="curve"/>
      <point x="188" y="624"/>
      <point x="188" y="722"/>
    </contour>
  </outline>
</glyph>
<glyph name="aacute" format="1">
  <advance width="517"/>
  <unicode hex="00E1"/>
  <outline>
    <contour>
      <point x="70" y="461" type="curve"/>
      <point x="70" y="348"/>
      <point x="70" y="463"/>
      <point x="70" y="350" type="curve"/>
      <point x="170" y="350"/>
      <point x="70" y="350"/>
      <point x="170" y="350" type="curve"/>
      <point x="170" y="463"/>
      <point x="170" y="348"/>
      <point x="170" y="461" type="curve"/>
      <point x="70" y="461"/>
      <point x="170" y="461"/>
    </contour>
    <contour>
      <point x="432" y="0" type="curve"/>
      <point x="432" y="124"/>
      <point x="432" y="249"/>
      <point x="432" y="373" type="curve"/>
      <point x="432" y="488"/>
      <point x="359" y="538"/>
      <point x="248" y="538" type="curve"/>
      <point x="167" y="538"/>
      <point x="110" y="504"/>
      <point x="70" y="461" type="curve"/>
      <point x="118" y="378"/>
      <point x="70" y="461"/>
      <point x="118" y="378" type="curve"/>
      <point x="144" y="405"/>
      <point x="178" y="435"/>
      <point x="230" y="435" type="curve"/>
      <point x="280" y="435"/>
      <point x="305" y="406"/>
      <point x="305" y="356" type="curve"/>
      <point x="305" y="238"/>
      <point x="305" y="118"/>
      <point x="305" y="0" type="curve"/>
      <point x="432" y="0"/>
      <point x="305" y="0"/>
    </contour>
    <contour>
      <point x="370" y="0" type="curve"/>
      <point x="410" y="0"/>
      <point x="452" y="0"/>
      <point x="492" y="0" type="curve"/>
      <point x="492" y="98"/>
      <point x="492" y="0"/>
      <point x="492" y="98" type="curve"/>
      <point x="369" y="98"/>
      <point x="494" y="98"/>
      <point x="370" y="98" type="curve"/>
      <point x="370" y="0"/>
      <point x="370" y="98"/>
    </contour>
    <contour>
      <point x="365" y="346" type="curve"/>
      <point x="308" y="337"/>
      <point x="274" y="335"/>
      <point x="217" y="325" type="curve"/>
      <point x="112" y="308"/>
      <point x="44" y="263"/>
      <point x="44" y="162" type="curve"/>
      <point x="44" y="58"/>
      <point x="97" y="-5"/>
      <point x="200" y="-5" type="curve"/>
      <point x="303" y="-5"/>
      <point x="343" y="81"/>
      <point x="400" y="153" type="curve"/>
      <point x="336" y="208"/>
      <point x="400" y="153"/>
      <point x="336" y="208" type="curve"/>
      <point x="311" y="147"/>
      <point x="289" y="93"/>
      <point x="230" y="93" type="curve"/>
      <point x="183" y="93"/>
      <point x="167" y="121"/>
      <point x="167" y="167" type="curve"/>
      <point x="167" y="204"/>
      <point x="191" y="231"/>
      <point x="220" y="237" type="curve"/>
      <point x="282" y="247"/>
      <point x="308" y="252"/>
      <point x="371" y="262" type="curve"/>
      <point x="365" y="346"/>
      <point x="371" y="262"/>
    </contour>
    <contour>
      <point x="308" y="617" type="line"/>
      <point x="425" y="783" type="line"/>
      <point x="269" y="783" type="line"/>
      <point x="188" y="617" type="line"/>
    </contour>
  </outline>
</glyph>
<glyph name="atilde" format="1">
  <advance width="517"/>
  <unicode hex="00E3"/>
  <outline>
    <contour>
      <point x="69" y="461" type="curve"/>
      <point x="69" y="348"/>
      <point x="69" y="463"/>
      <point x="69" y="350" type="curve"/>
      <point x="169" y="350"/>
      <point x="69" y="350"/>
      <point x="169" y="350" type="curve"/>
      <point x="169" y="463"/>
      <point x="169" y="348"/>
      <point x="169" y="461" type="curve"/>
      <point x="69" y="461"/>
      <point x="169" y="461"/>
    </contour>
    <contour>
      <point x="431" y="0" type="curve"/>
      <point x="431" y="124"/>
      <point x="431" y="249"/>
      <point x="431" y="373" type="curve"/>
      <point x="431" y="488"/>
      <point x="358" y="538"/>
      <point x="247" y="538" type="curve"/>
      <point x="166" y="538"/>
      <point x="110" y="504"/>
      <point x="69" y="461" type="curve"/>
      <point x="117" y="378"/>
      <point x="69" y="461"/>
      <point x="117" y="378" type="curve"/>
      <point x="143" y="405"/>
      <point x="177" y="435"/>
      <point x="229" y="435" type="curve"/>
      <point x="279" y="435"/>
      <point x="304" y="406"/>
      <point x="304" y="356" type="curve"/>
      <point x="304" y="238"/>
      <point x="304" y="118"/>
      <point x="304" y="0" type="curve"/>
      <point x="431" y="0"/>
      <point x="304" y="0"/>
    </contour>
    <contour>
      <point x="369" y="0" type="curve"/>
      <point x="410" y="0"/>
      <point x="451" y="0"/>
      <point x="491" y="0" type="curve"/>
      <point x="491" y="98"/>
      <point x="491" y="0"/>
      <point x="491" y="98" type="curve"/>
      <point x="368" y="98"/>
      <point x="493" y="98"/>
      <point x="369" y="98" type="curve"/>
      <point x="369" y="0"/>
      <point x="369" y="98"/>
    </contour>
    <contour>
      <point x="364" y="346" type="curve"/>
      <point x="307" y="337"/>
      <point x="273" y="335"/>
      <point x="216" y="325" type="curve"/>
      <point x="111" y="308"/>
      <point x="43" y="263"/>
      <point x="43" y="162" type="curve"/>
      <point x="43" y="58"/>
      <point x="96" y="-5"/>
      <point x="199" y="-5" type="curve"/>
      <point x="302" y="-5"/>
      <point x="342" y="81"/>
      <point x="400" y="153" type="curve"/>
      <point x="335" y="208"/>
      <point x="400" y="153"/>
      <point x="335" y="208" type="curve"/>
      <point x="310" y="147"/>
      <point x="288" y="93"/>
      <point x="229" y="93" type="curve"/>
      <point x="182" y="93"/>
      <point x="166" y="121"/>
      <point x="166" y="167" type="curve"/>
      <point x="166" y="204"/>
      <point x="190" y="231"/>
      <point x="219" y="237" type="curve"/>
      <point x="282" y="247"/>
      <point x="308" y="252"/>
      <point x="370" y="262" type="curve"/>
      <point x="364" y="346"/>
      <point x="370" y="262"/>
    </contour>
    <contour>
      <point x="349" y="801" type="curve"/>
      <point x="333" y="764"/>
      <point x="321" y="752"/>
      <point x="304" y="752" type="curve"/>
      <point x="279" y="752"/>
      <point x="267" y="760"/>
      <point x="249" y="776" type="curve"/>
      <point x="224" y="797"/>
      <point x="211" y="807"/>
      <point x="181" y="807" type="curve"/>
      <point x="113" y="807"/>
      <point x="81" y="740"/>
      <point x="62" y="676" type="curve"/>
      <point x="155" y="622"/>
      <point x="62" y="677"/>
      <point x="155" y="622" type="curve"/>
      <point x="174" y="664"/>
      <point x="188" y="676"/>
      <point x="209" y="676" type="curve"/>
      <point x="230" y="676"/>
      <point x="240" y="668"/>
      <point x="254" y="654" type="curve"/>
      <point x="283" y="629"/>
      <point x="299" y="616"/>
      <point x="335" y="616" type="curve"/>
      <point x="402" y="616"/>
      <point x="425" y="681"/>
      <point x="450" y="749" type="curve"/>
      <point x="349" y="801"/>
      <point x="450" y="748"/>
    </contour>
  </outline>
</glyph>
<glyph name="adieresis" format="1">
  <advance width="517"/>
  <unicode hex="00E4"/>
  <outline>
    <contour>
      <point x="69" y="461" type="curve"/>
      <point x="69" y="348"/>
      <point x="69" y="463"/>
      <point x="69" y="350" type="curve"/>
      <point x="169" y="350"/>
      <point x="69" y="350"/>
      <point x="169" y="350" type="curve"/>
      <point x="169" y="463"/>
      <point x="169" y="348"/>
      <point x="169" y="461" type="curve"/>
      <point x="69" y="461"/>
      <point x="169" y="461"/>
    </contour>
    <contour>
      <point x="431" y="0" type="curve"/>
      <point x="431" y="124"/>
      <point x="431" y="249"/>
      <point x="431" y="373" type="curve"/>
      <point x="431" y="488"/>
      <point x="358" y="538"/>
      <point x="247" y="538" type="curve"/>
      <point x="166" y="538"/>
      <point x="110" y="504"/>
      <point x="69" y="461" type="curve"/>
      <point x="117" y="378"/>
      <point x="69" y="461"/>
      <point x="117" y="378" type="curve"/>
      <point x="143" y="405"/>
      <point x="177" y="435"/>
      <point x="229" y="435" type="curve"/>
      <point x="279" y="435"/>
      <point x="304" y="406"/>
      <point x="304" y="356" type="curve"/>
      <point x="304" y="238"/>
      <point x="304" y="118"/>
      <point x="304" y="0" type="curve"/>
      <point x="431" y="0"/>
      <point x="304" y="0"/>
    </contour>
    <contour>
      <point x="369" y="0" type="curve"/>
      <point x="410" y="0"/>
      <point x="451" y="0"/>
      <point x="491" y="0" type="curve"/>
      <point x="491" y="98"/>
      <point x="491" y="0"/>
      <point x="491" y="98" type="curve"/>
      <point x="368" y="98"/>
      <point x="493" y="98"/>
      <point x="369" y="98" type="curve"/>
      <point x="369" y="0"/>
      <point x="369" y="98"/>
    </contour>
    <contour>
      <point x="364" y="346" type="curve"/>
      <point x="307" y="337"/>
      <point x="273" y="335"/>
      <point x="216" y="325" type="curve"/>
      <point x="111" y="308"/>
      <point x="43" y="263"/>
      <point x="43" y="162" type="curve"/>
      <point x="43" y="58"/>
      <point x="96" y="-5"/>
      <point x="199" y="-5" type="curve"/>
      <point x="302" y="-5"/>
      <point x="342" y="81"/>
      <point x="400" y="153" type="curve"/>
      <point x="335" y="208"/>
      <point x="400" y="153"/>
      <point x="335" y="208" type="curve"/>
      <point x="310" y="147"/>
      <point x="288" y="93"/>
      <point x="229" y="93" type="curve"/>
      <point x="182" y="93"/>
      <point x="166" y="121"/>
      <point x="166" y="167" type="curve"/>
      <point x="166" y="204"/>
      <point x="190" y="231"/>
      <point x="219" y="237" type="curve"/>
      <point x="282" y="247"/>
      <point x="308" y="252"/>
      <point x="370" y="262" type="curve"/>
      <point x="364" y="346"/>
      <point x="370" y="262"/>
    </contour>
    <contour>
      <point x="225" y="676" type="curve"/>
      <point x="225" y="719"/>
      <point x="197" y="741"/>
      <point x="158" y="741" type="curve"/>
      <point x="118" y="741"/>
      <point x="92" y="718"/>
      <point x="92" y="676" type="curve"/>
      <point x="225" y="676"/>
      <point x="92" y="676"/>
      <point x="225" y="676" type="curve"/>
      <point x="225" y="632"/>
      <point x="197" y="612"/>
      <point x="158" y="612" type="curve"/>
      <point x="117" y="612"/>
      <point x="92" y="634"/>
      <point x="92" y="676" type="curve"/>
      <point x="225" y="676"/>
      <point x="92" y="676"/>
    </contour>
    <contour>
      <point x="410" y="676" type="curve"/>
      <point x="410" y="719"/>
      <point x="381" y="741"/>
      <point x="343" y="741" type="curve"/>
      <point x="303" y="741"/>
      <point x="277" y="718"/>
      <point x="277" y="676" type="curve"/>
      <point x="410" y="676"/>
      <point x="277" y="676"/>
      <point x="410" y="676" type="curve"/>
      <point x="410" y="632"/>
      <point x="382" y="612"/>
      <point x="343" y="612" type="curve"/>
      <point x="302" y="612"/>
      <point x="277" y="634"/>
      <point x="277" y="676" type="curve"/>
      <point x="410" y="676"/>
      <point x="277" y="676"/>
    </contour>
  </outline>
</glyph>
<glyph name="ae" format="1">
  <advance width="748"/>
  <unicode hex="00E6"/>
  <outline>
    <contour>
      <point x="67" y="461" type="curve"/>
      <point x="67" y="348"/>
      <point x="67" y="465"/>
      <point x="67" y="352" type="curve"/>
      <point x="167" y="352"/>
      <point x="67" y="352"/>
      <point x="167" y="352" type="curve"/>
      <point x="167" y="465"/>
      <point x="167" y="348"/>
      <point x="167" y="461" type="curve"/>
      <point x="67" y="461"/>
      <point x="167" y="461"/>
    </contour>
    <contour>
      <point x="429" y="283" type="curve"/>
      <point x="429" y="325"/>
      <point x="429" y="330"/>
      <point x="429" y="373" type="curve"/>
      <point x="429" y="488"/>
      <point x="356" y="534"/>
      <point x="245" y="534" type="curve"/>
      <point x="164" y="534"/>
      <point x="108" y="504"/>
      <point x="67" y="461" type="curve"/>
      <point x="115" y="378"/>
      <point x="67" y="461"/>
      <point x="115" y="378" type="curve"/>
      <point x="141" y="405"/>
      <point x="174" y="435"/>
      <point x="227" y="435" type="curve"/>
      <point x="277" y="435"/>
      <point x="302" y="402"/>
      <point x="302" y="343" type="curve"/>
      <point x="302" y="311"/>
      <point x="302" y="315"/>
      <point x="302" y="283" type="curve"/>
      <point x="429" y="283"/>
      <point x="302" y="283"/>
    </contour>
    <contour>
      <point x="363" y="326" type="curve"/>
      <point x="304" y="325"/>
      <point x="271" y="326"/>
      <point x="211" y="316" type="curve"/>
      <point x="106" y="299"/>
      <point x="41" y="256"/>
      <point x="41" y="162" type="curve"/>
      <point x="41" y="58"/>
      <point x="94" y="-5"/>
      <point x="197" y="-5" type="curve"/>
      <point x="300" y="-5"/>
      <point x="347" y="62"/>
      <point x="399" y="147" type="curve"/>
      <point x="335" y="202"/>
      <point x="398" y="147"/>
      <point x="334" y="202" type="curve"/>
      <point x="299" y="146"/>
      <point x="283" y="93"/>
      <point x="220" y="93" type="curve"/>
      <point x="179" y="93"/>
      <point x="164" y="119"/>
      <point x="164" y="160" type="curve"/>
      <point x="164" y="195"/>
      <point x="188" y="220"/>
      <point x="218" y="225" type="curve"/>
      <point x="274" y="234"/>
      <point x="311" y="233"/>
      <point x="368" y="233" type="curve"/>
      <point x="362" y="317"/>
      <point x="368" y="242"/>
    </contour>
    <contour>
      <point x="364" y="232" type="curve"/>
      <point x="461" y="232"/>
      <point x="559" y="232"/>
      <point x="656" y="232" type="curve"/>
      <point x="709" y="232"/>
      <point x="656" y="232"/>
      <point x="709" y="232" type="curve"/>
      <point x="709" y="274"/>
      <point x="709" y="232"/>
      <point x="709" y="274" type="curve"/>
      <point x="709" y="281"/>
      <point x="709" y="287"/>
      <point x="709" y="293" type="curve"/>
      <point x="709" y="441"/>
      <point x="648" y="538"/>
      <point x="513" y="538" type="curve"/>
      <point x="368" y="538"/>
      <point x="300" y="436"/>
      <point x="300" y="278" type="curve"/>
      <point x="300" y="108"/>
      <point x="373" y="-5"/>
      <point x="528" y="-5" type="curve"/>
      <point x="597" y="-5"/>
      <point x="640" y="23"/>
      <point x="690" y="73" type="curve"/>
      <point x="613" y="143"/>
      <point x="690" y="73"/>
      <point x="613" y="143" type="curve"/>
      <point x="589" y="115"/>
      <point x="565" y="99"/>
      <point x="528" y="99" type="curve"/>
      <point x="442" y="99"/>
      <point x="426" y="178"/>
      <point x="426" y="278" type="curve"/>
      <point x="426" y="365"/>
      <point x="434" y="435"/>
      <point x="507" y="435" type="curve"/>
      <point x="572" y="435"/>
      <point x="588" y="379"/>
      <point x="588" y="303" type="curve"/>
      <point x="588" y="293"/>
      <point x="588" y="284"/>
      <point x="588" y="274" type="curve"/>
      <point x="599" y="285"/>
      <point x="610" y="294"/>
      <point x="621" y="305" type="curve"/>
      <point x="631" y="315"/>
      <point x="646" y="314"/>
      <point x="656" y="325" type="curve"/>
      <point x="559" y="325"/>
      <point x="461" y="325"/>
      <point x="364" y="325" type="curve"/>
      <point x="364" y="227"/>
      <point x="364" y="331"/>
    </contour>
  </outline>
</glyph>
<glyph name="ccedilla" format="1">
  <advance width="474"/>
  <unicode hex="00E7"/>
  <outline>
    <contour>
      <point x="323" y="470" type="curve"/>
      <point x="323" y="350"/>
      <point x="323" y="471"/>
      <point x="323" y="351" type="curve"/>
      <point x="424" y="351"/>
      <point x="323" y="351"/>
      <point x="424" y="351" type="curve"/>
      <point x="424" y="471"/>
      <point x="424" y="350"/>
      <point x="424" y="470" type="curve"/>
      <point x="323" y="470"/>
      <point x="424" y="470"/>
    </contour>
    <contour>
      <point x="424" y="470" type="curve"/>
      <point x="382" y="508"/>
      <point x="328" y="538"/>
      <point x="269" y="538" type="curve"/>
      <point x="116" y="538"/>
      <point x="41" y="433"/>
      <point x="41" y="267" type="curve"/>
      <point x="41" y="102"/>
      <point x="113" y="-5"/>
      <point x="267" y="-5" type="curve"/>
      <point x="334" y="-5"/>
      <point x="398" y="25"/>
      <point x="434" y="94" type="curve"/>
      <point x="349" y="154"/>
      <point x="434" y="94"/>
      <point x="349" y="154" type="curve"/>
      <point x="330" y="127"/>
      <point x="306" y="98"/>
      <point x="273" y="98" type="curve"/>
      <point x="190" y="98"/>
      <point x="168" y="171"/>
      <point x="168" y="267" type="curve"/>
      <point x="168" y="363"/>
      <point x="187" y="435"/>
      <point x="268" y="435" type="curve"/>
      <point x="298" y="435"/>
      <point x="326" y="420"/>
      <point x="348" y="401" type="curve"/>
      <point x="424" y="470"/>
      <point x="348" y="401"/>
    </contour>
    <contour>
      <point x="207" y="73" type="curve"/>
      <point x="197" y="52"/>
      <point x="161" y="-35"/>
      <point x="151" y="-58" type="curve"/>
      <point x="238" y="-137"/>
      <point x="151" y="-58"/>
      <point x="238" y="-137" type="curve"/>
      <point x="250" y="-110"/>
      <point x="293" y="-22"/>
      <point x="305" y="5" type="curve"/>
      <point x="207" y="73"/>
      <point x="305" y="5"/>
    </contour>
    <contour>
      <point x="238" y="-137" type="curve"/>
      <point x="244" y="-132"/>
      <point x="248" y="-128"/>
      <point x="255" y="-128" type="curve"/>
      <point x="264" y="-128"/>
      <point x="270" y="-134"/>
      <point x="270" y="-146" type="curve"/>
      <point x="270" y="-161"/>
      <point x="256" y="-168"/>
      <point x="240" y="-168" type="curve"/>
      <point x="222" y="-168"/>
      <point x="207" y="-164"/>
      <point x="191" y="-154" type="curve"/>
      <point x="143" y="-225"/>
      <point x="191" y="-154"/>
      <point x="143" y="-225" type="curve"/>
      <point x="171" y="-245"/>
      <point x="198" y="-252"/>
      <point x="234" y="-252" type="curve"/>
      <point x="301" y="-252"/>
      <point x="347" y="-214"/>
      <point x="347" y="-144" type="curve"/>
      <point x="347" y="-78"/>
      <point x="306" y="-35"/>
      <point x="241" y="-35" type="curve"/>
      <point x="207" y="-35"/>
      <point x="182" y="-40"/>
      <point x="151" y="-58" type="curve"/>
      <point x="238" y="-137"/>
      <point x="151" y="-58"/>
    </contour>
  </outline>
</glyph>
<glyph name="edieresis" format="1">
  <advance width="488"/>
  <unicode hex="00EB"/>
  <outline>
    <contour>
      <point x="106" y="232" type="curve"/>
      <point x="203" y="232"/>
      <point x="300" y="232"/>
      <point x="397" y="232" type="curve"/>
      <point x="451" y="232"/>
      <point x="397" y="232"/>
      <point x="451" y="232" type="curve"/>
      <point x="451" y="274"/>
      <point x="451" y="232"/>
      <point x="451" y="274" type="curve"/>
      <point x="451" y="281"/>
      <point x="451" y="287"/>
      <point x="451" y="293" type="curve"/>
      <point x="451" y="441"/>
      <point x="389" y="538"/>
      <point x="254" y="538" type="curve"/>
      <point x="110" y="538"/>
      <point x="42" y="436"/>
      <point x="42" y="278" type="curve"/>
      <point x="42" y="108"/>
      <point x="114" y="-5"/>
      <point x="270" y="-5" type="curve"/>
      <point x="338" y="-5"/>
      <point x="381" y="23"/>
      <point x="432" y="73" type="curve"/>
      <point x="355" y="143"/>
      <point x="432" y="73"/>
      <point x="355" y="143" type="curve"/>
      <point x="330" y="115"/>
      <point x="307" y="99"/>
      <point x="270" y="99" type="curve"/>
      <point x="183" y="99"/>
      <point x="168" y="178"/>
      <point x="168" y="278" type="curve"/>
      <point x="168" y="365"/>
      <point x="174" y="435"/>
      <point x="249" y="435" type="curve"/>
      <point x="313" y="435"/>
      <point x="330" y="379"/>
      <point x="330" y="303" type="curve"/>
      <point x="330" y="293"/>
      <point x="330" y="284"/>
      <point x="330" y="274" type="curve"/>
      <point x="341" y="285"/>
      <point x="352" y="294"/>
      <point x="362" y="305" type="curve"/>
      <point x="372" y="315"/>
      <point x="387" y="314"/>
      <point x="397" y="325" type="curve"/>
      <point x="300" y="325"/>
      <point x="203" y="325"/>
      <point x="106" y="325" type="curve"/>
      <point x="106" y="227"/>
      <point x="106" y="331"/>
    </contour>
    <contour>
      <point x="233" y="676" type="curve"/>
      <point x="233" y="719"/>
      <point x="204" y="741"/>
      <point x="165" y="741" type="curve"/>
      <point x="126" y="741"/>
      <point x="100" y="718"/>
      <point x="100" y="676" type="curve"/>
      <point x="233" y="676"/>
      <point x="100" y="676"/>
      <point x="233" y="676" type="curve"/>
      <point x="233" y="632"/>
      <point x="205" y="612"/>
      <point x="165" y="612" type="curve"/>
      <point x="125" y="612"/>
      <point x="100" y="634"/>
      <point x="100" y="676" type="curve"/>
      <point x="233" y="676"/>
      <point x="100" y="676"/>
    </contour>
    <contour>
      <point x="417" y="676" type="curve"/>
      <point x="417" y="719"/>
      <point x="389" y="741"/>
      <point x="350" y="741" type="curve"/>
      <point x="310" y="741"/>
      <point x="284" y="718"/>
      <point x="284" y="676" type="curve"/>
      <point x="417" y="676"/>
      <point x="284" y="676"/>
      <point x="417" y="676" type="curve"/>
      <point x="417" y="632"/>
      <point x="390" y="612"/>
      <point x="350" y="612" type="curve"/>
      <point x="309" y="612"/>
      <point x="284" y="634"/>
      <point x="284" y="676" type="curve"/>
      <point x="417" y="676"/>
      <point x="284" y="676"/>
    </contour>
  </outline>
</glyph>
<glyph name="iacute" format="1">
  <advance width="310"/>
  <unicode hex="00ED"/>
  <outline>
    <contour>
      <point x="162" y="98" type="curve"/>
      <point x="27" y="98"/>
      <point x="163" y="98"/>
      <point x="28" y="98" type="curve"/>
      <point x="27" y="0"/>
      <point x="28" y="98"/>
      <point x="27" y="0" type="curve"/>
      <point x="72" y="0"/>
      <point x="116" y="0"/>
      <point x="162" y="0" type="curve"/>
      <point x="162" y="98"/>
      <point x="162" y="0"/>
    </contour>
    <contour>
      <point x="162" y="0" type="curve"/>
      <point x="204" y="0"/>
      <point x="245" y="0"/>
      <point x="288" y="0" type="curve"/>
      <point x="288" y="98"/>
      <point x="288" y="0"/>
      <point x="288" y="98" type="curve"/>
      <point x="160" y="98"/>
      <point x="290" y="98"/>
      <point x="162" y="98" type="curve"/>
      <point x="162" y="0"/>
      <point x="162" y="98"/>
    </contour>
    <contour>
      <point x="162" y="533" type="curve"/>
      <point x="116" y="533"/>
      <point x="72" y="533"/>
      <point x="28" y="533" type="curve"/>
      <point x="27" y="435"/>
      <point x="28" y="533"/>
      <point x="27" y="435" type="curve"/>
      <point x="163" y="435"/>
      <point x="26" y="435"/>
      <point x="162" y="435" type="curve"/>
      <point x="162" y="533"/>
      <point x="162" y="435"/>
    </contour>
    <contour>
      <point x="228" y="0" type="curve"/>
      <point x="228" y="178"/>
      <point x="228" y="355"/>
      <point x="228" y="533" type="curve"/>
      <point x="95" y="533"/>
      <point x="228" y="533"/>
      <point x="95" y="533" type="curve"/>
      <point x="95" y="355"/>
      <point x="95" y="178"/>
      <point x="95" y="0" type="curve"/>
      <point x="228" y="0"/>
      <point x="95" y="0"/>
    </contour>
    <contour>
      <point x="221" y="617" type="line"/>
      <point x="338" y="783" type="line"/>
      <point x="182" y="783" type="line"/>
      <point x="101" y="617" type="line"/>
    </contour>
  </outline>
</glyph>
<glyph name="ntilde" format="1">
  <advance width="575"/>
  <unicode hex="00F1"/>
  <outline>
    <contour>
      <point x="199" y="273" type="curve"/>
      <point x="212" y="355"/>
      <point x="247" y="435"/>
      <point x="305" y="435" type="curve"/>
      <point x="364" y="435"/>
      <point x="373" y="381"/>
      <point x="373" y="312" type="curve"/>
      <point x="373" y="208"/>
      <point x="373" y="104"/>
      <point x="373" y="0" type="curve"/>
      <point x="500" y="0"/>
      <point x="373" y="0"/>
      <point x="500" y="0" type="curve"/>
      <point x="500" y="107"/>
      <point x="500" y="215"/>
      <point x="500" y="322" type="curve"/>
      <point x="500" y="447"/>
      <point x="470" y="538"/>
      <point x="352" y="538" type="curve"/>
      <point x="258" y="538"/>
      <point x="186" y="460"/>
      <point x="163" y="330" type="curve"/>
      <point x="200" y="275"/>
      <point x="161" y="329"/>
    </contour>
    <contour>
      <point x="436" y="0" type="curve"/>
      <point x="481" y="0"/>
      <point x="525" y="0"/>
      <point x="570" y="0" type="curve"/>
      <point x="570" y="98"/>
      <point x="570" y="0"/>
      <point x="570" y="98" type="curve"/>
      <point x="435" y="98"/>
      <point x="571" y="98"/>
      <point x="436" y="98" type="curve"/>
      <point x="436" y="0"/>
      <point x="436" y="98"/>
    </contour>
    <contour>
      <point x="161" y="98" type="curve"/>
      <point x="25" y="98"/>
      <point x="162" y="98"/>
      <point x="26" y="98" type="curve"/>
      <point x="26" y="0"/>
      <point x="26" y="98"/>
      <point x="26" y="0" type="curve"/>
      <point x="71" y="0"/>
      <point x="116" y="0"/>
      <point x="161" y="0" type="curve"/>
      <point x="161" y="98"/>
      <point x="161" y="0"/>
    </contour>
    <contour>
      <point x="161" y="0" type="curve"/>
      <point x="203" y="0"/>
      <point x="159" y="0"/>
      <point x="284" y="0" type="curve"/>
      <point x="284" y="98"/>
      <point x="284" y="0"/>
      <point x="284" y="98" type="curve"/>
      <point x="159" y="98"/>
      <point x="286" y="98"/>
      <point x="161" y="98" type="curve"/>
      <point x="161" y="0"/>
      <point x="161" y="98"/>
    </contour>
    <contour>
      <point x="224" y="0" type="curve"/>
      <point x="224" y="178"/>
      <point x="224" y="355"/>
      <point x="224" y="533" type="curve"/>
      <point x="97" y="533"/>
      <point x="224" y="533"/>
      <point x="97" y="533" type="curve"/>
      <point x="97" y="355"/>
      <point x="97" y="178"/>
      <point x="97" y="0" type="curve"/>
      <point x="224" y="0"/>
      <point x="97" y="0"/>
    </contour>
    <contour>
      <point x="161" y="533" type="curve"/>
      <point x="116" y="533"/>
      <point x="71" y="533"/>
      <point x="26" y="533" type="curve"/>
      <point x="26" y="435"/>
      <point x="26" y="533"/>
      <point x="26" y="435" type="curve"/>
      <point x="162" y="435"/>
      <point x="25" y="435"/>
      <point x="161" y="435" type="curve"/>
      <point x="161" y="533"/>
      <point x="161" y="435"/>
    </contour>
    <contour>
      <point x="396" y="801" type="curve"/>
      <point x="379" y="764"/>
      <point x="368" y="752"/>
      <point x="351" y="752" type="curve"/>
      <point x="325" y="752"/>
      <point x="313" y="760"/>
      <point x="296" y="776" type="curve"/>
      <point x="270" y="797"/>
      <point x="257" y="807"/>
      <point x="227" y="807" type="curve"/>
      <point x="160" y="807"/>
      <point x="128" y="740"/>
      <point x="108" y="676" type="curve"/>
      <point x="202" y="622"/>
      <point x="108" y="677"/>
      <point x="202" y="622" type="curve"/>
      <point x="220" y="664"/>
      <point x="235" y="676"/>
      <point x="256" y="676" type="curve"/>
      <point x="277" y="676"/>
      <point x="287" y="668"/>
      <point x="301" y="654" type="curve"/>
      <point x="330" y="629"/>
      <point x="346" y="616"/>
      <point x="381" y="616" type="curve"/>
      <point x="449" y="616"/>
      <point x="472" y="681"/>
      <point x="496" y="749" type="curve"/>
      <point x="396" y="801"/>
      <point x="496" y="748"/>
    </contour>
  </outline>
</glyph>
<glyph name="ugrave" format="1">
  <advance width="585"/>
  <unicode hex="00F9"/>
  <outline>
    <contour>
      <point x="424" y="533" type="curve"/>
      <point x="379" y="533"/>
      <point x="335" y="533"/>
      <point x="290" y="533" type="curve"/>
      <point x="290" y="435"/>
      <point x="290" y="533"/>
      <point x="290" y="435" type="curve"/>
      <point x="426" y="435"/>
      <point x="289" y="435"/>
      <point x="424" y="435" type="curve"/>
      <point x="424" y="533"/>
      <point x="424" y="435"/>
    </contour>
    <contour>
      <point x="153" y="533" type="curve"/>
      <point x="108" y="533"/>
      <point x="62" y="533"/>
      <point x="18" y="533" type="curve"/>
      <point x="18" y="435"/>
      <point x="18" y="533"/>
      <point x="18" y="435" type="curve"/>
      <point x="154" y="435"/>
      <point x="17" y="435"/>
      <point x="153" y="435" type="curve"/>
      <point x="153" y="533"/>
      <point x="153" y="435"/>
    </contour>
    <contour>
      <point x="424" y="0" type="curve"/>
      <point x="467" y="0"/>
      <point x="508" y="0"/>
      <point x="550" y="0" type="curve"/>
      <point x="550" y="98"/>
      <point x="550" y="0"/>
      <point x="550" y="98" type="curve"/>
      <point x="423" y="98"/>
      <point x="551" y="98"/>
      <point x="424" y="98" type="curve"/>
      <point x="424" y="0"/>
      <point x="424" y="98"/>
    </contour>
    <contour>
      <point x="488" y="0" type="curve"/>
      <point x="488" y="178"/>
      <point x="488" y="355"/>
      <point x="488" y="533" type="curve"/>
      <point x="360" y="533"/>
      <point x="488" y="533"/>
      <point x="360" y="533" type="curve"/>
      <point x="360" y="355"/>
      <point x="360" y="178"/>
      <point x="360" y="0" type="curve"/>
      <point x="488" y="0"/>
      <point x="360" y="0"/>
    </contour>
    <contour>
      <point x="385" y="220" type="curve"/>
      <point x="363" y="167"/>
      <point x="335" y="99"/>
      <point x="282" y="99" type="curve"/>
      <point x="224" y="99"/>
      <point x="216" y="150"/>
      <point x="216" y="215" type="curve"/>
      <point x="216" y="321"/>
      <point x="216" y="427"/>
      <point x="216" y="533" type="curve"/>
      <point x="89" y="533"/>
      <point x="216" y="533"/>
      <point x="89" y="533" type="curve"/>
      <point x="89" y="425"/>
      <point x="89" y="317"/>
      <point x="89" y="210" type="curve"/>
      <point x="89" y="82"/>
      <point x="133" y="-5"/>
      <point x="263" y="-5" type="curve"/>
      <point x="349" y="-5"/>
      <point x="400" y="79"/>
      <point x="430" y="178" type="curve"/>
      <point x="384" y="220"/>
      <point x="431" y="179"/>
    </contour>
    <contour>
      <point x="328" y="619" type="line"/>
      <point x="246" y="785" type="line"/>
      <point x="90" y="785" type="line"/>
      <point x="207" y="619" type="line"/>
    </contour>
  </outline>
</glyph>
<glyph name="Dcaron" format="1">
  <advance width="682"/>
  <unicode hex="010E"/>
  <outline>
    <contour>
      <point x="194" y="98" type="curve"/>
      <point x="57" y="98"/>
      <point x="196" y="98"/>
      <point x="60" y="98" type="curve"/>
      <point x="60" y="0"/>
      <point x="60" y="98"/>
      <point x="60" y="0" type="curve"/>
      <point x="106" y="0"/>
      <point x="149" y="0"/>
      <point x="194" y="0" type="curve"/>
      <point x="194" y="98"/>
      <point x="194" y="0"/>
    </contour>
    <contour>
      <point x="194" y="722" type="curve"/>
      <point x="149" y="722"/>
      <point x="106" y="722"/>
      <point x="60" y="722" type="curve"/>
      <point x="60" y="624"/>
      <point x="60" y="722"/>
      <point x="60" y="624" type="curve"/>
      <point x="196" y="624"/>
      <point x="57" y="624"/>
      <point x="194" y="624" type="curve"/>
      <point x="194" y="722"/>
      <point x="194" y="624"/>
    </contour>
    <contour>
      <point x="129" y="722" type="curve"/>
      <point x="129" y="481"/>
      <point x="129" y="241"/>
      <point x="129" y="0" type="curve"/>
      <point x="256" y="0"/>
      <point x="129" y="0"/>
      <point x="256" y="0" type="curve"/>
      <point x="256" y="241"/>
      <point x="256" y="481"/>
      <point x="256" y="722" type="curve"/>
      <point x="129" y="722"/>
      <point x="256" y="722"/>
    </contour>
    <contour>
      <point x="194" y="0" type="curve"/>
      <point x="241" y="0"/>
      <point x="287" y="0"/>
      <point x="335" y="0" type="curve"/>
      <point x="541" y="0"/>
      <point x="632" y="137"/>
      <point x="632" y="354" type="curve"/>
      <point x="632" y="579"/>
      <point x="543" y="722"/>
      <point x="332" y="722" type="curve"/>
      <point x="286" y="722"/>
      <point x="241" y="722"/>
      <point x="194" y="722" type="curve"/>
      <point x="194" y="625"/>
      <point x="194" y="720"/>
      <point x="194" y="624" type="curve"/>
      <point x="239" y="624"/>
      <point x="282" y="624"/>
      <point x="327" y="624" type="curve"/>
      <point x="468" y="624"/>
      <point x="504" y="510"/>
      <point x="504" y="352" type="curve"/>
      <point x="504" y="206"/>
      <point x="474" y="98"/>
      <point x="347" y="98" type="curve"/>
      <point x="295" y="98"/>
      <point x="246" y="98"/>
      <point x="194" y="98" type="curve"/>
      <point x="194" y="2"/>
      <point x="194" y="97"/>
    </contour>
    <contour>
      <point x="372" y="953" type="line"/>
      <point x="254" y="787" type="line"/>
      <point x="410" y="787" type="line"/>
      <point x="492" y="953" type="line"/>
    </contour>
    <contour>
      <point x="124" y="953" type="line"/>
      <point x="205" y="787" type="line"/>
      <point x="361" y="787" type="line"/>
      <point x="244" y="953" type="line"/>
    </contour>
  </outline>
</glyph>
<glyph name="Dcroat" format="1">
  <advance width="682"/>
  <unicode hex="0110"/>
  <outline>
    <contour>
      <point x="195" y="98" type="curve"/>
      <point x="58" y="98"/>
      <point x="197" y="98"/>
      <point x="61" y="98" type="curve"/>
      <point x="61" y="0"/>
      <point x="61" y="98"/>
      <point x="61" y="0" type="curve"/>
      <point x="107" y="0"/>
      <point x="150" y="0"/>
      <point x="195" y="0" type="curve"/>
      <point x="195" y="98"/>
      <point x="195" y="0"/>
    </contour>
    <contour>
      <point x="195" y="722" type="curve"/>
      <point x="150" y="722"/>
      <point x="107" y="722"/>
      <point x="61" y="722" type="curve"/>
      <point x="61" y="624"/>
      <point x="61" y="722"/>
      <point x="61" y="624" type="curve"/>
      <point x="197" y="624"/>
      <point x="58" y="624"/>
      <point x="195" y="624" type="curve"/>
      <point x="195" y="722"/>
      <point x="195" y="624"/>
    </contour>
    <contour>
      <point x="130" y="722" type="curve"/>
      <point x="130" y="481"/>
      <point x="130" y="241"/>
      <point x="130" y="0" type="curve"/>
      <point x="257" y="0"/>
      <point x="130" y="0"/>
      <point x="257" y="0" type="curve"/>
      <point x="257" y="241"/>
      <point x="257" y="481"/>
      <point x="257" y="722" type="curve"/>
      <point x="130" y="722"/>
      <point x="257" y="722"/>
    </contour>
    <contour>
      <point x="195" y="0" type="curve"/>
      <point x="242" y="0"/>
      <point x="288" y="0"/>
      <point x="336" y="0" type="curve"/>
      <point x="542" y="0"/>
      <point x="632" y="137"/>
      <point x="632" y="354" type="curve"/>
      <point x="632" y="579"/>
      <point x="544" y="722"/>
      <point x="333" y="722" type="curve"/>
      <point x="287" y="722"/>
      <point x="242" y="722"/>
      <point x="195" y="722" type="curve"/>
      <point x="195" y="625"/>
      <point x="195" y="720"/>
      <point x="195" y="624" type="curve"/>
      <point x="240" y="624"/>
      <point x="282" y="624"/>
      <point x="328" y="624" type="curve"/>
      <point x="469" y="624"/>
      <point x="505" y="510"/>
      <point x="505" y="352" type="curve"/>
      <point x="505" y="206"/>
      <point x="475" y="98"/>
      <point x="348" y="98" type="curve"/>
      <point x="296" y="98"/>
      <point x="247" y="98"/>
      <point x="195" y="98" type="curve"/>
      <point x="195" y="2"/>
      <point x="195" y="97"/>
    </contour>
    <contour>
      <point x="86" y="307" type="curve"/>
      <point x="177" y="307"/>
      <point x="269" y="307"/>
      <point x="360" y="307" type="curve"/>
      <point x="360" y="415"/>
      <point x="360" y="307"/>
      <point x="360" y="415" type="curve"/>
      <point x="269" y="415"/>
      <point x="177" y="415"/>
      <point x="86" y="415" type="curve"/>
      <point x="86" y="307"/>
      <point x="86" y="415"/>
    </contour>
  </outline>
</glyph>
<glyph name="Gcommaaccent" format="1">
  <advance width="654"/>
  <unicode hex="0122"/>
  <outline>
    <contour>
      <point x="482" y="645" type="curve"/>
      <point x="482" y="507"/>
      <point x="482" y="646"/>
      <point x="482" y="509" type="curve"/>
      <point x="582" y="509"/>
      <point x="482" y="509"/>
      <point x="582" y="509" type="curve"/>
      <point x="582" y="646"/>
      <point x="582" y="507"/>
      <point x="582" y="645" type="curve"/>
      <point x="482" y="645"/>
      <point x="582" y="645"/>
    </contour>
    <contour>
      <point x="560" y="363" type="curve"/>
      <point x="506" y="363"/>
      <point x="451" y="363"/>
      <point x="397" y="363" type="curve"/>
      <point x="397" y="265"/>
      <point x="397" y="363"/>
      <point x="397" y="265" type="curve"/>
      <point x="451" y="265"/>
      <point x="506" y="265"/>
      <point x="560" y="265" type="curve"/>
      <point x="560" y="363"/>
      <point x="560" y="265"/>
    </contour>
    <contour>
      <point x="594" y="79" type="curve"/>
      <point x="594" y="174"/>
      <point x="594" y="268"/>
      <point x="594" y="363" type="curve"/>
      <point x="478" y="363"/>
      <point x="594" y="363"/>
      <point x="478" y="363" type="curve"/>
      <point x="478" y="268"/>
      <point x="478" y="174"/>
      <point x="478" y="79" type="curve"/>
      <point x="594" y="79"/>
      <point x="478" y="79"/>
    </contour>
    <contour>
      <point x="582" y="645" type="curve"/>
      <point x="510" y="701"/>
      <point x="439" y="727"/>
      <point x="348" y="727" type="curve"/>
      <point x="146" y="727"/>
      <point x="49" y="579"/>
      <point x="49" y="361" type="curve"/>
      <point x="49" y="141"/>
      <point x="152" y="-5"/>
      <point x="356" y="-5" type="curve"/>
      <point x="453" y="-5"/>
      <point x="514" y="24"/>
      <point x="594" y="79" type="curve"/>
      <point x="530" y="153"/>
      <point x="594" y="79"/>
      <point x="530" y="153" type="curve"/>
      <point x="475" y="115"/>
      <point x="426" y="99"/>
      <point x="356" y="99" type="curve"/>
      <point x="220" y="99"/>
      <point x="177" y="215"/>
      <point x="177" y="370" type="curve"/>
      <point x="177" y="514"/>
      <point x="221" y="624"/>
      <point x="348" y="624" type="curve"/>
      <point x="415" y="624"/>
      <point x="465" y="602"/>
      <point x="518" y="561" type="curve"/>
      <point x="582" y="645"/>
      <point x="518" y="561"/>
    </contour>
    <contour>
      <point x="264" y="-368" type="line"/>
      <point x="351" y="-365"/>
      <point x="409" y="-301"/>
      <point x="409" y="-202" type="curve"/>
      <point x="409" y="-122"/>
      <point x="380" y="-79"/>
      <point x="336" y="-79" type="curve"/>
      <point x="297" y="-79"/>
      <point x="270" y="-102"/>
      <point x="270" y="-144" type="curve"/>
      <point x="270" y="-179"/>
      <point x="289" y="-205"/>
      <point x="324" y="-206" type="curve"/>
      <point x="324" y="-232"/>
      <point x="321" y="-285"/>
      <point x="262" y="-298" type="curve"/>
    </contour>
  </outline>
</glyph>
<glyph name="imacron" format="1">
  <advance width="322"/>
  <unicode hex="012B"/>
  <outline>
    <contour>
      <point x="169" y="98" type="curve"/>
      <point x="34" y="98"/>
      <point x="170" y="98"/>
      <point x="35" y="98" type="curve"/>
      <point x="34" y="0"/>
      <point x="35" y="98"/>
      <point x="34" y="0" type="curve"/>
      <point x="79" y="0"/>
      <point x="123" y="0"/>
      <point x="169" y="0" type="curve"/>
      <point x="169" y="98"/>
      <point x="169" y="0"/>
    </contour>
    <contour>
      <point x="169" y="0" type="curve"/>
      <point x="211" y="0"/>
      <point x="252" y="0"/>
      <point x="295" y="0" type="curve"/>
      <point x="295" y="98"/>
      <point x="295" y="0"/>
      <point x="295" y="98" type="curve"/>
      <point x="167" y="98"/>
      <point x="296" y="98"/>
      <point x="169" y="98" type="curve"/>
      <point x="169" y="0"/>
      <point x="169" y="98"/>
    </contour>
    <contour>
      <point x="169" y="533" type="curve"/>
      <point x="123" y="533"/>
      <point x="79" y="533"/>
      <point x="35" y="533" type="curve"/>
      <point x="34" y="435"/>
      <point x="35" y="533"/>
      <point x="34" y="435" type="curve"/>
      <point x="170" y="435"/>
      <point x="33" y="435"/>
      <point x="169" y="435" type="curve"/>
      <point x="169" y="533"/>
      <point x="169" y="435"/>
    </contour>
    <contour>
      <point x="235" y="0" type="curve"/>
      <point x="235" y="178"/>
      <point x="235" y="355"/>
      <point x="235" y="533" type="curve"/>
      <point x="102" y="533"/>
      <point x="235" y="533"/>
      <point x="102" y="533" type="curve"/>
      <point x="102" y="355"/>
      <point x="102" y="178"/>
      <point x="102" y="0" type="curve"/>
      <point x="235" y="0"/>
      <point x="102" y="0"/>
    </contour>
    <contour>
      <point x="254" y="716" type="curve"/>
      <point x="199" y="716"/>
      <point x="142" y="716"/>
      <point x="87" y="716" type="curve"/>
      <point x="87" y="618"/>
      <point x="87" y="716"/>
      <point x="87" y="618" type="curve"/>
      <point x="142" y="618"/>
      <point x="199" y="618"/>
      <point x="254" y="618" type="curve"/>
      <point x="254" y="716"/>
      <point x="254" y="618"/>
    </contour>
  </outline>
</glyph>
<glyph name="Lacute" format="1">
  <advance width="505"/>
  <unicode hex="0139"/>
  <outline>
    <contour>
      <point x="486" y="49" type="curve"/>
      <point x="486" y="169"/>
      <point x="486" y="48"/>
      <point x="486" y="168" type="curve"/>
      <point x="386" y="168"/>
      <point x="486" y="168"/>
      <point x="386" y="168" type="curve"/>
      <point x="386" y="48"/>
      <point x="386" y="169"/>
      <point x="386" y="49" type="curve"/>
      <point x="486" y="49"/>
      <point x="386" y="49"/>
    </contour>
    <contour>
      <point x="173" y="98" type="curve"/>
      <point x="36" y="98"/>
      <point x="175" y="98"/>
      <point x="39" y="98" type="curve"/>
      <point x="38" y="0"/>
      <point x="39" y="98"/>
      <point x="38" y="0" type="curve"/>
      <point x="84" y="0"/>
      <point x="127" y="0"/>
      <point x="173" y="0" type="curve"/>
      <point x="173" y="98"/>
      <point x="173" y="0"/>
    </contour>
    <contour>
      <point x="173" y="722" type="curve"/>
      <point x="127" y="722"/>
      <point x="84" y="722"/>
      <point x="39" y="722" type="curve"/>
      <point x="38" y="624"/>
      <point x="39" y="722"/>
      <point x="38" y="624" type="curve"/>
      <point x="175" y="624"/>
      <point x="35" y="624"/>
      <point x="173" y="624" type="curve"/>
      <point x="173" y="722"/>
      <point x="173" y="624"/>
    </contour>
    <contour>
      <point x="173" y="624" type="curve"/>
      <point x="309" y="624"/>
      <point x="170" y="624"/>
      <point x="306" y="624" type="curve"/>
      <point x="306" y="722"/>
      <point x="306" y="624"/>
      <point x="306" y="722" type="curve"/>
      <point x="261" y="722"/>
      <point x="218" y="722"/>
      <point x="173" y="722" type="curve"/>
      <point x="173" y="624"/>
      <point x="173" y="722"/>
    </contour>
    <contour>
      <point x="237" y="0" type="curve"/>
      <point x="237" y="241"/>
      <point x="237" y="481"/>
      <point x="237" y="722" type="curve"/>
      <point x="110" y="722"/>
      <point x="237" y="722"/>
      <point x="110" y="722" type="curve"/>
      <point x="110" y="481"/>
      <point x="110" y="241"/>
      <point x="110" y="0" type="curve"/>
      <point x="237" y="0"/>
      <point x="110" y="0"/>
    </contour>
    <contour>
      <point x="173" y="0" type="curve"/>
      <point x="277" y="0"/>
      <point x="382" y="0"/>
      <point x="486" y="0" type="curve"/>
      <point x="486" y="98"/>
      <point x="486" y="0"/>
      <point x="486" y="98" type="curve"/>
      <point x="382" y="98"/>
      <point x="277" y="98"/>
      <point x="173" y="98" type="curve"/>
      <point x="173" y="0"/>
      <point x="173" y="98"/>
    </contour>
    <contour>
      <point x="230" y="785" type="line"/>
      <point x="347" y="951" type="line"/>
      <point x="191" y="951" type="line"/>
      <point x="110" y="785" type="line"/>
    </contour>
  </outline>
</glyph>
<glyph name="lacute" format="1">
  <advance width="306"/>
  <unicode hex="013A"/>
  <outline>
    <contour>
      <point x="153" y="98" type="curve"/>
      <point x="18" y="98"/>
      <point x="153" y="98"/>
      <point x="18" y="98" type="curve"/>
      <point x="18" y="0"/>
      <point x="18" y="98"/>
      <point x="18" y="0" type="curve"/>
      <point x="63" y="0"/>
      <point x="107" y="0"/>
      <point x="153" y="0" type="curve"/>
      <point x="153" y="99"/>
      <point x="153" y="-1"/>
    </contour>
    <contour>
      <point x="154" y="800" type="curve"/>
      <point x="109" y="800"/>
      <point x="64" y="800"/>
      <point x="19" y="800" type="curve"/>
      <point x="19" y="702"/>
      <point x="19" y="800"/>
      <point x="19" y="702" type="curve"/>
      <point x="154" y="701"/>
      <point x="19" y="702"/>
      <point x="154" y="701" type="curve"/>
      <point x="154" y="799"/>
      <point x="154" y="702"/>
    </contour>
    <contour>
      <point x="153" y="0" type="curve"/>
      <point x="198" y="0"/>
      <point x="243" y="0"/>
      <point x="288" y="0" type="curve"/>
      <point x="288" y="98"/>
      <point x="288" y="0"/>
      <point x="288" y="98" type="curve"/>
      <point x="153" y="98"/>
      <point x="288" y="98"/>
      <point x="153" y="98" type="curve"/>
      <point x="153" y="-1"/>
      <point x="153" y="99"/>
    </contour>
    <contour>
      <point x="216" y="0" type="curve"/>
      <point x="216" y="267"/>
      <point x="216" y="533"/>
      <point x="216" y="800" type="curve"/>
      <point x="88" y="800"/>
      <point x="216" y="800"/>
      <point x="88" y="800" type="curve"/>
      <point x="88" y="533"/>
      <point x="88" y="267"/>
      <point x="88" y="0" type="curve"/>
      <point x="216" y="0"/>
      <point x="88" y="0"/>
    </contour>
    <contour>
      <point x="212" y="882" type="line"/>
      <point x="329" y="1048" type="line"/>
      <point x="173" y="1048" type="line"/>
      <point x="92" y="882" type="line"/>
    </contour>
  </outline>
</glyph>
<glyph name="Lcommaaccent" format="1">
  <advance width="505"/>
  <unicode hex="013B"/>
  <outline>
    <contour>
      <point x="486" y="49" type="curve"/>
      <point x="486" y="169"/>
      <point x="486" y="48"/>
      <point x="486" y="168" type="curve"/>
      <point x="386" y="168"/>
      <point x="486" y="168"/>
      <point x="386" y="168" type="curve"/>
      <point x="386" y="48"/>
      <point x="386" y="169"/>
      <point x="386" y="49" type="curve"/>
      <point x="486" y="49"/>
      <point x="386" y="49"/>
    </contour>
    <contour>
      <point x="173" y="98" type="curve"/>
      <point x="36" y="98"/>
      <point x="175" y="98"/>
      <point x="39" y="98" type="curve"/>
      <point x="38" y="0"/>
      <point x="39" y="98"/>
      <point x="38" y="0" type="curve"/>
      <point x="84" y="0"/>
      <point x="127" y="0"/>
      <point x="173" y="0" type="curve"/>
      <point x="173" y="98"/>
      <point x="173" y="0"/>
    </contour>
    <contour>
      <point x="173" y="722" type="curve"/>
      <point x="127" y="722"/>
      <point x="84" y="722"/>
      <point x="39" y="722" type="curve"/>
      <point x="38" y="624"/>
      <point x="39" y="722"/>
      <point x="38" y="624" type="curve"/>
      <point x="175" y="624"/>
      <point x="35" y="624"/>
      <point x="173" y="624" type="curve"/>
      <point x="173" y="722"/>
      <point x="173" y="624"/>
    </contour>
    <contour>
      <point x="173" y="624" type="curve"/>
      <point x="309" y="624"/>
      <point x="170" y="624"/>
      <point x="306" y="624" type="curve"/>
      <point x="306" y="722"/>
      <point x="306" y="624"/>
      <point x="306" y="722" type="curve"/>
      <point x="261" y="722"/>
      <point x="218" y="722"/>
      <point x="173" y="722" type="curve"/>
      <point x="173" y="624"/>
      <point x="173" y="722"/>
    </contour>
    <contour>
      <point x="237" y="0" type="curve"/>
      <point x="237" y="241"/>
      <point x="237" y="481"/>
      <point x="237" y="722" type="curve"/>
      <point x="110" y="722"/>
      <point x="237" y="722"/>
      <point x="110" y="722" type="curve"/>
      <point x="110" y="481"/>
      <point x="110" y="241"/>
      <point x="110" y="0" type="curve"/>
      <point x="237" y="0"/>
      <point x="110" y="0"/>
    </contour>
    <contour>
      <point x="173" y="0" type="curve"/>
      <point x="277" y="0"/>
      <point x="382" y="0"/>
      <point x="486" y="0" type="curve"/>
      <point x="486" y="98"/>
      <point x="486" y="0"/>
      <point x="486" y="98" type="curve"/>
      <point x="382" y="98"/>
      <point x="277" y="98"/>
      <point x="173" y="98" type="curve"/>
      <point x="173" y="0"/>
      <point x="173" y="98"/>
    </contour>
    <contour>
      <point x="194" y="-365" type="line"/>
      <point x="281" y="-361"/>
      <point x="339" y="-297"/>
      <point x="339" y="-198" type="curve"/>
      <point x="339" y="-118"/>
      <point x="309" y="-76"/>
      <point x="266" y="-76" type="curve"/>
      <point x="226" y="-76"/>
      <point x="200" y="-98"/>
      <point x="200" y="-141" type="curve"/>
      <point x="200" y="-175"/>
      <point x="219" y="-202"/>
      <point x="254" y="-203" type="curve"/>
      <point x="254" y="-229"/>
      <point x="251" y="-281"/>
      <point x="192" y="-295" type="curve"/>
    </contour>
  </outline>
</glyph>
<glyph name="lcommaaccent" format="1">
  <advance width="305"/>
  <unicode hex="013C"/>
  <outline>
    <contour>
      <point x="153" y="98" type="curve"/>
      <point x="18" y="98"/>
      <point x="153" y="98"/>
      <point x="18" y="98" type="curve"/>
      <point x="18" y="0"/>
      <point x="18" y="98"/>
      <point x="18" y="0" type="curve"/>
      <point x="63" y="0"/>
      <point x="107" y="0"/>
      <point x="153" y="0" type="curve"/>
      <point x="153" y="99"/>
      <point x="153" y="-1"/>
    </contour>
    <contour>
      <point x="154" y="800" type="curve"/>
      <point x="109" y="800"/>
      <point x="64" y="800"/>
      <point x="19" y="800" type="curve"/>
      <point x="19" y="702"/>
      <point x="19" y="800"/>
      <point x="19" y="702" type="curve"/>
      <point x="154" y="701"/>
      <point x="19" y="702"/>
      <point x="154" y="701" type="curve"/>
      <point x="154" y="799"/>
      <point x="154" y="702"/>
    </contour>
    <contour>
      <point x="153" y="0" type="curve"/>
      <point x="198" y="0"/>
      <point x="243" y="0"/>
      <point x="288" y="0" type="curve"/>
      <point x="288" y="98"/>
      <point x="288" y="0"/>
      <point x="288" y="98" type="curve"/>
      <point x="153" y="98"/>
      <point x="288" y="98"/>
      <point x="153" y="98" type="curve"/>
      <point x="153" y="-1"/>
      <point x="153" y="99"/>
    </contour>
    <contour>
      <point x="216" y="0" type="curve"/>
      <point x="216" y="267"/>
      <point x="216" y="533"/>
      <point x="216" y="800" type="curve"/>
      <point x="88" y="800"/>
      <point x="216" y="800"/>
      <point x="88" y="800" type="curve"/>
      <point x="88" y="533"/>
      <point x="88" y="267"/>
      <point x="88" y="0" type="curve"/>
      <point x="216" y="0"/>
      <point x="88" y="0"/>
    </contour>
    <contour>
      <point x="80" y="-366" type="line"/>
      <point x="167" y="-363"/>
      <point x="225" y="-299"/>
      <point x="225" y="-200" type="curve"/>
      <point x="225" y="-120"/>
      <point x="195" y="-78"/>
      <point x="152" y="-78" type="curve"/>
      <point x="113" y="-78"/>
      <point x="86" y="-100"/>
      <point x="86" y="-143" type="curve"/>
      <point x="86" y="-177"/>
      <point x="105" y="-204"/>
      <point x="140" y="-204" type="curve"/>
      <point x="140" y="-231"/>
      <point x="137" y="-283"/>
      <point x="78" y="-296" type="curve"/>
    </contour>
  </outline>
</glyph>
<glyph name="Lcaron" format="1">
  <advance width="522"/>
  <unicode hex="013D"/>
  <outline>
    <contour>
      <point x="486" y="49" type="curve"/>
      <point x="486" y="169"/>
      <point x="486" y="48"/>
      <point x="486" y="168" type="curve"/>
      <point x="386" y="168"/>
      <point x="486" y="168"/>
      <point x="386" y="168" type="curve"/>
      <point x="386" y="48"/>
      <point x="386" y="169"/>
      <point x="386" y="49" type="curve"/>
      <point x="486" y="49"/>
      <point x="386" y="49"/>
    </contour>
    <contour>
      <point x="173" y="98" type="curve"/>
      <point x="36" y="98"/>
      <point x="175" y="98"/>
      <point x="39" y="98" type="curve"/>
      <point x="38" y="0"/>
      <point x="39" y="98"/>
      <point x="38" y="0" type="curve"/>
      <point x="84" y="0"/>
      <point x="127" y="0"/>
      <point x="173" y="0" type="curve"/>
      <point x="173" y="98"/>
      <point x="173" y="0"/>
    </contour>
    <contour>
      <point x="173" y="722" type="curve"/>
      <point x="127" y="722"/>
      <point x="84" y="722"/>
      <point x="39" y="722" type="curve"/>
      <point x="38" y="624"/>
      <point x="39" y="722"/>
      <point x="38" y="624" type="curve"/>
      <point x="175" y="624"/>
      <point x="35" y="624"/>
      <point x="173" y="624" type="curve"/>
      <point x="173" y="722"/>
      <point x="173" y="624"/>
    </contour>
    <contour>
      <point x="173" y="624" type="curve"/>
      <point x="309" y="624"/>
      <point x="170" y="624"/>
      <point x="306" y="624" type="curve"/>
      <point x="306" y="722"/>
      <point x="306" y="624"/>
      <point x="306" y="722" type="curve"/>
      <point x="261" y="722"/>
      <point x="218" y="722"/>
      <point x="173" y="722" type="curve"/>
      <point x="173" y="624"/>
      <point x="173" y="722"/>
    </contour>
    <contour>
      <point x="237" y="0" type="curve"/>
      <point x="237" y="241"/>
      <point x="237" y="481"/>
      <point x="237" y="722" type="curve"/>
      <point x="110" y="722"/>
      <point x="237" y="722"/>
      <point x="110" y="722" type="curve"/>
      <point x="110" y="481"/>
      <point x="110" y="241"/>
      <point x="110" y="0" type="curve"/>
      <point x="237" y="0"/>
      <point x="110" y="0"/>
    </contour>
    <contour>
      <point x="173" y="0" type="curve"/>
      <point x="277" y="0"/>
      <point x="382" y="0"/>
      <point x="486" y="0" type="curve"/>
      <point x="486" y="98"/>
      <point x="486" y="0"/>
      <point x="486" y="98" type="curve"/>
      <point x="382" y="98"/>
      <point x="277" y="98"/>
      <point x="173" y="98" type="curve"/>
      <point x="173" y="0"/>
      <point x="173" y="98"/>
    </contour>
    <contour>
      <point x="426" y="496" type="line"/>
      <point x="513" y="499"/>
      <point x="571" y="563"/>
      <point x="571" y="662" type="curve"/>
      <point x="571" y="742"/>
      <point x="541" y="784"/>
      <point x="498" y="784" type="curve"/>
      <point x="458" y="784"/>
      <point x="432" y="762"/>
      <point x="432" y="719" type="curve"/>
      <point x="432" y="685"/>
      <point x="451" y="658"/>
      <point x="486" y="657" type="curve"/>
      <point x="486" y="631"/>
      <point x="483" y="579"/>
      <point x="423" y="565" type="curve"/>
    </contour>
  </outline>
</glyph>
<glyph name="lcaron" format="1">
  <advance width="342"/>
  <unicode hex="013E"/>
  <outline>
    <contour>
      <point x="153" y="98" type="curve"/>
      <point x="18" y="98"/>
      <point x="153" y="98"/>
      <point x="18" y="98" type="curve"/>
      <point x="18" y="0"/>
      <point x="18" y="98"/>
      <point x="18" y="0" type="curve"/>
      <point x="63" y="0"/>
      <point x="107" y="0"/>
      <point x="153" y="0" type="curve"/>
      <point x="153" y="99"/>
      <point x="153" y="-1"/>
    </contour>
    <contour>
      <point x="154" y="800" type="curve"/>
      <point x="109" y="800"/>
      <point x="64" y="800"/>
      <point x="19" y="800" type="curve"/>
      <point x="19" y="702"/>
      <point x="19" y="800"/>
      <point x="19" y="702" type="curve"/>
      <point x="154" y="701"/>
      <point x="19" y="702"/>
      <point x="154" y="701" type="curve"/>
      <point x="154" y="799"/>
      <point x="154" y="702"/>
    </contour>
    <contour>
      <point x="153" y="0" type="curve"/>
      <point x="198" y="0"/>
      <point x="243" y="0"/>
      <point x="288" y="0" type="curve"/>
      <point x="288" y="98"/>
      <point x="288" y="0"/>
      <point x="288" y="98" type="curve"/>
      <point x="153" y="98"/>
      <point x="288" y="98"/>
      <point x="153" y="98" type="curve"/>
      <point x="153" y="-1"/>
      <point x="153" y="99"/>
    </contour>
    <contour>
      <point x="216" y="0" type="curve"/>
      <point x="216" y="267"/>
      <point x="216" y="533"/>
      <point x="216" y="800" type="curve"/>
      <point x="88" y="800"/>
      <point x="216" y="800"/>
      <point x="88" y="800" type="curve"/>
      <point x="88" y="533"/>
      <point x="88" y="267"/>
      <point x="88" y="0" type="curve"/>
      <point x="216" y="0"/>
      <point x="88" y="0"/>
    </contour>
    <contour>
      <point x="361" y="575" type="line"/>
      <point x="449" y="578"/>
      <point x="507" y="643"/>
      <point x="507" y="742" type="curve"/>
      <point x="507" y="822"/>
      <point x="477" y="864"/>
      <point x="434" y="864" type="curve"/>
      <point x="395" y="864"/>
      <point x="368" y="841"/>
      <point x="368" y="799" type="curve"/>
      <point x="368" y="765"/>
      <point x="386" y="738"/>
      <point x="422" y="737" type="curve"/>
      <point x="422" y="711"/>
      <point x="419" y="659"/>
      <point x="359" y="645" type="curve"/>
    </contour>
  </outline>
</glyph>
<glyph name="Ncommaaccent" format="1">
  <advance width="732"/>
  <unicode hex="0145"/>
  <outline>
    <contour>
      <point x="170" y="722" type="curve"/>
      <point x="125" y="722"/>
      <point x="83" y="722"/>
      <point x="39" y="722" type="curve"/>
      <point x="39" y="624"/>
      <point x="39" y="722"/>
      <point x="39" y="624" type="curve"/>
      <point x="173" y="624"/>
      <point x="37" y="624"/>
      <point x="170" y="624" type="curve"/>
      <point x="170" y="722"/>
      <point x="170" y="624"/>
    </contour>
    <contour>
      <point x="572" y="624" type="curve"/>
      <point x="704" y="624"/>
      <point x="569" y="624"/>
      <point x="701" y="624" type="curve"/>
      <point x="701" y="722"/>
      <point x="701" y="624"/>
      <point x="701" y="722" type="curve"/>
      <point x="656" y="722"/>
      <point x="615" y="722"/>
      <point x="572" y="722" type="curve"/>
      <point x="572" y="624"/>
      <point x="572" y="722"/>
    </contour>
    <contour>
      <point x="572" y="722" type="curve"/>
      <point x="529" y="722"/>
      <point x="488" y="722"/>
      <point x="446" y="722" type="curve"/>
      <point x="446" y="624"/>
      <point x="446" y="722"/>
      <point x="446" y="624" type="curve"/>
      <point x="574" y="624"/>
      <point x="443" y="624"/>
      <point x="572" y="624" type="curve"/>
      <point x="572" y="722"/>
      <point x="572" y="624"/>
    </contour>
    <contour>
      <point x="169" y="98" type="curve"/>
      <point x="36" y="98"/>
      <point x="172" y="98"/>
      <point x="39" y="98" type="curve"/>
      <point x="38" y="0"/>
      <point x="39" y="98"/>
      <point x="38" y="0" type="curve"/>
      <point x="82" y="0"/>
      <point x="124" y="0"/>
      <point x="169" y="0" type="curve"/>
      <point x="169" y="98"/>
      <point x="169" y="0"/>
    </contour>
    <contour>
      <point x="169" y="0" type="curve"/>
      <point x="211" y="0"/>
      <point x="167" y="0"/>
      <point x="294" y="0" type="curve"/>
      <point x="294" y="98"/>
      <point x="294" y="0"/>
      <point x="294" y="98" type="curve"/>
      <point x="167" y="98"/>
      <point x="297" y="98"/>
      <point x="169" y="98" type="curve"/>
      <point x="169" y="0"/>
      <point x="169" y="98"/>
    </contour>
    <contour>
      <point x="635" y="0" type="curve"/>
      <point x="502" y="241"/>
      <point x="369" y="481"/>
      <point x="237" y="722" type="curve"/>
      <point x="105" y="722"/>
      <point x="237" y="722"/>
      <point x="105" y="722" type="curve"/>
      <point x="237" y="481"/>
      <point x="370" y="241"/>
      <point x="503" y="0" type="curve"/>
      <point x="635" y="0"/>
      <point x="503" y="0"/>
    </contour>
    <contour>
      <point x="507" y="722" type="curve"/>
      <point x="507" y="481"/>
      <point x="507" y="241"/>
      <point x="507" y="0" type="curve"/>
      <point x="634" y="0"/>
      <point x="507" y="0"/>
      <point x="634" y="0" type="curve"/>
      <point x="634" y="241"/>
      <point x="634" y="481"/>
      <point x="634" y="722" type="curve"/>
      <point x="507" y="722"/>
      <point x="634" y="722"/>
    </contour>
    <contour>
      <point x="233" y="0" type="curve"/>
      <point x="233" y="241"/>
      <point x="233" y="481"/>
      <point x="233" y="722" type="curve"/>
      <point x="105" y="722"/>
      <point x="233" y="722"/>
      <point x="105" y="722" type="curve"/>
      <point x="105" y="481"/>
      <point x="105" y="241"/>
      <point x="105" y="0" type="curve"/>
      <point x="233" y="0"/>
      <point x="105" y="0"/>
    </contour>
    <contour>
      <point x="300" y="-368" type="line"/>
      <point x="388" y="-365"/>
      <point x="446" y="-301"/>
      <point x="446" y="-202" type="curve"/>
      <point x="446" y="-122"/>
      <point x="416" y="-79"/>
      <point x="373" y="-79" type="curve"/>
      <point x="333" y="-79"/>
      <point x="307" y="-102"/>
      <point x="307" y="-144" type="curve"/>
      <point x="307" y="-179"/>
      <point x="325" y="-205"/>
      <point x="361" y="-206" type="curve"/>
      <point x="361" y="-232"/>
      <point x="358" y="-285"/>
      <point x="298" y="-298" type="curve"/>
    </contour>
  </outline>
</glyph>
<glyph name="Ncaron" format="1">
  <advance width="732"/>
  <unicode hex="0147"/>
  <outline>
    <contour>
      <point x="170" y="722" type="curve"/>
      <point x="125" y="722"/>
      <point x="83" y="722"/>
      <point x="39" y="722" type="curve"/>
      <point x="39" y="624"/>
      <point x="39" y="722"/>
      <point x="39" y="624" type="curve"/>
      <point x="173" y="624"/>
      <point x="37" y="624"/>
      <point x="170" y="624" type="curve"/>
      <point x="170" y="722"/>
      <point x="170" y="624"/>
    </contour>
    <contour>
      <point x="572" y="624" type="curve"/>
      <point x="704" y="624"/>
      <point x="569" y="624"/>
      <point x="701" y="624" type="curve"/>
      <point x="701" y="722"/>
      <point x="701" y="624"/>
      <point x="701" y="722" type="curve"/>
      <point x="656" y="722"/>
      <point x="615" y="722"/>
      <point x="572" y="722" type="curve"/>
      <point x="572" y="624"/>
      <point x="572" y="722"/>
    </contour>
    <contour>
      <point x="572" y="722" type="curve"/>
      <point x="529" y="722"/>
      <point x="488" y="722"/>
      <point x="446" y="722" type="curve"/>
      <point x="446" y="624"/>
      <point x="446" y="722"/>
      <point x="446" y="624" type="curve"/>
      <point x="574" y="624"/>
      <point x="443" y="624"/>
      <point x="572" y="624" type="curve"/>
      <point x="572" y="722"/>
      <point x="572" y="624"/>
    </contour>
    <contour>
      <point x="169" y="98" type="curve"/>
      <point x="36" y="98"/>
      <point x="172" y="98"/>
      <point x="39" y="98" type="curve"/>
      <point x="38" y="0"/>
      <point x="39" y="98"/>
      <point x="38" y="0" type="curve"/>
      <point x="82" y="0"/>
      <point x="124" y="0"/>
      <point x="169" y="0" type="curve"/>
      <point x="169" y="98"/>
      <point x="169" y="0"/>
    </contour>
    <contour>
      <point x="169" y="0" type="curve"/>
      <point x="211" y="0"/>
      <point x="167" y="0"/>
      <point x="294" y="0" type="curve"/>
      <point x="294" y="98"/>
      <point x="294" y="0"/>
      <point x="294" y="98" type="curve"/>
      <point x="167" y="98"/>
      <point x="297" y="98"/>
      <point x="169" y="98" type="curve"/>
      <point x="169" y="0"/>
      <point x="169" y="98"/>
    </contour>
    <contour>
      <point x="635" y="0" type="curve"/>
      <point x="502" y="241"/>
      <point x="369" y="481"/>
      <point x="237" y="722" type="curve"/>
      <point x="105" y="722"/>
      <point x="237" y="722"/>
      <point x="105" y="722" type="curve"/>
      <point x="237" y="481"/>
      <point x="370" y="241"/>
      <point x="503" y="0" type="curve"/>
      <point x="635" y="0"/>
      <point x="503" y="0"/>
    </contour>
    <contour>
      <point x="507" y="722" type="curve"/>
      <point x="507" y="481"/>
      <point x="507" y="241"/>
      <point x="507" y="0" type="curve"/>
      <point x="634" y="0"/>
      <point x="507" y="0"/>
      <point x="634" y="0" type="curve"/>
      <point x="634" y="241"/>
      <point x="634" y="481"/>
      <point x="634" y="722" type="curve"/>
      <point x="507" y="722"/>
      <point x="634" y="722"/>
    </contour>
    <contour>
      <point x="233" y="0" type="curve"/>
      <point x="233" y="241"/>
      <point x="233" y="481"/>
      <point x="233" y="722" type="curve"/>
      <point x="105" y="722"/>
      <point x="233" y="722"/>
      <point x="105" y="722" type="curve"/>
      <point x="105" y="481"/>
      <point x="105" y="241"/>
      <point x="105" y="0" type="curve"/>
      <point x="233" y="0"/>
      <point x="105" y="0"/>
    </contour>
    <contour>
      <point x="435" y="953" type="line"/>
      <point x="317" y="787" type="line"/>
      <point x="473" y="787" type="line"/>
      <point x="555" y="953" type="line"/>
    </contour>
    <contour>
      <point x="187" y="953" type="line"/>
      <point x="268" y="787" type="line"/>
      <point x="424" y="787" type="line"/>
      <point x="307" y="953" type="line"/>
    </contour>
  </outline>
</glyph>
<glyph name="Omacron" format="1">
  <advance width="656"/>
  <unicode hex="014C"/>
  <outline>
    <contour>
      <point x="177" y="360" type="curve"/>
      <point x="177" y="501"/>
      <point x="200" y="624"/>
      <point x="325" y="624" type="curve"/>
      <point x="446" y="624"/>
      <point x="479" y="504"/>
      <point x="479" y="363" type="curve"/>
      <point x="479" y="221"/>
      <point x="454" y="99"/>
      <point x="330" y="99" type="curve"/>
      <point x="207" y="99"/>
      <point x="177" y="218"/>
      <point x="177" y="360" type="curve"/>
      <point x="50" y="360"/>
      <point x="177" y="360"/>
      <point x="50" y="360" type="curve"/>
      <point x="50" y="152"/>
      <point x="136" y="-5"/>
      <point x="325" y="-5" type="curve"/>
      <point x="517" y="-5"/>
      <point x="606" y="154"/>
      <point x="606" y="363" type="curve"/>
      <point x="606" y="569"/>
      <point x="521" y="727"/>
      <point x="331" y="727" type="curve"/>
      <point x="139" y="727"/>
      <point x="50" y="568"/>
      <point x="50" y="360" type="curve"/>
      <point x="177" y="360"/>
      <point x="50" y="360"/>
    </contour>
    <contour>
      <point x="412" y="884" type="curve"/>
      <point x="356" y="884"/>
      <point x="300" y="884"/>
      <point x="244" y="884" type="curve"/>
      <point x="244" y="786"/>
      <point x="244" y="884"/>
      <point x="244" y="786" type="curve"/>
      <point x="300" y="786"/>
      <point x="356" y="786"/>
      <point x="412" y="786" type="curve"/>
      <point x="412" y="884"/>
      <point x="412" y="786"/>
    </contour>
  </outline>
</glyph>
<glyph name="omacron" format="1">
  <advance width="529"/>
  <unicode hex="014D"/>
  <outline>
    <contour>
      <point x="159" y="265" type="curve"/>
      <point x="159" y="353"/>
      <point x="178" y="435"/>
      <point x="259" y="435" type="curve"/>
      <point x="340" y="435"/>
      <point x="361" y="355"/>
      <point x="361" y="265" type="curve"/>
      <point x="361" y="173"/>
      <point x="343" y="98"/>
      <point x="267" y="98" type="curve"/>
      <point x="177" y="99"/>
      <point x="159" y="173"/>
      <point x="159" y="265" type="curve"/>
      <point x="156" y="265"/>
      <point x="44" y="265"/>
      <point x="41" y="265" type="curve"/>
      <point x="41" y="107"/>
      <point x="112" y="-5"/>
      <point x="262" y="-5" type="curve"/>
      <point x="413" y="-5"/>
      <point x="488" y="105"/>
      <point x="488" y="265" type="curve"/>
      <point x="488" y="426"/>
      <point x="415" y="538"/>
      <point x="265" y="538" type="curve"/>
      <point x="113" y="538"/>
      <point x="41" y="426"/>
      <point x="41" y="265" type="curve"/>
      <point x="44" y="265"/>
      <point x="156" y="265"/>
    </contour>
    <contour>
      <point x="346" y="716" type="curve"/>
      <point x="291" y="716"/>
      <point x="234" y="716"/>
      <point x="179" y="716" type="curve"/>
      <point x="179" y="618"/>
      <point x="179" y="716"/>
      <point x="179" y="618" type="curve"/>
      <point x="234" y="618"/>
      <point x="291" y="618"/>
      <point x="346" y="618" type="curve"/>
      <point x="346" y="716"/>
      <point x="346" y="618"/>
    </contour>
  </outline>
</glyph>
<glyph name="rcaron" format="1">
  <advance width="391"/>
  <unicode hex="0159"/>
  <outline>
    <contour>
      <point x="179" y="0" type="curve"/>
      <point x="221" y="0"/>
      <point x="262" y="0"/>
      <point x="305" y="0" type="curve"/>
      <point x="305" y="98"/>
      <point x="305" y="0"/>
      <point x="305" y="98" type="curve"/>
      <point x="177" y="98"/>
      <point x="306" y="98"/>
      <point x="179" y="98" type="curve"/>
      <point x="179" y="0"/>
      <point x="179" y="98"/>
    </contour>
    <contour>
      <point x="179" y="98" type="curve"/>
      <point x="44" y="98"/>
      <point x="180" y="98"/>
      <point x="45" y="98" type="curve"/>
      <point x="44" y="0"/>
      <point x="45" y="98"/>
      <point x="44" y="0" type="curve"/>
      <point x="89" y="0"/>
      <point x="133" y="0"/>
      <point x="179" y="0" type="curve"/>
      <point x="179" y="98"/>
      <point x="179" y="0"/>
    </contour>
    <contour>
      <point x="178" y="533" type="curve"/>
      <point x="133" y="533"/>
      <point x="88" y="533"/>
      <point x="44" y="533" type="curve"/>
      <point x="44" y="435"/>
      <point x="44" y="533"/>
      <point x="44" y="435" type="curve"/>
      <point x="179" y="435"/>
      <point x="43" y="435"/>
      <point x="178" y="435" type="curve"/>
      <point x="178" y="533"/>
      <point x="178" y="435"/>
    </contour>
    <contour>
      <point x="242" y="0" type="curve"/>
      <point x="242" y="178"/>
      <point x="242" y="355"/>
      <point x="242" y="533" type="curve"/>
      <point x="115" y="533"/>
      <point x="242" y="533"/>
      <point x="115" y="533" type="curve"/>
      <point x="115" y="355"/>
      <point x="115" y="178"/>
      <point x="115" y="0" type="curve"/>
      <point x="242" y="0"/>
      <point x="115" y="0"/>
    </contour>
    <contour>
      <point x="215" y="295" type="curve"/>
      <point x="244" y="407"/>
      <point x="299" y="435"/>
      <point x="364" y="435" type="curve"/>
      <point x="364" y="539"/>
      <point x="364" y="435"/>
      <point x="364" y="538" type="curve"/>
      <point x="271" y="538"/>
      <point x="203" y="452"/>
      <point x="169" y="344" type="curve"/>
      <point x="212" y="295"/>
      <point x="172" y="344"/>
    </contour>
    <contour>
      <point x="252" y="785" type="line"/>
      <point x="135" y="619" type="line"/>
      <point x="291" y="619" type="line"/>
      <point x="373" y="785" type="line"/>
    </contour>
    <contour>
      <point x="4" y="785" type="line"/>
      <point x="86" y="619" type="line"/>
      <point x="242" y="619" type="line"/>
      <point x="125" y="785" type="line"/>
    </contour>
  </outline>
</glyph>
<glyph name="Scedilla" format="1">
  <advance width="518"/>
  <unicode hex="015E"/>
  <outline>
    <contour>
      <point x="326" y="661" type="curve"/>
      <point x="326" y="541"/>
      <point x="326" y="643"/>
      <point x="326" y="523" type="curve"/>
      <point x="426" y="523"/>
      <point x="326" y="523"/>
      <point x="426" y="523" type="curve"/>
      <point x="426" y="643"/>
      <point x="426" y="541"/>
      <point x="426" y="661" type="curve"/>
      <point x="326" y="661"/>
      <point x="426" y="661"/>
    </contour>
    <contour>
      <point x="171" y="54" type="curve"/>
      <point x="171" y="174"/>
      <point x="171" y="82"/>
      <point x="171" y="202" type="curve"/>
      <point x="71" y="202"/>
      <point x="171" y="202"/>
      <point x="71" y="202" type="curve"/>
      <point x="71" y="82"/>
      <point x="71" y="174"/>
      <point x="71" y="54" type="curve"/>
      <point x="171" y="54"/>
      <point x="71" y="54"/>
    </contour>
    <contour>
      <point x="71" y="54" type="curve"/>
      <point x="125" y="13"/>
      <point x="177" y="-5"/>
      <point x="247" y="-5" type="curve"/>
      <point x="375" y="-5"/>
      <point x="470" y="65"/>
      <point x="470" y="191" type="curve"/>
      <point x="470" y="300"/>
      <point x="398" y="359"/>
      <point x="301" y="415" type="curve"/>
      <point x="242" y="449"/>
      <point x="192" y="490"/>
      <point x="192" y="542" type="curve"/>
      <point x="189" y="587"/>
      <point x="216" y="624"/>
      <point x="259" y="624" type="curve"/>
      <point x="304" y="624"/>
      <point x="340" y="600"/>
      <point x="368" y="583" type="curve"/>
      <point x="425" y="660"/>
      <point x="369" y="584"/>
      <point x="426" y="661" type="curve"/>
      <point x="375" y="700"/>
      <point x="327" y="718"/>
      <point x="262" y="718" type="curve"/>
      <point x="145" y="718"/>
      <point x="64" y="650"/>
      <point x="64" y="538" type="curve"/>
      <point x="64" y="433"/>
      <point x="132" y="373"/>
      <point x="222" y="321" type="curve"/>
      <point x="285" y="285"/>
      <point x="343" y="243"/>
      <point x="343" y="191" type="curve"/>
      <point x="343" y="146"/>
      <point x="307" y="99"/>
      <point x="253" y="99" type="curve"/>
      <point x="207" y="99"/>
      <point x="176" y="121"/>
      <point x="140" y="147" type="curve"/>
      <point x="72" y="55"/>
      <point x="139" y="146"/>
    </contour>
    <contour>
      <point x="217" y="81" type="curve"/>
      <point x="207" y="60"/>
      <point x="171" y="-27"/>
      <point x="161" y="-50" type="curve"/>
      <point x="248" y="-129"/>
      <point x="161" y="-50"/>
      <point x="248" y="-129" type="curve"/>
      <point x="260" y="-102"/>
      <point x="303" y="-14"/>
      <point x="315" y="12" type="curve"/>
      <point x="217" y="81"/>
      <point x="315" y="12"/>
    </contour>
    <contour>
      <point x="248" y="-129" type="curve"/>
      <point x="254" y="-124"/>
      <point x="258" y="-120"/>
      <point x="265" y="-120" type="curve"/>
      <point x="274" y="-120"/>
      <point x="280" y="-126"/>
      <point x="280" y="-138" type="curve"/>
      <point x="280" y="-153"/>
      <point x="266" y="-160"/>
      <point x="250" y="-160" type="curve"/>
      <point x="232" y="-160"/>
      <point x="217" y="-156"/>
      <point x="201" y="-146" type="curve"/>
      <point x="153" y="-217"/>
      <point x="201" y="-146"/>
      <point x="153" y="-217" type="curve"/>
      <point x="181" y="-237"/>
      <point x="209" y="-244"/>
      <point x="244" y="-244" type="curve"/>
      <point x="311" y="-244"/>
      <point x="357" y="-206"/>
      <point x="357" y="-136" type="curve"/>
      <point x="357" y="-70"/>
      <point x="316" y="-27"/>
      <point x="251" y="-27" type="curve"/>
      <point x="217" y="-27"/>
      <point x="192" y="-32"/>
      <point x="161" y="-50" type="curve"/>
      <point x="248" y="-129"/>
      <point x="161" y="-50"/>
    </contour>
  </outline>
</glyph>
<glyph name="Tcommaaccent" format="1">
  <advance width="510"/>
  <unicode hex="0162"/>
  <outline>
    <contour>
      <point x="25" y="672" type="curve"/>
      <point x="25" y="552"/>
      <point x="25" y="673"/>
      <point x="25" y="553" type="curve"/>
      <point x="124" y="553"/>
      <point x="25" y="553"/>
      <point x="124" y="553" type="curve"/>
      <point x="124" y="673"/>
      <point x="124" y="552"/>
      <point x="124" y="672" type="curve"/>
      <point x="25" y="672"/>
      <point x="124" y="672"/>
    </contour>
    <contour>
      <point x="385" y="672" type="curve"/>
      <point x="385" y="552"/>
      <point x="385" y="673"/>
      <point x="385" y="553" type="curve"/>
      <point x="485" y="553"/>
      <point x="385" y="553"/>
      <point x="485" y="553" type="curve"/>
      <point x="485" y="673"/>
      <point x="485" y="552"/>
      <point x="485" y="672" type="curve"/>
      <point x="385" y="672"/>
      <point x="485" y="672"/>
    </contour>
    <contour>
      <point x="254" y="0" type="curve"/>
      <point x="299" y="0"/>
      <point x="343" y="0"/>
      <point x="388" y="0" type="curve"/>
      <point x="388" y="98"/>
      <point x="388" y="0"/>
      <point x="388" y="98" type="curve"/>
      <point x="253" y="98"/>
      <point x="389" y="98"/>
      <point x="254" y="98" type="curve"/>
      <point x="254" y="0"/>
      <point x="254" y="98"/>
    </contour>
    <contour>
      <point x="254" y="98" type="curve"/>
      <point x="119" y="98"/>
      <point x="255" y="98"/>
      <point x="120" y="98" type="curve"/>
      <point x="120" y="0"/>
      <point x="120" y="98"/>
      <point x="120" y="0" type="curve"/>
      <point x="165" y="0"/>
      <point x="209" y="0"/>
      <point x="254" y="0" type="curve"/>
      <point x="254" y="98"/>
      <point x="254" y="0"/>
    </contour>
    <contour>
      <point x="319" y="0" type="curve"/>
      <point x="319" y="237"/>
      <point x="319" y="473"/>
      <point x="319" y="710" type="curve"/>
      <point x="191" y="710"/>
      <point x="319" y="710"/>
      <point x="191" y="710" type="curve"/>
      <point x="191" y="473"/>
      <point x="191" y="237"/>
      <point x="191" y="0" type="curve"/>
      <point x="319" y="0"/>
      <point x="191" y="0"/>
    </contour>
    <contour>
      <point x="25" y="617" type="curve"/>
      <point x="177" y="617"/>
      <point x="332" y="617"/>
      <point x="485" y="617" type="curve"/>
      <point x="485" y="726"/>
      <point x="485" y="613"/>
      <point x="485" y="722" type="curve"/>
      <point x="332" y="722"/>
      <point x="177" y="722"/>
      <point x="25" y="722" type="curve"/>
      <point x="25" y="613"/>
      <point x="25" y="726"/>
    </contour>
    <contour>
      <point x="185" y="-367" type="line"/>
      <point x="272" y="-364"/>
      <point x="330" y="-300"/>
      <point x="330" y="-201" type="curve"/>
      <point x="330" y="-121"/>
      <point x="300" y="-79"/>
      <point x="257" y="-79" type="curve"/>
      <point x="217" y="-79"/>
      <point x="191" y="-101"/>
      <point x="191" y="-143" type="curve"/>
      <point x="191" y="-178"/>
      <point x="210" y="-205"/>
      <point x="245" y="-205" type="curve"/>
      <point x="245" y="-231"/>
      <point x="242" y="-284"/>
      <point x="183" y="-297" type="curve"/>
    </contour>
  </outline>
</glyph>
